<svg width="102" height="108" viewBox="0 0 102 108" fill="none" xmlns="http://www.w3.org/2000/svg">
<path d="M33.0512 107.759L44.1103 100.55C53.9952 101.851 64.4104 100.235 74.0429 95.1975C96.7543 83.2926 106.867 55.5314 97.1709 31.7847C85.973 4.35173 53.6165 -7.59103 27.1935 6.28327C4.74713 18.0619 -5.41557 45.3182 3.80031 68.9259C8.37037 80.6415 16.7783 89.5922 26.9536 95.0207L26.9283 95.0081L33.0512 107.759Z" fill="white"/>
<path d="M33.0527 107.751C33.0527 107.751 32.9138 107.499 32.6361 106.969C32.3457 106.388 31.9417 105.592 31.4241 104.57C30.3384 102.373 28.7603 99.2045 26.7278 95.1016C26.6773 95.0006 26.7152 94.8869 26.8162 94.8364C26.854 94.8112 26.9045 94.8112 26.9424 94.8238C26.9424 94.8238 26.955 94.8238 26.9677 94.8238L26.8288 95.1899C21.3119 92.2737 14.3179 87.2996 8.70004 79.0053C5.89742 74.8898 3.52401 69.9788 1.89545 64.4493C0.31739 58.9072 -0.364319 52.7086 0.191162 46.2575C0.784508 39.819 2.66554 33.1659 5.97315 26.9168C9.28077 20.6929 13.9645 14.7846 20.0873 10.2651C26.1471 5.70763 33.4566 2.40002 41.3217 0.885079C49.1867 -0.680357 57.6325 -0.150129 65.5986 2.32427C69.6637 3.4731 73.4384 5.39202 77.0237 7.43718C78.7407 8.58601 80.4828 9.70959 82.0861 10.9847L84.4217 12.9793L85.5705 13.9767L86.6183 15.075C92.3246 20.8444 96.3897 27.851 98.801 35.11C101.25 42.3944 101.667 49.9943 100.77 57.0514C99.8488 64.1211 97.5006 70.6984 94.2309 76.3163C90.9359 81.9342 86.7446 86.6179 82.2124 90.2285C81.0383 91.0743 79.8895 91.9076 78.7533 92.7282C77.6045 93.5235 76.3673 94.1547 75.2184 94.8491C72.8829 96.2125 70.4842 97.2351 68.1487 98.1062C58.7309 101.565 50.1715 101.54 44.0612 100.707L44.1875 100.682C40.6021 102.967 37.8121 104.734 35.8679 105.971C34.959 106.539 34.252 106.981 33.7344 107.309C33.2799 107.625 33.04 107.764 33.0527 107.751C33.0527 107.751 33.3052 107.562 33.7849 107.234C34.3025 106.88 34.9968 106.413 35.9058 105.794C37.7868 104.532 40.5137 102.714 43.9981 100.379C44.036 100.353 44.0865 100.341 44.1243 100.353C50.2093 101.098 58.6804 101.035 67.9467 97.5507C70.2444 96.667 72.6178 95.6444 74.9028 94.281C76.039 93.5866 77.251 92.9554 78.3745 92.1601C79.4855 91.3395 80.6217 90.5189 81.7705 89.673C86.2144 86.0877 90.3173 81.4545 93.5365 75.9124C96.7432 70.3576 99.0282 63.8939 99.9119 56.9378C100.77 50.0069 100.354 42.5332 97.9299 35.3878C95.5565 28.255 91.5419 21.3872 85.9492 15.7315L84.9267 14.6458L83.7904 13.6737L81.5054 11.7169C79.9274 10.4797 78.2231 9.36873 76.544 8.24515C73.0091 6.23785 69.3228 4.36944 65.3335 3.23323C57.5189 0.796708 49.2373 0.266478 41.5111 1.80666C33.7849 3.28373 26.6016 6.5156 20.6554 10.9847C14.6462 15.4159 10.0256 21.1979 6.75588 27.3081C3.48615 33.4436 1.6051 39.9831 0.999123 46.3079C0.418396 52.6454 1.06224 58.7557 2.58981 64.2347C4.16786 69.7011 6.46552 74.5615 9.21765 78.6392C14.7093 86.8704 21.577 91.8571 27.0182 94.8238C27.1065 94.8743 27.1444 94.9879 27.0939 95.0889C27.056 95.1647 26.955 95.2026 26.8793 95.1899C26.8667 95.1899 26.854 95.1773 26.854 95.1773L27.0687 94.8996C28.9876 98.9899 30.4773 102.171 31.4998 104.355C31.9922 105.416 32.3709 106.236 32.6487 106.842C32.9264 107.436 33.0527 107.751 33.0527 107.751Z" fill="#E0E0E0"/>
<path d="M45.663 28.2215L46.7487 56.5761C46.8371 58.899 48.6424 60.78 50.9527 60.982C53.3892 61.184 55.5606 59.4418 55.8888 57.0179L59.7393 28.6507C60.0297 26.5046 58.3759 24.5856 56.2045 24.5604L49.2989 24.4847C47.2537 24.4594 45.5873 26.1637 45.663 28.2215Z" fill="#FF725E"/>
<path d="M57.24 73.7172C56.7856 78.6534 51.5969 81.5318 47.1783 79.2972C44.7039 78.0474 43.2016 75.3331 43.4541 72.581C43.9086 67.6448 49.0972 64.7791 53.5158 67.001C55.9902 68.2382 57.4925 70.9524 57.24 73.7172Z" fill="#FF725E"/>
</svg>
