<svg width="102" height="108" viewBox="0 0 102 108" fill="none" xmlns="http://www.w3.org/2000/svg">
<path d="M68.1529 107.759L57.0938 100.55C47.2089 101.851 36.7937 100.235 27.1612 95.1975C4.44977 83.2926 -5.66243 55.5314 4.03317 31.7847C15.2311 4.35173 47.5876 -7.59103 74.0106 6.28327C96.457 18.0619 106.62 45.3182 97.4038 68.9259C92.8337 80.6415 84.4258 89.5922 74.2505 95.0207L74.2758 95.0081L68.1529 107.759Z" fill="white"/>
<path d="M68.1514 107.751C68.1514 107.751 68.2903 107.499 68.568 106.969C68.8584 106.388 69.2624 105.592 69.78 104.57C70.8657 102.373 72.4438 99.2045 74.4763 95.1016C74.5268 95.0006 74.4889 94.8869 74.3879 94.8364C74.3501 94.8112 74.2996 94.8112 74.2617 94.8238C74.2617 94.8238 74.2491 94.8238 74.2364 94.8238L74.3753 95.1899C79.8922 92.2737 86.8862 87.2996 92.5041 79.0053C95.3067 74.8898 97.6801 69.9788 99.3086 64.4493C100.887 58.9072 101.568 52.7086 101.013 46.2575C100.42 39.819 98.5386 33.1659 95.2309 26.9168C91.9233 20.6929 87.2396 14.7846 81.1168 10.2651C75.057 5.70763 67.7475 2.40002 59.8824 0.885079C52.0174 -0.680357 43.5716 -0.150129 35.6055 2.32427C31.5404 3.4731 27.7657 5.39202 24.1804 7.43718C22.4634 8.58601 20.7213 9.70959 19.118 10.9847L16.7824 12.9793L15.6336 13.9767L14.5858 15.075C8.87951 20.8444 4.81441 27.851 2.40314 35.11C-0.0460136 42.3944 -0.462618 49.9943 0.43372 57.0514C1.35531 64.1211 3.70347 70.6984 6.97321 76.3163C10.2682 81.9342 14.4595 86.6179 18.9917 90.2285C20.1658 91.0743 21.3146 91.9076 22.4508 92.7282C23.5996 93.5235 24.8368 94.1547 25.9857 94.8491C28.3212 96.2125 30.7199 97.2351 33.0554 98.1062C42.4733 101.565 51.0326 101.54 57.1429 100.707L57.0166 100.682C60.602 102.967 63.392 104.734 65.3362 105.971C66.2451 106.539 66.9521 106.981 67.4697 107.309C67.9242 107.625 68.1641 107.764 68.1514 107.751C68.1514 107.751 67.8989 107.562 67.4192 107.234C66.9016 106.88 66.2073 106.413 65.2983 105.794C63.4173 104.532 60.6904 102.714 57.206 100.379C57.1681 100.353 57.1176 100.341 57.0798 100.353C50.9948 101.098 42.5237 101.035 33.2574 97.5507C30.9597 96.667 28.5863 95.6444 26.3013 94.281C25.1651 93.5866 23.9531 92.9554 22.8296 92.1601C21.7186 91.3395 20.5824 90.5189 19.4336 89.673C14.9897 86.0877 10.8868 81.4545 7.66756 75.9124C4.46094 70.3576 2.17591 63.8939 1.29219 56.9378C0.43373 50.0069 0.850328 42.5332 3.27423 35.3878C5.64763 28.255 9.66222 21.3872 15.2549 15.7315L16.2774 14.6458L17.4137 13.6737L19.6987 11.7169C21.2767 10.4797 22.981 9.36873 24.6601 8.24515C28.195 6.23785 31.8813 4.36944 35.8706 3.23323C43.6852 0.796708 51.9669 0.266478 59.693 1.80666C67.4192 3.28373 74.6025 6.5156 80.5487 10.9847C86.5579 15.4159 91.1785 21.1979 94.4482 27.3081C97.718 33.4436 99.599 39.9831 100.205 46.3079C100.786 52.6454 100.142 58.7557 98.6143 64.2347C97.0362 69.7011 94.7386 74.5615 91.9865 78.6392C86.4948 86.8704 79.6271 91.8571 74.1859 94.8238C74.0976 94.8743 74.0597 94.9879 74.1102 95.0889C74.1481 95.1647 74.2491 95.2026 74.3248 95.1899C74.3374 95.1899 74.3501 95.1773 74.3501 95.1773L74.1354 94.8996C72.2165 98.9899 70.7268 102.171 69.7043 104.355C69.2119 105.416 68.8332 106.236 68.5554 106.842C68.2777 107.436 68.1514 107.751 68.1514 107.751Z" fill="#E0E0E0"/>
<path d="M55.5411 28.2215L54.4554 56.5761C54.367 58.899 52.5617 60.78 50.2514 60.982C47.8149 61.184 45.6435 59.4418 45.3153 57.0179L41.4648 28.6507C41.1744 26.5046 42.8282 24.5856 44.9996 24.5604L51.9052 24.4847C53.9504 24.4594 55.6168 26.1637 55.5411 28.2215Z" fill="#FF725E"/>
<path d="M43.9641 73.7172C44.4186 78.6534 49.6072 81.5318 54.0258 79.2972C56.5002 78.0474 58.0025 75.3331 57.75 72.581C57.2955 67.6448 52.1069 64.7791 47.6883 67.001C45.2139 68.2382 43.7116 70.9524 43.9641 73.7172Z" fill="#FF725E"/>
</svg>
