<svg width="56" height="56" viewBox="0 0 56 56" fill="none" xmlns="http://www.w3.org/2000/svg">
<g id="Frame">
<g id="Layer 2">
<g id="E404, gear, Media, media player, multimedia">
<path id="Vector" d="M39.8843 36.2815V32.2454C39.8843 31.7579 39.6884 31.2904 39.3397 30.9457C38.991 30.601 38.518 30.4073 38.0249 30.4073H35.9257C35.5553 30.4066 35.1936 30.2971 34.8864 30.0926C34.5792 29.8881 34.3404 29.598 34.2005 29.2591L34.1906 29.2356C34.0471 28.898 34.0081 28.5259 34.0783 28.1663C34.1486 27.8067 34.325 27.4757 34.5854 27.2152L36.0658 25.7517C36.2385 25.5811 36.3755 25.3785 36.469 25.1556C36.5625 24.9326 36.6106 24.6936 36.6106 24.4522C36.6106 24.2109 36.5625 23.9719 36.469 23.7489C36.3755 23.5259 36.2385 23.3233 36.0658 23.1527L33.1859 20.2922C33.0133 20.1215 32.8084 19.986 32.5828 19.8936C32.3572 19.8012 32.1155 19.7537 31.8713 19.7537C31.6271 19.7537 31.3853 19.8012 31.1598 19.8936C30.9342 19.986 30.7293 20.1215 30.5567 20.2922L29.0763 21.7556C28.8127 22.013 28.4779 22.1874 28.1141 22.2569C27.7503 22.3263 27.3739 22.2877 27.0323 22.1459L27.0086 22.1361C26.6661 21.9979 26.3727 21.7622 26.1659 21.4589C25.9591 21.1556 25.8481 20.7985 25.847 20.4327V18.3654C25.847 17.8779 25.6511 17.4104 25.3024 17.0657C24.9537 16.721 24.4807 16.5273 23.9876 16.5273H19.9007C19.4075 16.5273 18.9346 16.721 18.5859 17.0657C18.2371 17.4104 18.0412 17.8779 18.0412 18.3654V20.4405C18.0405 20.8066 17.9297 21.1642 17.7229 21.4679C17.516 21.7715 17.2225 22.0075 16.8796 22.1459L16.8559 22.1556C16.5143 22.2975 16.1379 22.3361 15.7741 22.2666C15.4104 22.1972 15.0756 22.0228 14.812 21.7654L13.3316 20.302C13.159 20.1312 12.954 19.9958 12.7285 19.9034C12.5029 19.811 12.2611 19.7634 12.0169 19.7634C11.7728 19.7634 11.531 19.811 11.3054 19.9034C11.0799 19.9958 10.8749 20.1312 10.7023 20.302L7.81158 23.1488C7.63886 23.3194 7.50184 23.522 7.40835 23.745C7.31487 23.9679 7.26675 24.207 7.26675 24.4483C7.26675 24.6897 7.31487 24.9287 7.40835 25.1517C7.50184 25.3746 7.63886 25.5772 7.81158 25.7478L9.29199 27.2112C9.55236 27.4718 9.7288 27.8028 9.79906 28.1624C9.86932 28.522 9.83025 28.8941 9.68677 29.2317L9.6769 29.2551C9.53708 29.5938 9.29863 29.8837 8.99183 30.0882C8.68503 30.2926 8.3237 30.4023 7.9537 30.4034H5.85941C5.61489 30.4034 5.37278 30.4511 5.14693 30.5437C4.92108 30.6363 4.71593 30.7721 4.54321 30.9432C4.3705 31.1143 4.23362 31.3174 4.14041 31.5408C4.0472 31.7643 3.99949 32.0037 4 32.2454V36.2815C4 36.769 4.1959 37.2365 4.54461 37.5812C4.89332 37.9259 5.36626 38.1195 5.85941 38.1195H7.95863C8.32864 38.1206 8.68996 38.2304 8.99677 38.4348C9.30357 38.6393 9.54201 38.9292 9.68184 39.2678L9.69171 39.2912C9.83518 39.6289 9.87426 40.001 9.804 40.3606C9.73374 40.7202 9.55729 41.0512 9.29693 41.3117L7.81651 42.7752C7.64379 42.9458 7.50677 43.1483 7.41329 43.3713C7.3198 43.5943 7.27169 43.8333 7.27169 44.0747C7.27169 44.316 7.3198 44.555 7.41329 44.778C7.50677 45.001 7.64379 45.2036 7.81651 45.3742L10.7033 48.2278C10.8759 48.3986 11.0808 48.534 11.3064 48.6264C11.532 48.7188 11.7738 48.7664 12.0179 48.7664C12.2621 48.7664 12.5039 48.7188 12.7295 48.6264C12.955 48.534 13.16 48.3986 13.3325 48.2278L14.813 46.7644C15.0765 46.507 15.4114 46.3326 15.7751 46.2632C16.1389 46.1937 16.5153 46.2323 16.8569 46.3742L16.8806 46.3839C17.2232 46.5222 17.5165 46.7579 17.7233 47.0611C17.9301 47.3644 18.0411 47.7216 18.0422 48.0873V50.1625C18.0425 50.6496 18.2384 51.1167 18.5868 51.4612C18.9353 51.8057 19.4078 51.9993 19.9007 51.9995H23.9836C24.4768 51.9995 24.9497 51.8059 25.2984 51.4612C25.6471 51.1165 25.843 50.649 25.843 50.1615V48.0864C25.8442 47.7206 25.9552 47.3634 26.162 47.0602C26.3688 46.7569 26.6621 46.5212 27.0047 46.383L27.0284 46.3732C27.3699 46.2314 27.7464 46.1927 28.1101 46.2622C28.4739 46.3317 28.8087 46.5061 29.0723 46.7634L30.5527 48.2269C30.7253 48.3976 30.9303 48.533 31.1558 48.6255C31.3814 48.7179 31.6232 48.7654 31.8673 48.7654C32.1115 48.7654 32.3533 48.7179 32.5789 48.6255C32.8044 48.533 33.0094 48.3976 33.1819 48.2269L36.0757 45.3781C36.2484 45.2075 36.3854 45.0049 36.4789 44.7819C36.5724 44.5589 36.6205 44.3199 36.6205 44.0786C36.6205 43.8372 36.5724 43.5982 36.4789 43.3752C36.3854 43.1522 36.2484 42.9497 36.0757 42.7791L34.5953 41.3156C34.3349 41.0551 34.1584 40.7241 34.0882 40.3645C34.0179 40.0049 34.057 39.6328 34.2005 39.2952L34.2103 39.2717C34.3502 38.9331 34.5886 38.6432 34.8954 38.4387C35.2022 38.2343 35.5635 38.1245 35.9335 38.1234H38.0328C38.5252 38.1214 38.9968 37.9263 39.3439 37.581C39.691 37.2356 39.8853 36.7683 39.8843 36.2815Z" stroke="#6A31A5" stroke-width="2" stroke-linecap="round" stroke-linejoin="round"/>
<path id="Vector_2" d="M21.9429 41.56C26.02 41.56 29.3252 38.2927 29.3252 34.2624C29.3252 30.2321 26.02 26.9648 21.9429 26.9648C17.8657 26.9648 14.5605 30.2321 14.5605 34.2624C14.5605 38.2927 17.8657 41.56 21.9429 41.56Z" stroke="#6A31A5" stroke-width="2" stroke-linecap="round" stroke-linejoin="round"/>
<path id="Vector_3" d="M23.4863 16.5278V16.4878C23.4863 16.0997 23.6423 15.7275 23.9199 15.453C24.1976 15.1786 24.5741 15.0244 24.9667 15.0244H26.6347C26.9289 15.0241 27.2163 14.9372 27.4603 14.7747C27.7043 14.6122 27.8937 14.3816 28.0046 14.1122C28.0046 14.1063 28.0095 14.0995 28.0125 14.0937C28.1265 13.825 28.1572 13.5289 28.1006 13.243C28.044 12.957 27.9027 12.6942 27.6947 12.4878L26.5103 11.3229C26.234 11.0487 26.0788 10.6773 26.0788 10.2902C26.0788 9.90315 26.234 9.53183 26.5103 9.25756L28.804 6.99024C29.0814 6.71738 29.4568 6.56421 29.8482 6.56421C30.2395 6.56421 30.6149 6.71738 30.8924 6.99024L32.0717 8.16098C32.2809 8.3657 32.5469 8.50446 32.8359 8.55968C33.1249 8.61491 33.424 8.58412 33.6953 8.47122L33.714 8.46341C33.9867 8.35403 34.2203 8.16678 34.3848 7.92559C34.5493 7.68439 34.6374 7.40018 34.6378 7.10927V5.46341C34.6378 5.07529 34.7938 4.70307 35.0714 4.42862C35.349 4.15418 35.7256 4 36.1182 4H39.3623C39.7549 4 40.1315 4.15418 40.4091 4.42862C40.6867 4.70307 40.8427 5.07529 40.8427 5.46341V7.1122C40.843 7.403 40.931 7.68712 41.0953 7.92831C41.2597 8.16949 41.493 8.35681 41.7655 8.46634L41.7833 8.47415C42.0547 8.587 42.354 8.61776 42.6431 8.56254C42.9323 8.50732 43.1984 8.3686 43.4078 8.1639L44.5921 6.99317C44.8695 6.72031 45.245 6.56714 45.6363 6.56714C46.0276 6.56714 46.4031 6.72031 46.6805 6.99317L48.9741 9.26049C49.2505 9.53476 49.4056 9.90608 49.4056 10.2932C49.4056 10.6803 49.2505 11.0516 48.9741 11.3259L47.7878 12.4878C47.5805 12.6946 47.44 12.9577 47.3843 13.2437C47.3286 13.5296 47.3602 13.8255 47.475 14.0937L47.4819 14.1122C47.5926 14.3814 47.782 14.612 48.0258 14.7744C48.2696 14.9369 48.5568 15.0239 48.8508 15.0244H50.5187C50.9113 15.0244 51.2879 15.1786 51.5655 15.453C51.8432 15.7275 51.9991 16.0997 51.9991 16.4878V19.6937C51.9991 20.0818 51.8432 20.454 51.5655 20.7284C51.2879 21.0029 50.9113 21.1571 50.5187 21.1571H48.8508C48.5566 21.1576 48.2694 21.2448 48.0256 21.4074C47.7817 21.5701 47.5925 21.8008 47.4819 22.0702L47.475 22.0878C47.3595 22.3559 47.3276 22.6519 47.3833 22.938C47.439 23.2241 47.5799 23.4872 47.7878 23.6937L48.9672 24.8595C49.2433 25.1337 49.3982 25.5049 49.3982 25.8917C49.3982 26.2786 49.2433 26.6497 48.9672 26.9239L46.6736 29.1912C46.3962 29.4641 46.0207 29.6173 45.6294 29.6173C45.238 29.6173 44.8626 29.4641 44.5852 29.1912L43.4009 28.0254C43.1921 27.8197 42.926 27.6802 42.6366 27.625C42.3471 27.5697 42.0476 27.6011 41.7764 27.7151L41.7586 27.722C41.4875 27.8321 41.2555 28.0192 41.0921 28.2598C40.9287 28.5003 40.8412 28.7834 40.8407 29.0732V30.722C40.8396 31.0195 40.7466 31.3097 40.5744 31.5537C40.4021 31.7977 40.1586 31.9841 39.8765 32.0878" stroke="#6A31A5" stroke-width="2" stroke-linecap="round" stroke-linejoin="round"/>
<path id="Vector_4" d="M37.7429 22.8403C40.3969 22.8403 42.5484 20.7136 42.5484 18.0901C42.5484 15.4666 40.3969 13.3398 37.7429 13.3398C35.089 13.3398 32.9375 15.4666 32.9375 18.0901C32.9375 20.7136 35.089 22.8403 37.7429 22.8403Z" stroke="#6A31A5" stroke-width="2" stroke-linecap="round" stroke-linejoin="round"/>
</g>
</g>
</g>
</svg>
