<svg width="40" height="40" viewBox="0 0 40 40" fill="none" xmlns="http://www.w3.org/2000/svg">
<rect width="40" height="40" rx="8" fill="url(#paint0_linear_254_19227)"/>
<path d="M27.0196 19.1461L32.0588 10.2418C29.2197 6.73534 24.882 4.49219 20.0189 4.49219C19.6088 4.49219 19.2043 4.51309 18.8027 4.54445L27.0196 19.1461Z" fill="white"/>
<path d="M22.8264 13.3769L17.9103 4.64062C12.6328 5.36011 8.2027 8.73458 6.00977 13.3769H22.8264Z" fill="white"/>
<path d="M24.2266 25.7599H34.3897C35.1088 23.973 35.5082 22.0235 35.5082 19.9802C35.5082 16.6118 34.4299 13.4978 32.6046 10.957L24.2266 25.7599Z" fill="white"/>
<path d="M15.8104 14.2031H5.65037C4.93132 15.9893 4.53125 17.9388 4.53125 19.9824C4.53125 23.3308 5.59766 26.4298 7.40546 28.9638L15.8104 14.2031Z" fill="white"/>
<path d="M17.2324 26.5859L22.1704 35.3166C27.4297 34.5857 31.8432 31.2161 34.0305 26.5859H17.2324Z" fill="white"/>
<path d="M13.008 20.793L7.94922 29.6786C10.7879 33.2079 15.1391 35.468 20.0203 35.468C20.4442 35.468 20.8626 35.4459 21.2773 35.4131L13.008 20.793Z" fill="white"/>
<path d="M20.5933 21.2297L20.8238 23.0518C20.8308 23.108 20.7912 23.1596 20.7351 23.1666L19.3164 23.1679C19.2598 23.1679 19.2136 23.1216 19.2136 23.0647L19.4455 21.2292C19.3953 21.169 19.3544 21.1011 19.3251 21.0279C19.2906 20.9413 19.2713 20.8468 19.2713 20.7489C19.2713 20.5419 19.3551 20.3542 19.4904 20.2185C19.6257 20.0822 19.813 19.9982 20.0194 19.9982C20.2258 19.9982 20.4131 20.0822 20.5514 20.2213C20.6862 20.3599 20.7675 20.5451 20.7675 20.7489C20.7675 20.8469 20.7482 20.9412 20.7137 21.0279C20.6842 21.1017 20.6433 21.1697 20.5933 21.2298V21.2297ZM18.1505 18.5456H18.9159L18.9164 17.3639C18.9282 17.0715 19.0562 16.8085 19.2556 16.6193C19.4543 16.4307 19.7241 16.3145 20.0195 16.3145C20.3158 16.3145 20.586 16.4309 20.7847 16.6217C20.9833 16.8126 21.1108 17.0772 21.1225 17.3738L21.1223 18.5456H21.8876V17.3631C21.8667 16.8532 21.6512 16.3999 21.3163 16.0739C20.9798 15.7464 20.522 15.5469 20.0193 15.5469C19.5175 15.5469 19.0602 15.7456 18.7239 16.0697C18.3873 16.3942 18.1708 16.8449 18.1508 17.3477L18.1503 18.5457L18.1505 18.5456ZM22.7924 18.752H17.2466C17.0801 18.752 16.9285 18.8205 16.8187 18.9307C16.709 19.0409 16.6406 19.193 16.6406 19.3601V23.0944C16.6406 23.4547 16.7863 23.7826 17.0241 24.0236C17.2653 24.2655 17.5942 24.4141 17.9557 24.4141H22.0834C22.445 24.4141 22.7738 24.2655 23.0121 24.0263C23.2506 23.7875 23.3984 23.4575 23.3984 23.0945V19.3601C23.3984 19.1931 23.3302 19.0409 23.2203 18.9308C23.1105 18.8206 22.9589 18.752 22.7925 18.752L22.7924 18.752Z" fill="white"/>
<defs>
<linearGradient id="paint0_linear_254_19227" x1="3.18359" y1="-0.761719" x2="37.3633" y2="40.8594" gradientUnits="userSpaceOnUse">
<stop stop-color="#0E2F39"/>
<stop offset="0.989583" stop-color="#0F272F"/>
</linearGradient>
</defs>
</svg>
