<svg width="40" height="40" viewBox="0 0 40 40" fill="none" xmlns="http://www.w3.org/2000/svg">
<rect width="40" height="40" rx="8" fill="url(#paint0_linear_254_19257)"/>
<circle cx="20" cy="21" r="10.75" fill="white" fill-opacity="0.2" stroke="white" stroke-width="0.5"/>
<g clip-path="url(#clip0_254_19257)">
<rect width="3.43173" height="7.82959" rx="1.71587" transform="matrix(0.758393 -0.651798 0.651194 0.758911 13 21.6367)" fill="white"/>
<rect width="5.91317" height="5.97144" transform="matrix(0.758393 -0.651798 0.651194 0.758911 14.9961 25.0352)" fill="#E03131"/>
<g filter="url(#filter0_f_254_19257)">
<rect width="0.225038" height="2.34209" transform="matrix(0.722444 -0.691491 0.690851 0.722938 16.1523 24.8516)" fill="white"/>
</g>
<g filter="url(#filter1_f_254_19257)">
<rect width="0.281802" height="2.30908" transform="matrix(0.722444 -0.691491 0.690851 0.722938 14.3594 22.375)" fill="#D6D6D6"/>
</g>
</g>
<g clip-path="url(#clip1_254_19257)">
<rect width="3.43181" height="7.8294" rx="1.71591" transform="matrix(0.738501 0.674252 -0.67366 0.739042 23.3125 15)" fill="white"/>
<rect width="6.72949" height="6.51812" transform="matrix(0.738501 0.674252 -0.67366 0.739042 19.8398 17.1016)" fill="#E03131"/>
<g filter="url(#filter2_f_254_19257)">
<rect width="0.216237" height="2.51748" transform="matrix(0.773505 0.633723 -0.633167 0.774071 20.668 18.8477)" fill="white"/>
</g>
<g filter="url(#filter3_f_254_19257)">
<rect width="0.215302" height="2.24466" transform="matrix(0.706848 0.707417 -0.706796 0.707365 22.8867 16.3594)" fill="#D6D6D6"/>
</g>
</g>
<line x1="20.1" y1="10.1" x2="20.1" y2="11.6" stroke="white" stroke-width="0.2" stroke-linecap="round"/>
<line x1="0.1" y1="-0.1" x2="1.6" y2="-0.1" transform="matrix(-1 8.74227e-08 8.74227e-08 1 30.6992 22)" stroke="white" stroke-width="0.2" stroke-linecap="round"/>
<line x1="0.1" y1="-0.1" x2="1.6" y2="-0.1" transform="matrix(-1 8.74227e-08 8.74227e-08 1 10.6992 22)" stroke="white" stroke-width="0.2" stroke-linecap="round"/>
<line x1="20.1" y1="30.4008" x2="20.1" y2="31.9008" stroke="white" stroke-width="0.2" stroke-linecap="round"/>
<path d="M25.993 10.336C26.3931 9.96052 26.8599 9.66418 27.3669 9.46392C27.874 9.26366 28.4112 9.16341 28.9481 9.16889C29.4849 9.17438 30.0108 9.28549 30.4958 9.49587C30.9807 9.70626 31.4152 10.0118 31.7744 10.3951C32.1337 10.7783 32.4106 11.2318 32.5894 11.7296C32.7681 12.2274 32.8453 12.7598 32.8165 13.2963C32.7876 13.8328 32.6533 14.363 32.4212 14.8566C32.1891 15.3502 31.8638 15.7976 31.4638 16.1731C31.4638 16.1731 31.1167 14.7844 29.2361 12.778C27.3555 10.7715 25.993 10.336 25.993 10.336Z" fill="white"/>
<line x1="0.1" y1="-0.1" x2="0.770185" y2="-0.1" transform="matrix(-0.729079 0.684429 -0.683843 -0.729629 32.2812 9.91797)" stroke="white" stroke-width="0.2" stroke-linecap="round"/>
<path d="M13.9871 10.2863C13.582 9.91628 13.1112 9.62635 12.6015 9.43304C12.0918 9.23974 11.5532 9.14685 11.0164 9.15967C10.4797 9.17249 9.95538 9.29078 9.47335 9.50778C8.99133 9.72478 8.56106 10.0362 8.20712 10.4244C7.85318 10.8125 7.58249 11.2697 7.41052 11.7699C7.23854 12.2701 7.16865 12.8035 7.20482 13.3396C7.24099 13.8757 7.38253 14.404 7.62135 14.8943C7.86016 15.3847 8.19158 15.8275 8.59668 16.1975C8.59668 16.1975 8.92481 14.8043 10.7778 12.7723C12.6307 10.7403 13.9871 10.2863 13.9871 10.2863Z" fill="white"/>
<line x1="0.1" y1="-0.1" x2="0.770175" y2="-0.1" transform="matrix(0.738368 0.674398 0.673806 -0.738908 7.69531 9.95312)" stroke="white" stroke-width="0.2" stroke-linecap="round"/>
<defs>
<filter id="filter0_f_254_19257" x="15.1523" y="23.6953" width="3.78125" height="3.84766" filterUnits="userSpaceOnUse" color-interpolation-filters="sRGB">
<feFlood flood-opacity="0" result="BackgroundImageFix"/>
<feBlend mode="normal" in="SourceGraphic" in2="BackgroundImageFix" result="shape"/>
<feGaussianBlur stdDeviation="0.5" result="effect1_foregroundBlur_254_19257"/>
</filter>
<filter id="filter1_f_254_19257" x="13.3594" y="21.1797" width="3.79883" height="3.86328" filterUnits="userSpaceOnUse" color-interpolation-filters="sRGB">
<feFlood flood-opacity="0" result="BackgroundImageFix"/>
<feBlend mode="normal" in="SourceGraphic" in2="BackgroundImageFix" result="shape"/>
<feGaussianBlur stdDeviation="0.5" result="effect1_foregroundBlur_254_19257"/>
</filter>
<filter id="filter2_f_254_19257" x="18.0742" y="17.8477" width="3.76172" height="4.08594" filterUnits="userSpaceOnUse" color-interpolation-filters="sRGB">
<feFlood flood-opacity="0" result="BackgroundImageFix"/>
<feBlend mode="normal" in="SourceGraphic" in2="BackgroundImageFix" result="shape"/>
<feGaussianBlur stdDeviation="0.5" result="effect1_foregroundBlur_254_19257"/>
</filter>
<filter id="filter3_f_254_19257" x="20.3008" y="15.3594" width="3.73828" height="3.73828" filterUnits="userSpaceOnUse" color-interpolation-filters="sRGB">
<feFlood flood-opacity="0" result="BackgroundImageFix"/>
<feBlend mode="normal" in="SourceGraphic" in2="BackgroundImageFix" result="shape"/>
<feGaussianBlur stdDeviation="0.5" result="effect1_foregroundBlur_254_19257"/>
</filter>
<linearGradient id="paint0_linear_254_19257" x1="20" y1="0" x2="20.2151" y2="60.8602" gradientUnits="userSpaceOnUse">
<stop stop-color="#269DB7"/>
<stop offset="0.87462" stop-color="#F8FEFF"/>
</linearGradient>
<clipPath id="clip0_254_19257">
<rect width="3.43173" height="7.82959" rx="1.71587" transform="matrix(0.758393 -0.651798 0.651194 0.758911 13 21.6367)" fill="white"/>
</clipPath>
<clipPath id="clip1_254_19257">
<rect width="3.43181" height="7.8294" rx="1.71591" transform="matrix(0.738501 0.674252 -0.67366 0.739042 23.3125 15)" fill="white"/>
</clipPath>
</defs>
</svg>
