<svg width="56" height="56" viewBox="0 0 56 56" fill="none" xmlns="http://www.w3.org/2000/svg">
<g id="Frame" clip-path="url(#clip0_152_19003)">
<path id="Vector" d="M19.25 50.75H36.75" stroke="#6A31A5" stroke-width="2" stroke-linecap="round" stroke-linejoin="round"/>
<path id="Vector_2" d="M17.2158 36.5323C15.1324 34.9123 13.445 32.8394 12.2815 30.4707C11.118 28.1019 10.5088 25.4995 10.5002 22.8604C10.4564 13.3666 18.0908 5.46976 27.5846 5.25101C31.2588 5.16391 34.8673 6.23583 37.8981 8.31475C40.9289 10.3937 43.2283 13.374 44.4701 16.8332C45.7119 20.2924 45.8331 24.0547 44.8165 27.5866C43.7999 31.1185 41.6972 34.2407 38.8064 36.5104C38.1679 37.004 37.6506 37.6371 37.2942 38.3612C36.9378 39.0854 36.7517 39.8814 36.7502 40.6885V42.001C36.7502 42.4651 36.5658 42.9103 36.2376 43.2384C35.9094 43.5666 35.4643 43.751 35.0002 43.751H21.0002C20.5361 43.751 20.0909 43.5666 19.7627 43.2384C19.4346 42.9103 19.2502 42.4651 19.2502 42.001V40.6885C19.2447 39.8875 19.059 39.0979 18.7068 38.3785C18.3547 37.659 17.8451 37.028 17.2158 36.5323Z" stroke="#6A31A5" stroke-width="2" stroke-linecap="round" stroke-linejoin="round"/>
<path id="Vector_3" d="M29.7715 12.4258C31.9104 12.7884 33.884 13.8059 35.4199 15.3379C36.9559 16.87 37.9784 18.841 38.3465 20.9789" stroke="#6A31A5" stroke-width="2" stroke-linecap="round" stroke-linejoin="round"/>
</g>
<defs>
<clipPath id="clip0_152_19003">
<rect width="56" height="56" fill="white"/>
</clipPath>
</defs>
</svg>
