<svg width="12" height="19" viewBox="0 0 12 19" fill="none" xmlns="http://www.w3.org/2000/svg">
<path style="fill: #6A31A5" d="M1.99994 19.0002C1.86833 19.0009 1.73787 18.9757 1.61603 18.926C1.4942 18.8762 1.38338 18.8029 1.28994 18.7102C1.19621 18.6172 1.12182 18.5066 1.07105 18.3848C1.02028 18.2629 0.994141 18.1322 0.994141 18.0002C0.994141 17.8682 1.02028 17.7375 1.07105 17.6156C1.12182 17.4937 1.19621 17.3831 1.28994 17.2902L8.58994 10.0002L1.28994 2.71019C1.10164 2.52188 0.995848 2.26649 0.995848 2.00019C0.995848 1.86833 1.02182 1.73776 1.07228 1.61594C1.12274 1.49411 1.1967 1.38342 1.28994 1.29019C1.38318 1.19695 1.49387 1.12299 1.61569 1.07253C1.73751 1.02207 1.86808 0.996094 1.99994 0.996094C2.26624 0.996094 2.52164 1.10188 2.70994 1.29019L10.7099 9.29019C10.8037 9.38315 10.8781 9.49375 10.9288 9.61561C10.9796 9.73747 11.0057 9.86817 11.0057 10.0002C11.0057 10.1322 10.9796 10.2629 10.9288 10.3848C10.8781 10.5066 10.8037 10.6172 10.7099 10.7102L2.70994 18.7102C2.6165 18.8029 2.50568 18.8762 2.38385 18.926C2.26201 18.9757 2.13155 19.0009 1.99994 19.0002Z" fill="black"/>
</svg>
