<svg width="12" height="8" viewBox="0 0 12 8" fill="none" xmlns="http://www.w3.org/2000/svg">
<path d="M6.0006 7.12365C5.91835 7.12413 5.83681 7.10836 5.76066 7.07726C5.68451 7.04616 5.61525 7.00033 5.55685 6.9424L0.556854 1.9424C0.49858 1.88413 0.452355 1.81495 0.420817 1.73881C0.389279 1.66267 0.373047 1.58106 0.373047 1.49865C0.373047 1.33221 0.439164 1.17259 0.556854 1.0549C0.674544 0.937211 0.834166 0.871094 1.0006 0.871094C1.16704 0.871094 1.32666 0.937211 1.44435 1.0549L6.0006 5.6174L10.5569 1.0549C10.6745 0.937211 10.8342 0.871094 11.0006 0.871094C11.167 0.871094 11.3267 0.937211 11.4444 1.0549C11.562 1.17259 11.6282 1.33221 11.6282 1.49865C11.6282 1.66509 11.562 1.82471 11.4444 1.9424L6.44435 6.9424C6.38595 7.00033 6.31669 7.04616 6.24055 7.07726C6.1644 7.10836 6.08286 7.12413 6.0006 7.12365Z" fill="#1A191C"/>
</svg>
