<svg width="12" height="19" viewBox="0 0 12 19" fill="none" xmlns="http://www.w3.org/2000/svg">
<path d="M9.99994 19.0002C9.86833 19.0009 9.73787 18.9757 9.61603 18.926C9.49419 18.8762 9.38338 18.8029 9.28994 18.7102L1.28994 10.7102C1.19621 10.6172 1.12182 10.5066 1.07105 10.3848C1.02028 10.2629 0.994141 10.1322 0.994141 10.0002C0.994141 9.86817 1.02028 9.73747 1.07105 9.61561C1.12182 9.49375 1.19621 9.38315 1.28994 9.29019L9.28994 1.29019C9.47824 1.10188 9.73364 0.996094 9.99994 0.996094C10.2662 0.996094 10.5216 1.10188 10.7099 1.29019C10.8982 1.47849 11.004 1.73388 11.004 2.00019C11.004 2.26649 10.8982 2.52188 10.7099 2.71019L3.40994 10.0002L10.7099 17.2902C10.8037 17.3831 10.8781 17.4937 10.9288 17.6156C10.9796 17.7375 11.0057 17.8682 11.0057 18.0002C11.0057 18.1322 10.9796 18.2629 10.9288 18.3848C10.8781 18.5066 10.8037 18.6172 10.7099 18.7102C10.6165 18.8029 10.5057 18.8762 10.3838 18.926C10.262 18.9757 10.1315 19.0009 9.99994 19.0002Z" fill="black"/>
</svg>
