<svg width="12" height="8" viewBox="0 0 12 8" fill="none" xmlns="http://www.w3.org/2000/svg">
<path d="M11.0006 7.12472C10.9184 7.12519 10.8368 7.10943 10.7607 7.07833C10.6845 7.04722 10.6153 7.00139 10.5569 6.94347L6.0006 2.38097L1.44435 6.94347C1.32666 7.06116 1.16704 7.12727 1.0006 7.12727C0.834166 7.12727 0.674544 7.06116 0.556854 6.94347C0.439164 6.82578 0.373047 6.66616 0.373047 6.49972C0.373047 6.33328 0.439164 6.17366 0.556854 6.05597L5.55686 1.05597C5.61496 0.997387 5.68408 0.950891 5.76024 0.919161C5.83641 0.88743 5.9181 0.871094 6.0006 0.871094C6.08311 0.871094 6.1648 0.88743 6.24096 0.919161C6.31713 0.950891 6.38625 0.997387 6.44435 1.05597L11.4444 6.05597C11.5029 6.11407 11.5494 6.1832 11.5812 6.25936C11.6129 6.33552 11.6292 6.41721 11.6292 6.49972C11.6292 6.58223 11.6129 6.66392 11.5812 6.74008C11.5494 6.81624 11.5029 6.88537 11.4444 6.94347C11.386 7.00139 11.3167 7.04722 11.2405 7.07833C11.1644 7.10943 11.0829 7.12519 11.0006 7.12472Z" fill="black"/>
</svg>
