<svg width="24" height="24" viewBox="0 0 24 24" fill="none" xmlns="http://www.w3.org/2000/svg">
<g id="Check" clip-path="url(#clip0_509_18167)">
<g id="Layer 28">
<path id="Vector" d="M12 23.25C9.77497 23.25 7.59989 22.5902 5.74984 21.354C3.89979 20.1179 2.45785 18.3609 1.60636 16.3052C0.754875 14.2495 0.532087 11.9875 0.966171 9.80524C1.40025 7.62295 2.47171 5.61839 4.04505 4.04505C5.61839 2.47171 7.62295 1.40025 9.80524 0.966171C11.9875 0.532087 14.2495 0.754875 16.3052 1.60636C18.3609 2.45785 20.1179 3.89979 21.354 5.74984C22.5902 7.59989 23.25 9.77497 23.25 12C23.25 14.9837 22.0647 17.8452 19.955 19.955C17.8452 22.0647 14.9837 23.25 12 23.25ZM12 2.25001C10.0716 2.25001 8.18657 2.82183 6.5832 3.89318C4.97982 4.96452 3.73013 6.48726 2.99218 8.26884C2.25423 10.0504 2.06114 12.0108 2.43735 13.9021C2.81355 15.7935 3.74215 17.5307 5.10571 18.8943C6.46928 20.2579 8.20656 21.1865 10.0979 21.5627C11.9892 21.9389 13.9496 21.7458 15.7312 21.0078C17.5127 20.2699 19.0355 19.0202 20.1068 17.4168C21.1782 15.8134 21.75 13.9284 21.75 12C21.75 9.41414 20.7228 6.93419 18.8943 5.10571C17.0658 3.27723 14.5859 2.25001 12 2.25001Z" fill="#1AE42E"/>
<path id="Vector_2" d="M10.2526 16.4986C10.1498 16.4982 10.0481 16.4768 9.95392 16.4355C9.85973 16.3942 9.77504 16.334 9.70511 16.2586L6.20261 12.5086C6.08294 12.361 6.02374 12.1735 6.03698 11.9839C6.05022 11.7944 6.13492 11.6169 6.27395 11.4874C6.41299 11.3579 6.596 11.286 6.78601 11.2862C6.97603 11.2864 7.15887 11.3587 7.29761 11.4886L10.2526 14.6461L16.7026 7.73856C16.7674 7.65869 16.8479 7.593 16.9391 7.54555C17.0303 7.49811 17.1303 7.46993 17.2329 7.46276C17.3355 7.4556 17.4384 7.4696 17.5353 7.5039C17.6323 7.5382 17.7211 7.59206 17.7964 7.66215C17.8716 7.73223 17.9316 7.81704 17.9727 7.9113C18.0138 8.00556 18.035 8.10726 18.0352 8.21008C18.0353 8.3129 18.0142 8.41465 17.9734 8.50901C17.9325 8.60336 17.8727 8.6883 17.7976 8.75856L10.8001 16.2586C10.7302 16.334 10.6455 16.3942 10.5513 16.4355C10.4571 16.4768 10.3554 16.4982 10.2526 16.4986Z" fill="#1AE42E"/>
</g>
</g>
<defs>
<clipPath id="clip0_509_18167">
<rect width="24" height="24" fill="white"/>
</clipPath>
</defs>
</svg>
