<svg width="12" height="12" viewBox="0 0 12 12" fill="none" xmlns="http://www.w3.org/2000/svg">
<g id="&#208;&#161;&#208;&#187;&#208;&#190;&#208;&#185;_1">
<path id="Close" d="M6.54617 6.00594L9.6358 2.93319C9.78392 2.78656 9.78392 2.54919 9.6358 2.40294C9.48805 2.25631 9.24805 2.25631 9.1003 2.40294L6.0133 5.47306L2.8978 2.35719C2.75005 2.20906 2.51005 2.20906 2.3623 2.35719C2.21455 2.50569 2.21455 2.74606 2.3623 2.89419L5.47555 6.00781L2.35105 9.11506C2.2033 9.26169 2.2033 9.49906 2.35105 9.64531C2.4988 9.79194 2.7388 9.79194 2.88655 9.64531L6.00842 6.54069L9.11155 9.64419C9.2593 9.79231 9.4993 9.79231 9.64705 9.64419C9.7948 9.49569 9.7948 9.25531 9.64705 9.10719L6.54617 6.00594Z" fill="#899D96"/>
</g>
</svg>
