<svg width="24" height="24" viewBox="0 0 24 24" fill="none" xmlns="http://www.w3.org/2000/svg">
<path d="M13.0943 12.0119L19.2735 5.86638C19.5698 5.57313 19.5698 5.09838 19.2735 4.80588C18.978 4.51263 18.498 4.51263 18.2025 4.80588L12.0285 10.9461L5.79755 4.71438C5.50205 4.41813 5.02205 4.41813 4.72655 4.71438C4.43105 5.01138 4.43105 5.49213 4.72655 5.78838L10.953 12.0156L4.70405 18.2301C4.40855 18.5234 4.40855 18.9981 4.70405 19.2906C4.99955 19.5839 5.47955 19.5839 5.77505 19.2906L12.0188 13.0814L18.225 19.2884C18.5205 19.5846 19.0005 19.5846 19.296 19.2884C19.5915 18.9914 19.5915 18.5106 19.296 18.2144L13.0943 12.0119Z" fill="#121313"/>
</svg>
