<svg width="22" height="22" viewBox="0 0 22 22" fill="none" xmlns="http://www.w3.org/2000/svg">
<g id="Icons">
<path id="Vector" d="M11 1.375C5.70625 1.375 1.375 5.70625 1.375 11C1.375 16.2937 5.70625 20.625 11 20.625C16.2937 20.625 20.625 16.2937 20.625 11C20.625 5.70625 16.2937 1.375 11 1.375ZM14.2313 12.1688L11.4813 14.9188C11.4125 14.9875 11.3437 15.0562 11.275 15.0562C11.2062 15.125 11.0688 15.125 11 15.125C10.9312 15.125 10.7938 15.125 10.725 15.0562C10.6563 14.9875 10.5875 14.9875 10.5188 14.9188L7.76875 12.1688C7.49375 11.8938 7.49375 11.4812 7.76875 11.2062C8.04375 10.9312 8.45625 10.9312 8.73125 11.2062L10.3125 12.7875V6.875C10.3125 6.4625 10.5875 6.1875 11 6.1875C11.4125 6.1875 11.6875 6.4625 11.6875 6.875V12.7875L13.2687 11.2062C13.5437 10.9312 13.9563 10.9312 14.2313 11.2062C14.5063 11.4812 14.5063 11.8938 14.2313 12.1688Z" fill="#6A31A5"/>
</g>
</svg>
