<svg width="22" height="22" viewBox="0 0 22 22" fill="none" xmlns="http://www.w3.org/2000/svg">
<g id="Layer_1">
<path id="Vector" d="M11 1C5.48602 1 1 5.48584 1 10.9996C1 16.5138 5.48602 21 11 21C16.514 21 21 16.5138 21 10.9996C21.0004 5.48584 16.5144 1 11 1ZM16.5253 10.2685L13.6303 12.3634L14.7453 15.771C14.763 15.8242 14.7723 15.881 14.7723 15.939C14.7723 16.2366 14.5314 16.4783 14.2337 16.4783C14.1153 16.4783 14.0065 16.4404 13.9179 16.3764L11.0004 14.2662L8.0829 16.3764C7.99428 16.4404 7.88552 16.4783 7.7675 16.4783C7.46943 16.4783 7.22815 16.237 7.22815 15.939C7.22815 15.8806 7.23782 15.8242 7.25554 15.771L8.3709 12.3634L5.47595 10.2689C5.34061 10.1715 5.2528 10.012 5.2528 9.83232C5.2528 9.53466 5.49368 9.29379 5.79175 9.29379H9.37549L10.4852 5.90192C10.5529 5.6816 10.7579 5.52129 11.0008 5.52129C11.2433 5.52129 11.4487 5.6816 11.516 5.90192L12.6257 9.29379H16.2095C16.5071 9.29379 16.7484 9.53466 16.7484 9.83232C16.748 10.012 16.6602 10.1711 16.5253 10.2685Z" fill="#6A31A5"/>
</g>
</svg>
