<svg width="22" height="22" viewBox="0 0 22 22" fill="none" xmlns="http://www.w3.org/2000/svg">
<path d="M11 1.375C5.68305 1.375 1.375 5.68305 1.375 11C1.375 16.317 5.68305 20.625 11 20.625C16.317 20.625 20.625 16.317 20.625 11C20.625 5.68305 16.317 1.375 11 1.375ZM7.34766 15.2062C7.28859 15.3069 7.20405 15.3904 7.10252 15.4481C7.001 15.5058 6.88607 15.5357 6.7693 15.5349C6.65028 15.536 6.53333 15.5038 6.43156 15.4421C6.35579 15.3982 6.28943 15.3398 6.2363 15.2701C6.18317 15.2005 6.14431 15.1211 6.12195 15.0364C6.0996 14.9517 6.09418 14.8635 6.10602 14.7767C6.11786 14.6899 6.14672 14.6063 6.19094 14.5307L6.84793 13.4385C6.88113 13.3821 6.9285 13.3354 6.98533 13.303C7.04217 13.2706 7.10649 13.2536 7.17191 13.2537H7.26902C7.74555 13.2537 8.07898 13.5403 8.17609 13.8179L7.34766 15.2062ZM12.91 13.0578L8.6075 13.0625H5.74793C5.65796 13.0629 5.56885 13.045 5.48601 13.0099C5.40316 12.9748 5.32831 12.9232 5.26599 12.8583C5.20367 12.7935 5.15518 12.7166 5.12347 12.6324C5.09175 12.5482 5.07747 12.4584 5.08148 12.3686C5.09523 12.0076 5.4102 11.7343 5.76898 11.7343H7.8418L10.2992 7.55133L9.5034 6.19566C9.32422 5.88672 9.40371 5.47937 9.71094 5.28516C9.78668 5.23617 9.87154 5.20301 9.96043 5.18766C10.0493 5.17232 10.1404 5.1751 10.2282 5.19585C10.316 5.2166 10.3986 5.25489 10.4712 5.30842C10.5438 5.36194 10.6049 5.42959 10.6507 5.5073L11.0761 6.23391H11.0808L11.5066 5.5073C11.5524 5.42999 11.6134 5.36271 11.6858 5.30945C11.7582 5.2562 11.8406 5.21807 11.928 5.19734C12.0155 5.1766 12.1062 5.1737 12.1948 5.18878C12.2834 5.20387 12.3681 5.23665 12.4438 5.28516C12.7493 5.47937 12.8279 5.88672 12.6474 6.19695L11.8516 7.55262L11.0782 8.87133L9.39855 11.7356V11.7404H11.874C12.1842 11.7404 12.5731 11.9071 12.7304 12.1752L12.7441 12.2031C12.8829 12.439 12.9615 12.601 12.9615 12.8369C12.9593 12.9135 12.9422 12.989 12.9113 13.0591L12.91 13.0578ZM16.2508 13.0625H15.0859V13.0672L15.9375 14.5157C16.0291 14.6683 16.0572 14.8507 16.0156 15.0237C15.9741 15.1967 15.8663 15.3465 15.7154 15.4408C15.6108 15.5046 15.4907 15.5383 15.3682 15.5384C15.2517 15.5383 15.1373 15.5081 15.0359 15.4508C14.9346 15.3934 14.8498 15.3108 14.7898 15.2109L13.5313 13.0685L12.7493 11.7365L11.7404 10.0117C11.5942 9.76544 11.5148 9.48534 11.5099 9.19902C11.505 8.91269 11.5748 8.63003 11.7124 8.37891C11.9118 8.02699 12.0643 7.93461 12.0643 7.93461L14.3086 11.7305H16.2383C16.5993 11.7305 16.9091 12.008 16.9258 12.3643C16.9293 12.4548 16.9144 12.5452 16.8821 12.6298C16.8498 12.7145 16.8007 12.7918 16.7378 12.857C16.6748 12.9222 16.5994 12.974 16.5159 13.0093C16.4324 13.0447 16.3427 13.0627 16.2521 13.0625H16.2508Z" fill="#6A31A5"/>
</svg>
