<svg width="17" height="16" viewBox="0 0 17 16" fill="none" xmlns="http://www.w3.org/2000/svg">
<g id="Frame" clip-path="url(#clip0_155_37963)">
<path id="Vector" d="M8.5 11C7.98344 11 7.46688 10.8306 7.02625 10.4872L0.5 5.4125V12.5C0.5 13.3281 1.17156 14 2 14H15C15.8284 14 16.5 13.3284 16.5 12.5V5.4125L9.975 10.4906C9.53438 10.8313 9.01562 11 8.5 11ZM1.00906 4.54063L7.64031 9.7C8.14625 10.0938 8.855 10.0938 9.36094 9.7L15.9922 4.54063C16.2844 4.29063 16.5 3.90625 16.5 3.5C16.5 2.67156 15.8281 2 15 2H2C1.17156 2 0.5 2.67156 0.5 3.5C0.5 3.90625 0.687813 4.29063 1.00906 4.54063Z" fill="white"/>
</g>
<defs>
<clipPath id="clip0_155_37963">
<rect width="16" height="16" fill="white" transform="translate(0.5)"/>
</clipPath>
</defs>
</svg>
