<svg width="24" height="24" viewBox="0 0 24 24" fill="none" xmlns="http://www.w3.org/2000/svg">
<path d="M22 18.003C22 18.5526 21.5544 18.9982 21.0048 18.9982H12.9952C12.4456 18.9982 12 18.5526 12 18.003C12 17.4534 12.4456 17.0078 12.9952 17.0078H21.0048C21.5544 17.0078 22 17.4534 22 18.003Z" fill="#1A191C"/>
<path d="M22 12.0029C22 12.5526 21.5544 12.9981 21.0048 12.9981H2.99519C2.44556 12.9981 2 12.5526 2 12.0029C2 11.4533 2.44556 11.0078 2.99519 11.0078H21.0048C21.5544 11.0078 22 11.4533 22 12.0029Z" fill="#1A191C"/>
<path d="M21.0048 6.99039C21.5544 6.99039 22 6.54482 22 5.99519C22 5.44556 21.5544 5 21.0048 5H8.99519C8.44556 5 8 5.44556 8 5.99519C8 6.54482 8.44556 6.99039 8.99519 6.99039H21.0048Z" fill="#1A191C"/>
</svg>
