<svg width="24" height="24" viewBox="0 0 24 24" fill="none" xmlns="http://www.w3.org/2000/svg">
<path d="M22.2816 21.2159L17.4066 16.3409H17.3541C18.8567 14.5692 19.616 12.2851 19.4732 9.96639C19.3304 7.6477 18.2966 5.47403 16.588 3.90008C14.8794 2.32612 12.6283 1.47381 10.3058 1.52142C7.98316 1.56904 5.76894 2.51291 4.12628 4.15557C2.48361 5.79824 1.53975 8.01246 1.49213 10.3351C1.44451 12.6576 2.29682 14.9087 3.87078 16.6173C5.44474 18.3259 7.61841 19.3597 9.9371 19.5025C12.2558 19.6453 14.5399 18.886 16.3116 17.3834C16.3116 17.3834 16.3116 17.4209 16.3116 17.4359L21.1866 22.3109C21.2563 22.3812 21.3392 22.437 21.4306 22.475C21.522 22.5131 21.6201 22.5327 21.7191 22.5327C21.8181 22.5327 21.9161 22.5131 22.0075 22.475C22.0989 22.437 22.1818 22.3812 22.2516 22.3109C22.3285 22.2428 22.3905 22.1596 22.434 22.0666C22.4774 21.9735 22.5013 21.8725 22.5041 21.7699C22.5069 21.6672 22.4886 21.5651 22.4503 21.4698C22.4121 21.3745 22.3546 21.288 22.2816 21.2159ZM10.4991 17.9984C9.01571 17.9984 7.56566 17.5585 6.33229 16.7344C5.09892 15.9103 4.13763 14.7389 3.56997 13.3685C3.00231 11.998 2.85379 10.49 3.14318 9.03518C3.43256 7.58033 4.14687 6.24395 5.19576 5.19506C6.24466 4.14617 7.58103 3.43186 9.03589 3.14247C10.4907 2.85308 11.9987 3.00161 13.3692 3.56927C14.7396 4.13692 15.911 5.09822 16.7351 6.33158C17.5592 7.56495 17.9991 9.015 17.9991 10.4984C17.9991 11.4833 17.8051 12.4585 17.4282 13.3685C17.0513 14.2784 16.4988 15.1052 15.8024 15.8017C15.1059 16.4981 14.2791 17.0505 13.3692 17.4275C12.4592 17.8044 11.484 17.9984 10.4991 17.9984Z" fill="black"/>
</svg>
