<svg width="56" height="56" viewBox="0 0 56 56" fill="none" xmlns="http://www.w3.org/2000/svg">
<g id="Finger">
<g id="Group">
<path id="Vector" d="M22.8373 16.366C26.6749 16.366 29.7859 13.255 29.7859 9.41737C29.7859 5.57975 26.6749 2.46875 22.8373 2.46875C18.9997 2.46875 15.8887 5.57975 15.8887 9.41737C15.8887 13.255 18.9997 16.366 22.8373 16.366Z" fill="white" stroke="#6A31A5" stroke-width="0.8" stroke-miterlimit="10" stroke-linecap="round" stroke-linejoin="round"/>
<path id="Vector_2" d="M22.8358 14.4997C25.6424 14.4997 27.9177 12.2245 27.9177 9.41781C27.9177 6.61117 25.6424 4.33594 22.8358 4.33594C20.0291 4.33594 17.7539 6.61117 17.7539 9.41781C17.7539 12.2245 20.0291 14.4997 22.8358 14.4997Z" fill="white" stroke="#6A31A5" stroke-width="0.5" stroke-miterlimit="10" stroke-linecap="round" stroke-linejoin="round"/>
<path id="Vector_3" d="M41.7355 23.5471C40.4373 23.5471 39.3764 24.6075 39.3764 25.9062V31.5007C39.3764 31.9271 39.0251 32.2822 38.5949 32.2822C38.155 32.2822 37.8015 31.9271 37.8015 31.5007V23.6476C37.8015 22.3415 36.749 21.2884 35.4424 21.2884C34.1443 21.2884 33.0856 22.341 33.0856 23.6476V29.9237C33.0856 30.3562 32.7304 30.7052 32.3018 30.7052C31.8637 30.7052 31.5085 30.3562 31.5085 29.9237V19.6131C31.5085 18.3144 30.456 17.2563 29.1482 17.2563C27.8433 17.2563 26.7908 18.3144 26.7908 19.6131V29.9237C26.7908 30.3562 26.4373 30.7052 25.9986 30.7052C25.57 30.7052 25.2154 30.3562 25.2154 29.9237V9.84349C25.2154 8.53745 24.1556 7.48438 22.8569 7.48438C21.5514 7.48438 20.4989 8.53689 20.4989 9.84349V37.7915L17.3086 33.4257C16.3645 31.9756 14.5198 31.4838 13.168 32.3229C11.8224 33.1721 11.4921 35.0338 12.4227 36.4855C12.4227 36.4855 17.5621 44.2613 19.7536 47.5883C21.9421 50.9225 25.4932 53.5279 32.1324 53.5279C43.12 53.5279 44.1036 45.0456 44.1036 42.5098V25.9062C44.1042 24.6075 43.0421 23.5471 41.7355 23.5471Z" fill="white" stroke="#6A31A5" stroke-width="2" stroke-miterlimit="10"/>
<path id="Vector_4" d="M41.7355 23.5471C40.4373 23.5471 39.3764 24.6075 39.3764 25.9062V31.5007C39.3764 31.9271 39.0251 32.2822 38.5949 32.2822C38.155 32.2822 37.8015 31.9271 37.8015 31.5007V23.6476C37.8015 22.3415 36.749 21.2884 35.4424 21.2884C34.1443 21.2884 33.0856 22.341 33.0856 23.6476V29.9237C33.0856 30.3562 32.7304 30.7052 32.3018 30.7052C31.8637 30.7052 31.5085 30.3562 31.5085 29.9237V19.6131C31.5085 18.3144 30.456 17.2563 29.1482 17.2563C27.8433 17.2563 26.7908 18.3144 26.7908 19.6131V29.9237C26.7908 30.3562 26.4373 30.7052 25.9986 30.7052C25.57 30.7052 25.2154 30.3562 25.2154 29.9237V9.84349C25.2154 8.53745 24.1556 7.48438 22.8569 7.48438C21.5514 7.48438 20.4989 8.53689 20.4989 9.84349V37.7915L17.3086 33.4257C16.3645 31.9756 14.5198 31.4838 13.168 32.3229C11.8224 33.1721 11.4921 35.0338 12.4227 36.4855C12.4227 36.4855 17.5621 44.2613 19.7536 47.5883C21.9421 50.9225 25.4932 53.5279 32.1324 53.5279C43.12 53.5279 44.1036 45.0456 44.1036 42.5098V25.9062C44.1042 24.6075 43.0421 23.5471 41.7355 23.5471Z" fill="white" stroke="#6A31A5" stroke-width="1.5" stroke-miterlimit="10" stroke-linecap="round" stroke-linejoin="round"/>
</g>
</g>
</svg>
