<svg width="48" height="48" viewBox="0 0 48 48" fill="none" xmlns="http://www.w3.org/2000/svg">
<g clip-path="url(#clip0_152_21333)">
<mask id="path-1-outside-1_152_21333" maskUnits="userSpaceOnUse" x="1" y="1" width="48" height="48" fill="black">
<rect fill="white" x="1" y="1" width="48" height="48"/>
<path d="M33.5451 15.094L34.1301 14.1018C34.3316 13.7651 34.1991 13.3422 33.8332 13.1554C33.4673 12.9685 33.0051 13.0876 32.7992 13.4219L32.1959 14.4309V14.4313C31.9676 14.374 31.732 14.3472 31.4959 14.3508H24.5465C23.7385 14.3472 22.9616 14.6386 22.388 15.1605C21.8144 15.6825 21.4908 16.3924 21.4887 17.1337V23.5052C21.4904 24.4497 22.0164 25.328 22.8842 25.8363L20.4804 29.1973C20.2518 28.8806 19.9518 28.6128 19.6008 28.4119C18.976 28.0379 18.2274 27.878 17.4868 27.9602C17.2368 27.4984 16.8568 27.1063 16.3864 26.8241C15.8963 26.5355 15.3305 26.3735 14.7481 26.3559C14.1662 26.3379 13.5895 26.4649 13.0798 26.7227C12.9093 26.5607 12.7208 26.4152 12.518 26.2881C11.8565 25.8813 11.0524 25.7173 10.265 25.8283C9.47807 25.9394 8.76502 26.3174 8.26741 26.8874C8.20969 26.9379 8.15723 26.9928 8.11089 27.0522L3.09564 34.0828C2.12679 35.4232 1.78141 37.0629 2.13597 38.6379C2.49011 40.213 3.51533 41.5932 4.9839 42.4727L9.91118 45.462C11.5967 46.471 13.0565 46.3275 14.6086 46.1419C15.6224 46.0233 16.645 45.982 17.6664 46.0196C20.6136 46.2265 24.0308 47.8946 24.0766 47.9154C24.189 47.9659 24.311 47.9944 24.436 48H24.5051C24.6848 47.9788 25.9649 47.7719 26.55 46.0197C27.2683 43.8959 25.1775 41.9576 22.7966 40.9907C21.8229 40.5758 20.7955 40.2775 19.7388 40.1039L29.6538 26.2887H31.4957C32.3006 26.2887 33.0727 25.9956 33.6415 25.4737C34.2108 24.9518 34.5304 24.2438 34.5304 23.5058V17.1343C34.5361 16.3562 34.1771 15.6138 33.5449 15.0946L33.5451 15.094ZM23.0175 23.5052V17.1337C23.0188 16.36 23.7026 15.7326 24.5464 15.7318H31.4084L28.0787 21.2378L25.8314 18.0413C25.7212 17.8849 25.5472 17.7747 25.3487 17.7358C25.1498 17.6965 24.9421 17.7318 24.7712 17.8332C24.6007 17.9346 24.4813 18.0942 24.4389 18.2766C24.3969 18.459 24.4354 18.6494 24.5465 18.8057L26.5038 21.5673C25.9984 21.7722 25.5691 22.1081 25.2696 22.5342L23.7175 24.6793V24.6789C23.2856 24.4191 23.0233 23.979 23.0176 23.5051L23.0175 23.5052ZM28.8892 24.8437L17.8279 40.2476C17.6954 40.4292 17.6613 40.6565 17.7356 40.8641C17.8288 41.0646 18.0067 41.2213 18.2284 41.2991C18.4999 41.358 18.7902 41.4005 19.0848 41.4426C20.1569 41.5484 21.1997 41.8274 22.1658 42.266C23.6025 42.8444 25.5598 44.2251 25.113 45.6269C25.0125 45.9833 24.7917 46.3008 24.4821 46.5349C23.515 46.1 20.5219 44.8248 17.7588 44.6391C17.4457 44.6179 17.1279 44.6179 16.8376 44.6179C16.0327 44.6287 15.2287 44.6764 14.429 44.7614C12.946 44.9262 11.9788 45.0316 10.7403 44.2884L5.81734 41.3203C4.68544 40.64 3.89492 39.5744 3.62126 38.3594C3.34713 37.1439 3.61208 35.8787 4.35751 34.8428L9.39112 27.8335L8.76503 27.4451L9.43745 27.7746L9.43702 27.7742C9.70153 27.4735 10.078 27.2735 10.4942 27.2125C10.91 27.1516 11.3358 27.2346 11.6891 27.445C11.9239 27.5922 12.1167 27.789 12.2509 28.0191C12.3637 28.2083 12.56 28.3438 12.7895 28.3907C13.03 28.4212 13.2713 28.3442 13.4388 28.1839C13.7195 27.9429 14.0789 27.7938 14.4614 27.7601C14.844 27.7265 15.2279 27.8103 15.5527 27.9979C15.9138 28.2123 16.1722 28.5443 16.2758 28.9271C16.3187 29.1251 16.4603 29.2939 16.658 29.3829C16.8394 29.4879 17.0659 29.5024 17.2613 29.421C17.7641 29.2558 18.322 29.3159 18.7688 29.5841C19.2156 29.8519 19.4998 30.2965 19.5361 30.7847C19.5479 31.0838 19.7792 31.3375 20.0979 31.4013C20.4136 31.4907 20.7546 31.3724 20.9269 31.1142L26.527 23.2984C26.7474 22.9905 27.0976 22.7808 27.4941 22.7199C27.8828 22.6566 28.2829 22.7472 28.5946 22.9693C29.2159 23.4255 29.3448 24.2453 28.8893 24.8438L28.8892 24.8437ZM33.0247 23.5052C33.0234 24.2789 32.3396 24.9062 31.4958 24.907H30.5056C30.7106 24.3626 30.7233 23.7725 30.5423 23.2209C30.3613 22.6693 29.9958 22.1839 29.4974 21.8331C29.4974 21.8331 29.4742 21.8331 29.4742 21.8163L32.7576 16.3692C32.9286 16.5937 33.0217 16.8599 33.0248 17.1337L33.0247 23.5052ZM25.6932 10.4329H30.3259C30.934 10.4313 31.5164 10.2092 31.9462 9.81517C32.3756 9.42111 32.6178 8.88714 32.6195 8.32989V4.08217C32.616 3.52736 32.3729 2.9962 31.9427 2.60613C31.5125 2.21567 30.9315 1.998 30.326 2.00041H25.6933C25.0908 1.99921 24.5128 2.21849 24.0866 2.60894C23.6608 2.99979 23.422 3.52976 23.4229 4.08211V8.32982C23.4203 8.88463 23.6577 9.41785 24.0835 9.81223C24.5094 10.2063 25.0882 10.4296 25.6933 10.4328L25.6932 10.4329ZM24.929 4.08222C24.9285 3.89622 25.0085 3.71742 25.1524 3.58594C25.2958 3.45446 25.4903 3.38069 25.6932 3.38109H30.3263C30.5292 3.37989 30.7246 3.45365 30.868 3.58514C31.0119 3.71703 31.0919 3.89582 31.0906 4.08223V8.32995C31.0928 8.51635 31.0127 8.69595 30.8689 8.82784C30.7251 8.95973 30.5296 9.03269 30.3263 9.03109H25.6932C25.4903 9.03229 25.2949 8.95853 25.1515 8.82704C25.0076 8.69515 24.9276 8.51636 24.929 8.32995L24.929 4.08222ZM32.6194 32.309V36.5567C32.6173 37.1139 32.3746 37.6475 31.9453 38.0412C31.5155 38.4352 30.9336 38.6573 30.3263 38.6597H25.6931C24.9853 38.6601 24.3195 38.353 23.8971 37.8319C23.7694 37.6876 23.7108 37.5016 23.734 37.3168C23.7576 37.132 23.8617 36.9636 24.0221 36.8498C24.1826 36.7363 24.3868 36.6866 24.5874 36.7127C24.7886 36.7383 24.9696 36.8377 25.0898 36.9877C25.2371 37.1552 25.4584 37.2543 25.6931 37.2579H30.3263C30.5291 37.2591 30.7246 37.1853 30.868 37.0538C31.0118 36.9219 31.0918 36.7431 31.0905 36.5567V32.309C31.0927 32.1226 31.0127 31.943 30.8688 31.8111C30.725 31.6792 30.5296 31.6063 30.3263 31.6079H29.1148C28.9115 31.6099 28.716 31.5365 28.5722 31.4046C28.4284 31.2731 28.3483 31.0935 28.3505 30.9071C28.354 30.5215 28.6942 30.2096 29.1148 30.206H30.3262C30.934 30.2076 31.5163 30.4297 31.9461 30.8237C32.3755 31.2178 32.6177 31.7518 32.6194 32.309L32.6194 32.309ZM10.3161 24.5352H14.9488C15.5504 24.5328 16.1263 24.3127 16.5511 23.9227C16.9766 23.533 17.2166 23.0051 17.2192 22.4535V18.185C17.2205 17.6325 16.9818 17.1022 16.5555 16.7118C16.1297 16.3209 15.5513 16.1021 14.9488 16.1033H10.3161C9.71106 16.1004 9.12952 16.3185 8.69939 16.7086C8.26962 17.099 8.02609 17.6298 8.02303 18.185V22.454V22.4536C8.03002 23.0076 8.27486 23.5364 8.70376 23.926C9.13309 24.3157 9.71239 24.5346 10.3161 24.5354L10.3161 24.5352ZM9.5519 18.1849C9.55452 18.0017 9.63672 17.827 9.78013 17.6995C9.92353 17.572 10.1163 17.5018 10.3161 17.505H14.9488C15.3611 17.5075 15.6982 17.8069 15.7135 18.1849V22.4539V22.4535C15.7 22.8355 15.3655 23.1422 14.9488 23.1546H10.3161C9.89556 23.151 9.5554 22.8395 9.55191 22.4535L9.5519 18.1849ZM10.3161 10.4324H14.9488C15.5539 10.4292 16.1332 10.2059 16.5591 9.81184C16.9845 9.41737 17.2223 8.88421 17.2193 8.32943V4.08172C17.2206 3.52931 16.9819 2.99934 16.5556 2.60855C16.1298 2.2181 15.5513 1.99882 14.9489 2.00002H10.3162C9.71112 1.99761 9.12959 2.21529 8.69946 2.60574C8.26969 2.99579 8.02616 3.52695 8.02309 4.08178V8.3295C8.02441 8.88671 8.26662 9.4207 8.69639 9.81478C9.12616 10.2089 9.70853 10.4309 10.3163 10.4325L10.3161 10.4324ZM9.5519 4.08171C9.55059 3.8953 9.6306 3.71651 9.77401 3.58462C9.91785 3.45314 10.1128 3.37937 10.3161 3.38057H14.9488C15.3681 3.38699 15.7065 3.69726 15.7135 4.0817V8.32941C15.7083 8.71466 15.369 9.02533 14.9488 9.03054H10.3161C10.1128 9.03215 9.91698 8.95919 9.77313 8.8273C9.62973 8.6954 9.54972 8.51581 9.5519 8.3294V4.08171ZM45.7294 16.1031H41.0736C40.4724 16.1055 39.8961 16.3256 39.4713 16.7156C39.0463 17.1053 38.8058 17.6332 38.8032 18.1848V22.4538V22.4534C38.8098 23.0038 39.0511 23.5297 39.4756 23.9185C39.8997 24.3078 40.4733 24.5291 41.0736 24.5351H45.7294C46.331 24.5335 46.9072 24.3134 47.3327 23.9233C47.7581 23.5333 47.9976 23.0049 47.9998 22.4534V18.1848C48.0016 17.632 47.7629 17.1016 47.337 16.7108C46.9107 16.32 46.3319 16.1011 45.7294 16.1031V16.1031ZM46.4937 22.4534C46.4819 22.8362 46.1465 23.1437 45.7294 23.1545H41.0736C40.6609 23.1417 40.3334 22.8322 40.3321 22.4534V18.1848C40.3351 17.8104 40.6652 17.5077 41.0736 17.5049H45.7294C46.1422 17.5057 46.4801 17.8064 46.4937 18.1848V22.4534ZM45.7294 2.00039H41.0736C40.4724 2.00279 39.8961 2.22288 39.4713 2.61293C39.0463 3.00259 38.8058 3.53094 38.8032 4.0821V8.32981C38.8045 8.88342 39.0432 9.41455 39.4682 9.80822C39.8927 10.2019 40.4698 10.426 41.0736 10.4328H45.7295C46.3346 10.4304 46.9143 10.2075 47.3402 9.81302C47.7661 9.41855 48.0035 8.88499 48 8.32979V4.08208C48.0017 3.52927 47.763 2.99888 47.3372 2.60809C46.9109 2.21723 46.332 1.99876 45.7296 2.00036L45.7294 2.00039ZM46.4937 8.32983C46.4902 8.71548 46.15 9.02736 45.7294 9.03096H41.0736C40.8738 9.02816 40.6832 8.95279 40.5441 8.8213C40.4051 8.68982 40.3286 8.51303 40.3321 8.32982V4.08211C40.3268 3.70128 40.6582 3.3878 41.0736 3.38098H45.7294C46.1492 3.38619 46.4884 3.69687 46.4937 4.08211V8.32983ZM45.7294 30.2062H41.0736C40.4698 30.213 39.8927 30.4371 39.4681 30.8308C39.0432 31.2244 38.8044 31.7556 38.8031 32.3092V36.5569C38.8049 37.1105 39.044 37.6412 39.469 38.0345C39.8935 38.4277 40.4698 38.6522 41.0736 38.6599H45.7294C46.3345 38.6566 46.9134 38.4334 47.3392 38.0393C47.7651 37.6448 48.0025 37.1117 47.9998 36.5569V32.3092C48.0033 31.754 47.7659 31.2204 47.3401 30.826C46.9143 30.4315 46.3345 30.2086 45.7294 30.2062L45.7294 30.2062ZM46.4937 36.5569C46.4884 36.9422 46.1492 37.2528 45.7294 37.258H41.0736C40.6582 37.2512 40.3268 36.9377 40.3321 36.5569V32.3092C40.3286 32.126 40.4051 31.9492 40.5441 31.8177C40.6832 31.6862 40.8738 31.6109 41.0736 31.6081H45.7294C46.15 31.6117 46.4902 31.9235 46.4937 32.3092V36.5569Z"/>
</mask>
<path d="M33.5451 15.094L34.1301 14.1018C34.3316 13.7651 34.1991 13.3422 33.8332 13.1554C33.4673 12.9685 33.0051 13.0876 32.7992 13.4219L32.1959 14.4309V14.4313C31.9676 14.374 31.732 14.3472 31.4959 14.3508H24.5465C23.7385 14.3472 22.9616 14.6386 22.388 15.1605C21.8144 15.6825 21.4908 16.3924 21.4887 17.1337V23.5052C21.4904 24.4497 22.0164 25.328 22.8842 25.8363L20.4804 29.1973C20.2518 28.8806 19.9518 28.6128 19.6008 28.4119C18.976 28.0379 18.2274 27.878 17.4868 27.9602C17.2368 27.4984 16.8568 27.1063 16.3864 26.8241C15.8963 26.5355 15.3305 26.3735 14.7481 26.3559C14.1662 26.3379 13.5895 26.4649 13.0798 26.7227C12.9093 26.5607 12.7208 26.4152 12.518 26.2881C11.8565 25.8813 11.0524 25.7173 10.265 25.8283C9.47807 25.9394 8.76502 26.3174 8.26741 26.8874C8.20969 26.9379 8.15723 26.9928 8.11089 27.0522L3.09564 34.0828C2.12679 35.4232 1.78141 37.0629 2.13597 38.6379C2.49011 40.213 3.51533 41.5932 4.9839 42.4727L9.91118 45.462C11.5967 46.471 13.0565 46.3275 14.6086 46.1419C15.6224 46.0233 16.645 45.982 17.6664 46.0196C20.6136 46.2265 24.0308 47.8946 24.0766 47.9154C24.189 47.9659 24.311 47.9944 24.436 48H24.5051C24.6848 47.9788 25.9649 47.7719 26.55 46.0197C27.2683 43.8959 25.1775 41.9576 22.7966 40.9907C21.8229 40.5758 20.7955 40.2775 19.7388 40.1039L29.6538 26.2887H31.4957C32.3006 26.2887 33.0727 25.9956 33.6415 25.4737C34.2108 24.9518 34.5304 24.2438 34.5304 23.5058V17.1343C34.5361 16.3562 34.1771 15.6138 33.5449 15.0946L33.5451 15.094ZM23.0175 23.5052V17.1337C23.0188 16.36 23.7026 15.7326 24.5464 15.7318H31.4084L28.0787 21.2378L25.8314 18.0413C25.7212 17.8849 25.5472 17.7747 25.3487 17.7358C25.1498 17.6965 24.9421 17.7318 24.7712 17.8332C24.6007 17.9346 24.4813 18.0942 24.4389 18.2766C24.3969 18.459 24.4354 18.6494 24.5465 18.8057L26.5038 21.5673C25.9984 21.7722 25.5691 22.1081 25.2696 22.5342L23.7175 24.6793V24.6789C23.2856 24.4191 23.0233 23.979 23.0176 23.5051L23.0175 23.5052ZM28.8892 24.8437L17.8279 40.2476C17.6954 40.4292 17.6613 40.6565 17.7356 40.8641C17.8288 41.0646 18.0067 41.2213 18.2284 41.2991C18.4999 41.358 18.7902 41.4005 19.0848 41.4426C20.1569 41.5484 21.1997 41.8274 22.1658 42.266C23.6025 42.8444 25.5598 44.2251 25.113 45.6269C25.0125 45.9833 24.7917 46.3008 24.4821 46.5349C23.515 46.1 20.5219 44.8248 17.7588 44.6391C17.4457 44.6179 17.1279 44.6179 16.8376 44.6179C16.0327 44.6287 15.2287 44.6764 14.429 44.7614C12.946 44.9262 11.9788 45.0316 10.7403 44.2884L5.81734 41.3203C4.68544 40.64 3.89492 39.5744 3.62126 38.3594C3.34713 37.1439 3.61208 35.8787 4.35751 34.8428L9.39112 27.8335L8.76503 27.4451L9.43745 27.7746L9.43702 27.7742C9.70153 27.4735 10.078 27.2735 10.4942 27.2125C10.91 27.1516 11.3358 27.2346 11.6891 27.445C11.9239 27.5922 12.1167 27.789 12.2509 28.0191C12.3637 28.2083 12.56 28.3438 12.7895 28.3907C13.03 28.4212 13.2713 28.3442 13.4388 28.1839C13.7195 27.9429 14.0789 27.7938 14.4614 27.7601C14.844 27.7265 15.2279 27.8103 15.5527 27.9979C15.9138 28.2123 16.1722 28.5443 16.2758 28.9271C16.3187 29.1251 16.4603 29.2939 16.658 29.3829C16.8394 29.4879 17.0659 29.5024 17.2613 29.421C17.7641 29.2558 18.322 29.3159 18.7688 29.5841C19.2156 29.8519 19.4998 30.2965 19.5361 30.7847C19.5479 31.0838 19.7792 31.3375 20.0979 31.4013C20.4136 31.4907 20.7546 31.3724 20.9269 31.1142L26.527 23.2984C26.7474 22.9905 27.0976 22.7808 27.4941 22.7199C27.8828 22.6566 28.2829 22.7472 28.5946 22.9693C29.2159 23.4255 29.3448 24.2453 28.8893 24.8438L28.8892 24.8437ZM33.0247 23.5052C33.0234 24.2789 32.3396 24.9062 31.4958 24.907H30.5056C30.7106 24.3626 30.7233 23.7725 30.5423 23.2209C30.3613 22.6693 29.9958 22.1839 29.4974 21.8331C29.4974 21.8331 29.4742 21.8331 29.4742 21.8163L32.7576 16.3692C32.9286 16.5937 33.0217 16.8599 33.0248 17.1337L33.0247 23.5052ZM25.6932 10.4329H30.3259C30.934 10.4313 31.5164 10.2092 31.9462 9.81517C32.3756 9.42111 32.6178 8.88714 32.6195 8.32989V4.08217C32.616 3.52736 32.3729 2.9962 31.9427 2.60613C31.5125 2.21567 30.9315 1.998 30.326 2.00041H25.6933C25.0908 1.99921 24.5128 2.21849 24.0866 2.60894C23.6608 2.99979 23.422 3.52976 23.4229 4.08211V8.32982C23.4203 8.88463 23.6577 9.41785 24.0835 9.81223C24.5094 10.2063 25.0882 10.4296 25.6933 10.4328L25.6932 10.4329ZM24.929 4.08222C24.9285 3.89622 25.0085 3.71742 25.1524 3.58594C25.2958 3.45446 25.4903 3.38069 25.6932 3.38109H30.3263C30.5292 3.37989 30.7246 3.45365 30.868 3.58514C31.0119 3.71703 31.0919 3.89582 31.0906 4.08223V8.32995C31.0928 8.51635 31.0127 8.69595 30.8689 8.82784C30.7251 8.95973 30.5296 9.03269 30.3263 9.03109H25.6932C25.4903 9.03229 25.2949 8.95853 25.1515 8.82704C25.0076 8.69515 24.9276 8.51636 24.929 8.32995L24.929 4.08222ZM32.6194 32.309V36.5567C32.6173 37.1139 32.3746 37.6475 31.9453 38.0412C31.5155 38.4352 30.9336 38.6573 30.3263 38.6597H25.6931C24.9853 38.6601 24.3195 38.353 23.8971 37.8319C23.7694 37.6876 23.7108 37.5016 23.734 37.3168C23.7576 37.132 23.8617 36.9636 24.0221 36.8498C24.1826 36.7363 24.3868 36.6866 24.5874 36.7127C24.7886 36.7383 24.9696 36.8377 25.0898 36.9877C25.2371 37.1552 25.4584 37.2543 25.6931 37.2579H30.3263C30.5291 37.2591 30.7246 37.1853 30.868 37.0538C31.0118 36.9219 31.0918 36.7431 31.0905 36.5567V32.309C31.0927 32.1226 31.0127 31.943 30.8688 31.8111C30.725 31.6792 30.5296 31.6063 30.3263 31.6079H29.1148C28.9115 31.6099 28.716 31.5365 28.5722 31.4046C28.4284 31.2731 28.3483 31.0935 28.3505 30.9071C28.354 30.5215 28.6942 30.2096 29.1148 30.206H30.3262C30.934 30.2076 31.5163 30.4297 31.9461 30.8237C32.3755 31.2178 32.6177 31.7518 32.6194 32.309L32.6194 32.309ZM10.3161 24.5352H14.9488C15.5504 24.5328 16.1263 24.3127 16.5511 23.9227C16.9766 23.533 17.2166 23.0051 17.2192 22.4535V18.185C17.2205 17.6325 16.9818 17.1022 16.5555 16.7118C16.1297 16.3209 15.5513 16.1021 14.9488 16.1033H10.3161C9.71106 16.1004 9.12952 16.3185 8.69939 16.7086C8.26962 17.099 8.02609 17.6298 8.02303 18.185V22.454V22.4536C8.03002 23.0076 8.27486 23.5364 8.70376 23.926C9.13309 24.3157 9.71239 24.5346 10.3161 24.5354L10.3161 24.5352ZM9.5519 18.1849C9.55452 18.0017 9.63672 17.827 9.78013 17.6995C9.92353 17.572 10.1163 17.5018 10.3161 17.505H14.9488C15.3611 17.5075 15.6982 17.8069 15.7135 18.1849V22.4539V22.4535C15.7 22.8355 15.3655 23.1422 14.9488 23.1546H10.3161C9.89556 23.151 9.5554 22.8395 9.55191 22.4535L9.5519 18.1849ZM10.3161 10.4324H14.9488C15.5539 10.4292 16.1332 10.2059 16.5591 9.81184C16.9845 9.41737 17.2223 8.88421 17.2193 8.32943V4.08172C17.2206 3.52931 16.9819 2.99934 16.5556 2.60855C16.1298 2.2181 15.5513 1.99882 14.9489 2.00002H10.3162C9.71112 1.99761 9.12959 2.21529 8.69946 2.60574C8.26969 2.99579 8.02616 3.52695 8.02309 4.08178V8.3295C8.02441 8.88671 8.26662 9.4207 8.69639 9.81478C9.12616 10.2089 9.70853 10.4309 10.3163 10.4325L10.3161 10.4324ZM9.5519 4.08171C9.55059 3.8953 9.6306 3.71651 9.77401 3.58462C9.91785 3.45314 10.1128 3.37937 10.3161 3.38057H14.9488C15.3681 3.38699 15.7065 3.69726 15.7135 4.0817V8.32941C15.7083 8.71466 15.369 9.02533 14.9488 9.03054H10.3161C10.1128 9.03215 9.91698 8.95919 9.77313 8.8273C9.62973 8.6954 9.54972 8.51581 9.5519 8.3294V4.08171ZM45.7294 16.1031H41.0736C40.4724 16.1055 39.8961 16.3256 39.4713 16.7156C39.0463 17.1053 38.8058 17.6332 38.8032 18.1848V22.4538V22.4534C38.8098 23.0038 39.0511 23.5297 39.4756 23.9185C39.8997 24.3078 40.4733 24.5291 41.0736 24.5351H45.7294C46.331 24.5335 46.9072 24.3134 47.3327 23.9233C47.7581 23.5333 47.9976 23.0049 47.9998 22.4534V18.1848C48.0016 17.632 47.7629 17.1016 47.337 16.7108C46.9107 16.32 46.3319 16.1011 45.7294 16.1031V16.1031ZM46.4937 22.4534C46.4819 22.8362 46.1465 23.1437 45.7294 23.1545H41.0736C40.6609 23.1417 40.3334 22.8322 40.3321 22.4534V18.1848C40.3351 17.8104 40.6652 17.5077 41.0736 17.5049H45.7294C46.1422 17.5057 46.4801 17.8064 46.4937 18.1848V22.4534ZM45.7294 2.00039H41.0736C40.4724 2.00279 39.8961 2.22288 39.4713 2.61293C39.0463 3.00259 38.8058 3.53094 38.8032 4.0821V8.32981C38.8045 8.88342 39.0432 9.41455 39.4682 9.80822C39.8927 10.2019 40.4698 10.426 41.0736 10.4328H45.7295C46.3346 10.4304 46.9143 10.2075 47.3402 9.81302C47.7661 9.41855 48.0035 8.88499 48 8.32979V4.08208C48.0017 3.52927 47.763 2.99888 47.3372 2.60809C46.9109 2.21723 46.332 1.99876 45.7296 2.00036L45.7294 2.00039ZM46.4937 8.32983C46.4902 8.71548 46.15 9.02736 45.7294 9.03096H41.0736C40.8738 9.02816 40.6832 8.95279 40.5441 8.8213C40.4051 8.68982 40.3286 8.51303 40.3321 8.32982V4.08211C40.3268 3.70128 40.6582 3.3878 41.0736 3.38098H45.7294C46.1492 3.38619 46.4884 3.69687 46.4937 4.08211V8.32983ZM45.7294 30.2062H41.0736C40.4698 30.213 39.8927 30.4371 39.4681 30.8308C39.0432 31.2244 38.8044 31.7556 38.8031 32.3092V36.5569C38.8049 37.1105 39.044 37.6412 39.469 38.0345C39.8935 38.4277 40.4698 38.6522 41.0736 38.6599H45.7294C46.3345 38.6566 46.9134 38.4334 47.3392 38.0393C47.7651 37.6448 48.0025 37.1117 47.9998 36.5569V32.3092C48.0033 31.754 47.7659 31.2204 47.3401 30.826C46.9143 30.4315 46.3345 30.2086 45.7294 30.2062L45.7294 30.2062ZM46.4937 36.5569C46.4884 36.9422 46.1492 37.2528 45.7294 37.258H41.0736C40.6582 37.2512 40.3268 36.9377 40.3321 36.5569V32.3092C40.3286 32.126 40.4051 31.9492 40.5441 31.8177C40.6832 31.6862 40.8738 31.6109 41.0736 31.6081H45.7294C46.15 31.6117 46.4902 31.9235 46.4937 32.3092V36.5569Z" fill="#004650"/>
<path d="M33.5451 15.094L34.1301 14.1018C34.3316 13.7651 34.1991 13.3422 33.8332 13.1554C33.4673 12.9685 33.0051 13.0876 32.7992 13.4219L32.1959 14.4309V14.4313C31.9676 14.374 31.732 14.3472 31.4959 14.3508H24.5465C23.7385 14.3472 22.9616 14.6386 22.388 15.1605C21.8144 15.6825 21.4908 16.3924 21.4887 17.1337V23.5052C21.4904 24.4497 22.0164 25.328 22.8842 25.8363L20.4804 29.1973C20.2518 28.8806 19.9518 28.6128 19.6008 28.4119C18.976 28.0379 18.2274 27.878 17.4868 27.9602C17.2368 27.4984 16.8568 27.1063 16.3864 26.8241C15.8963 26.5355 15.3305 26.3735 14.7481 26.3559C14.1662 26.3379 13.5895 26.4649 13.0798 26.7227C12.9093 26.5607 12.7208 26.4152 12.518 26.2881C11.8565 25.8813 11.0524 25.7173 10.265 25.8283C9.47807 25.9394 8.76502 26.3174 8.26741 26.8874C8.20969 26.9379 8.15723 26.9928 8.11089 27.0522L3.09564 34.0828C2.12679 35.4232 1.78141 37.0629 2.13597 38.6379C2.49011 40.213 3.51533 41.5932 4.9839 42.4727L9.91118 45.462C11.5967 46.471 13.0565 46.3275 14.6086 46.1419C15.6224 46.0233 16.645 45.982 17.6664 46.0196C20.6136 46.2265 24.0308 47.8946 24.0766 47.9154C24.189 47.9659 24.311 47.9944 24.436 48H24.5051C24.6848 47.9788 25.9649 47.7719 26.55 46.0197C27.2683 43.8959 25.1775 41.9576 22.7966 40.9907C21.8229 40.5758 20.7955 40.2775 19.7388 40.1039L29.6538 26.2887H31.4957C32.3006 26.2887 33.0727 25.9956 33.6415 25.4737C34.2108 24.9518 34.5304 24.2438 34.5304 23.5058V17.1343C34.5361 16.3562 34.1771 15.6138 33.5449 15.0946L33.5451 15.094ZM23.0175 23.5052V17.1337C23.0188 16.36 23.7026 15.7326 24.5464 15.7318H31.4084L28.0787 21.2378L25.8314 18.0413C25.7212 17.8849 25.5472 17.7747 25.3487 17.7358C25.1498 17.6965 24.9421 17.7318 24.7712 17.8332C24.6007 17.9346 24.4813 18.0942 24.4389 18.2766C24.3969 18.459 24.4354 18.6494 24.5465 18.8057L26.5038 21.5673C25.9984 21.7722 25.5691 22.1081 25.2696 22.5342L23.7175 24.6793V24.6789C23.2856 24.4191 23.0233 23.979 23.0176 23.5051L23.0175 23.5052ZM28.8892 24.8437L17.8279 40.2476C17.6954 40.4292 17.6613 40.6565 17.7356 40.8641C17.8288 41.0646 18.0067 41.2213 18.2284 41.2991C18.4999 41.358 18.7902 41.4005 19.0848 41.4426C20.1569 41.5484 21.1997 41.8274 22.1658 42.266C23.6025 42.8444 25.5598 44.2251 25.113 45.6269C25.0125 45.9833 24.7917 46.3008 24.4821 46.5349C23.515 46.1 20.5219 44.8248 17.7588 44.6391C17.4457 44.6179 17.1279 44.6179 16.8376 44.6179C16.0327 44.6287 15.2287 44.6764 14.429 44.7614C12.946 44.9262 11.9788 45.0316 10.7403 44.2884L5.81734 41.3203C4.68544 40.64 3.89492 39.5744 3.62126 38.3594C3.34713 37.1439 3.61208 35.8787 4.35751 34.8428L9.39112 27.8335L8.76503 27.4451L9.43745 27.7746L9.43702 27.7742C9.70153 27.4735 10.078 27.2735 10.4942 27.2125C10.91 27.1516 11.3358 27.2346 11.6891 27.445C11.9239 27.5922 12.1167 27.789 12.2509 28.0191C12.3637 28.2083 12.56 28.3438 12.7895 28.3907C13.03 28.4212 13.2713 28.3442 13.4388 28.1839C13.7195 27.9429 14.0789 27.7938 14.4614 27.7601C14.844 27.7265 15.2279 27.8103 15.5527 27.9979C15.9138 28.2123 16.1722 28.5443 16.2758 28.9271C16.3187 29.1251 16.4603 29.2939 16.658 29.3829C16.8394 29.4879 17.0659 29.5024 17.2613 29.421C17.7641 29.2558 18.322 29.3159 18.7688 29.5841C19.2156 29.8519 19.4998 30.2965 19.5361 30.7847C19.5479 31.0838 19.7792 31.3375 20.0979 31.4013C20.4136 31.4907 20.7546 31.3724 20.9269 31.1142L26.527 23.2984C26.7474 22.9905 27.0976 22.7808 27.4941 22.7199C27.8828 22.6566 28.2829 22.7472 28.5946 22.9693C29.2159 23.4255 29.3448 24.2453 28.8893 24.8438L28.8892 24.8437ZM33.0247 23.5052C33.0234 24.2789 32.3396 24.9062 31.4958 24.907H30.5056C30.7106 24.3626 30.7233 23.7725 30.5423 23.2209C30.3613 22.6693 29.9958 22.1839 29.4974 21.8331C29.4974 21.8331 29.4742 21.8331 29.4742 21.8163L32.7576 16.3692C32.9286 16.5937 33.0217 16.8599 33.0248 17.1337L33.0247 23.5052ZM25.6932 10.4329H30.3259C30.934 10.4313 31.5164 10.2092 31.9462 9.81517C32.3756 9.42111 32.6178 8.88714 32.6195 8.32989V4.08217C32.616 3.52736 32.3729 2.9962 31.9427 2.60613C31.5125 2.21567 30.9315 1.998 30.326 2.00041H25.6933C25.0908 1.99921 24.5128 2.21849 24.0866 2.60894C23.6608 2.99979 23.422 3.52976 23.4229 4.08211V8.32982C23.4203 8.88463 23.6577 9.41785 24.0835 9.81223C24.5094 10.2063 25.0882 10.4296 25.6933 10.4328L25.6932 10.4329ZM24.929 4.08222C24.9285 3.89622 25.0085 3.71742 25.1524 3.58594C25.2958 3.45446 25.4903 3.38069 25.6932 3.38109H30.3263C30.5292 3.37989 30.7246 3.45365 30.868 3.58514C31.0119 3.71703 31.0919 3.89582 31.0906 4.08223V8.32995C31.0928 8.51635 31.0127 8.69595 30.8689 8.82784C30.7251 8.95973 30.5296 9.03269 30.3263 9.03109H25.6932C25.4903 9.03229 25.2949 8.95853 25.1515 8.82704C25.0076 8.69515 24.9276 8.51636 24.929 8.32995L24.929 4.08222ZM32.6194 32.309V36.5567C32.6173 37.1139 32.3746 37.6475 31.9453 38.0412C31.5155 38.4352 30.9336 38.6573 30.3263 38.6597H25.6931C24.9853 38.6601 24.3195 38.353 23.8971 37.8319C23.7694 37.6876 23.7108 37.5016 23.734 37.3168C23.7576 37.132 23.8617 36.9636 24.0221 36.8498C24.1826 36.7363 24.3868 36.6866 24.5874 36.7127C24.7886 36.7383 24.9696 36.8377 25.0898 36.9877C25.2371 37.1552 25.4584 37.2543 25.6931 37.2579H30.3263C30.5291 37.2591 30.7246 37.1853 30.868 37.0538C31.0118 36.9219 31.0918 36.7431 31.0905 36.5567V32.309C31.0927 32.1226 31.0127 31.943 30.8688 31.8111C30.725 31.6792 30.5296 31.6063 30.3263 31.6079H29.1148C28.9115 31.6099 28.716 31.5365 28.5722 31.4046C28.4284 31.2731 28.3483 31.0935 28.3505 30.9071C28.354 30.5215 28.6942 30.2096 29.1148 30.206H30.3262C30.934 30.2076 31.5163 30.4297 31.9461 30.8237C32.3755 31.2178 32.6177 31.7518 32.6194 32.309L32.6194 32.309ZM10.3161 24.5352H14.9488C15.5504 24.5328 16.1263 24.3127 16.5511 23.9227C16.9766 23.533 17.2166 23.0051 17.2192 22.4535V18.185C17.2205 17.6325 16.9818 17.1022 16.5555 16.7118C16.1297 16.3209 15.5513 16.1021 14.9488 16.1033H10.3161C9.71106 16.1004 9.12952 16.3185 8.69939 16.7086C8.26962 17.099 8.02609 17.6298 8.02303 18.185V22.454V22.4536C8.03002 23.0076 8.27486 23.5364 8.70376 23.926C9.13309 24.3157 9.71239 24.5346 10.3161 24.5354L10.3161 24.5352ZM9.5519 18.1849C9.55452 18.0017 9.63672 17.827 9.78013 17.6995C9.92353 17.572 10.1163 17.5018 10.3161 17.505H14.9488C15.3611 17.5075 15.6982 17.8069 15.7135 18.1849V22.4539V22.4535C15.7 22.8355 15.3655 23.1422 14.9488 23.1546H10.3161C9.89556 23.151 9.5554 22.8395 9.55191 22.4535L9.5519 18.1849ZM10.3161 10.4324H14.9488C15.5539 10.4292 16.1332 10.2059 16.5591 9.81184C16.9845 9.41737 17.2223 8.88421 17.2193 8.32943V4.08172C17.2206 3.52931 16.9819 2.99934 16.5556 2.60855C16.1298 2.2181 15.5513 1.99882 14.9489 2.00002H10.3162C9.71112 1.99761 9.12959 2.21529 8.69946 2.60574C8.26969 2.99579 8.02616 3.52695 8.02309 4.08178V8.3295C8.02441 8.88671 8.26662 9.4207 8.69639 9.81478C9.12616 10.2089 9.70853 10.4309 10.3163 10.4325L10.3161 10.4324ZM9.5519 4.08171C9.55059 3.8953 9.6306 3.71651 9.77401 3.58462C9.91785 3.45314 10.1128 3.37937 10.3161 3.38057H14.9488C15.3681 3.38699 15.7065 3.69726 15.7135 4.0817V8.32941C15.7083 8.71466 15.369 9.02533 14.9488 9.03054H10.3161C10.1128 9.03215 9.91698 8.95919 9.77313 8.8273C9.62973 8.6954 9.54972 8.51581 9.5519 8.3294V4.08171ZM45.7294 16.1031H41.0736C40.4724 16.1055 39.8961 16.3256 39.4713 16.7156C39.0463 17.1053 38.8058 17.6332 38.8032 18.1848V22.4538V22.4534C38.8098 23.0038 39.0511 23.5297 39.4756 23.9185C39.8997 24.3078 40.4733 24.5291 41.0736 24.5351H45.7294C46.331 24.5335 46.9072 24.3134 47.3327 23.9233C47.7581 23.5333 47.9976 23.0049 47.9998 22.4534V18.1848C48.0016 17.632 47.7629 17.1016 47.337 16.7108C46.9107 16.32 46.3319 16.1011 45.7294 16.1031V16.1031ZM46.4937 22.4534C46.4819 22.8362 46.1465 23.1437 45.7294 23.1545H41.0736C40.6609 23.1417 40.3334 22.8322 40.3321 22.4534V18.1848C40.3351 17.8104 40.6652 17.5077 41.0736 17.5049H45.7294C46.1422 17.5057 46.4801 17.8064 46.4937 18.1848V22.4534ZM45.7294 2.00039H41.0736C40.4724 2.00279 39.8961 2.22288 39.4713 2.61293C39.0463 3.00259 38.8058 3.53094 38.8032 4.0821V8.32981C38.8045 8.88342 39.0432 9.41455 39.4682 9.80822C39.8927 10.2019 40.4698 10.426 41.0736 10.4328H45.7295C46.3346 10.4304 46.9143 10.2075 47.3402 9.81302C47.7661 9.41855 48.0035 8.88499 48 8.32979V4.08208C48.0017 3.52927 47.763 2.99888 47.3372 2.60809C46.9109 2.21723 46.332 1.99876 45.7296 2.00036L45.7294 2.00039ZM46.4937 8.32983C46.4902 8.71548 46.15 9.02736 45.7294 9.03096H41.0736C40.8738 9.02816 40.6832 8.95279 40.5441 8.8213C40.4051 8.68982 40.3286 8.51303 40.3321 8.32982V4.08211C40.3268 3.70128 40.6582 3.3878 41.0736 3.38098H45.7294C46.1492 3.38619 46.4884 3.69687 46.4937 4.08211V8.32983ZM45.7294 30.2062H41.0736C40.4698 30.213 39.8927 30.4371 39.4681 30.8308C39.0432 31.2244 38.8044 31.7556 38.8031 32.3092V36.5569C38.8049 37.1105 39.044 37.6412 39.469 38.0345C39.8935 38.4277 40.4698 38.6522 41.0736 38.6599H45.7294C46.3345 38.6566 46.9134 38.4334 47.3392 38.0393C47.7651 37.6448 48.0025 37.1117 47.9998 36.5569V32.3092C48.0033 31.754 47.7659 31.2204 47.3401 30.826C46.9143 30.4315 46.3345 30.2086 45.7294 30.2062L45.7294 30.2062ZM46.4937 36.5569C46.4884 36.9422 46.1492 37.2528 45.7294 37.258H41.0736C40.6582 37.2512 40.3268 36.9377 40.3321 36.5569V32.3092C40.3286 32.126 40.4051 31.9492 40.5441 31.8177C40.6832 31.6862 40.8738 31.6109 41.0736 31.6081H45.7294C46.15 31.6117 46.4902 31.9235 46.4937 32.3092V36.5569Z" stroke="#004650" stroke-width="0.4" mask="url(#path-1-outside-1_152_21333)"/>
</g>
<defs>
<clipPath id="clip0_152_21333">
<rect width="48" height="48" fill="white"/>
</clipPath>
</defs>
</svg>
