<svg width="48" height="48" viewBox="0 0 48 48" fill="none" xmlns="http://www.w3.org/2000/svg">
<g id="Group 48095773">
<path id="Vector" d="M20.9384 28.7792C23.2141 28.7792 25.0659 26.9276 25.0659 24.6515L25.0655 16.7027C25.0655 16.112 24.5868 15.6328 23.9957 15.6328C23.4049 15.6328 22.9258 16.1116 22.9258 16.7027V24.6515C22.9258 25.7475 22.0344 26.6389 20.9385 26.6389C20.3478 26.6389 19.8687 27.1177 19.8687 27.7088C19.8687 28.3003 20.3474 28.7791 20.9385 28.7791L20.9384 28.7792Z" fill="#004650"/>
<path id="Vector_2" d="M11.9995 17.471V20.5278C11.9995 21.2451 12.5813 21.8269 13.2986 21.8269C14.0159 21.8269 14.5977 21.2451 14.5977 20.5278V17.471C14.5977 16.7537 14.0159 16.1719 13.2986 16.1719C12.5813 16.1719 11.9995 16.7537 11.9995 17.471Z" fill="#004650"/>
<path id="Vector_3" d="M34.698 21.8269C35.4153 21.8269 35.9971 21.2451 35.9971 20.5278V17.471C35.9971 16.7537 35.4153 16.1719 34.698 16.1719C33.9808 16.1719 33.3989 16.7537 33.3989 17.471V20.5278C33.3989 21.2451 33.9808 21.8269 34.698 21.8269Z" fill="#004650"/>
<path id="Vector_4" d="M33.1645 34.0813C32.7869 33.6271 32.1124 33.5646 31.6579 33.9426C27.0483 37.7739 20.3573 37.7739 15.747 33.9426C15.2927 33.565 14.6179 33.6275 14.2403 34.0813C13.8628 34.5355 13.9245 35.2103 14.3795 35.5879C17.0806 37.833 20.3916 38.9553 23.7028 38.9553C27.0137 38.9553 30.325 37.8326 33.0261 35.5879C33.48 35.2103 33.5425 34.5359 33.1641 34.0813H33.1645Z" fill="#004650"/>
<path id="Vector_5" d="M1.06987 17.4258C1.66062 17.4258 2.13974 16.947 2.13974 16.3558V11.0135C2.13974 6.12056 6.12028 2.13984 11.013 2.13984H16.3559C16.9466 2.13984 17.4257 1.66104 17.4257 1.06992C17.4257 0.47914 16.947 0 16.3559 0H11.013C4.94023 0 0 4.94092 0 11.0135V16.3558C0.000371988 16.9466 0.479528 17.4254 1.07025 17.4254L1.06987 17.4258Z" fill="#004650"/>
<path id="Vector_6" d="M46.9257 30.5742C46.3349 30.5742 45.8558 31.053 45.8558 31.6441V36.9873C45.8558 41.8802 41.8753 45.8609 36.9826 45.8609H31.6397C31.0489 45.8609 30.5698 46.3397 30.5698 46.9308C30.5698 47.5216 31.0486 48.0007 31.6397 48.0007H36.9826C43.0553 48.0007 47.9956 43.0598 47.9956 36.9873V31.6445C47.9952 31.0534 47.516 30.5746 46.9253 30.5746L46.9257 30.5742Z" fill="#004650"/>
<path id="Vector_7" d="M16.3559 45.8609H11.013C6.12028 45.8609 2.13974 41.8802 2.13974 36.9873V31.6441C2.13974 31.0534 1.66097 30.5742 1.06987 30.5742C0.479118 30.5742 0 31.053 0 31.6441V36.9873C0 43.0603 4.9407 48.0007 11.013 48.0007H16.3559C16.9466 48.0007 17.4257 47.5219 17.4257 46.9308C17.4254 46.3393 16.9466 45.8605 16.3555 45.8605L16.3559 45.8609Z" fill="#004650"/>
<path id="Vector_8" d="M36.9865 0.000190374H31.6436C31.0528 0.000190374 30.5737 0.478987 30.5737 1.07011C30.5737 1.66089 31.0525 2.14003 31.6436 2.14003H36.9865C41.8792 2.14003 45.8597 6.12075 45.8597 11.0137V16.356C45.8597 16.9468 46.3385 17.426 46.9296 17.426C47.5203 17.426 47.9995 16.9472 47.9995 16.356V11.0144C47.9995 4.94102 43.0588 0 36.9865 0V0.000190374Z" fill="#004650"/>
</g>
</svg>
