<svg width="48" height="48" viewBox="0 0 48 48" fill="none" xmlns="http://www.w3.org/2000/svg">
<g id="Frame 48096962">
<g id="Group 48095775">
<path id="Vector" d="M11.3084 28.7583C12.5707 28.7583 13.7814 28.2568 14.674 27.3641C15.5665 26.4716 16.0679 25.2608 16.0679 23.9983C16.0679 22.7358 15.5665 21.5251 14.674 20.6326C13.7814 19.7398 12.5707 19.2383 11.3084 19.2383C10.0463 19.2383 8.83565 19.7398 7.94297 20.6326C7.05028 21.5251 6.54883 22.7358 6.54883 23.9983C6.55042 25.2603 7.05214 26.4703 7.94453 27.3628C8.83667 28.255 10.0465 28.7571 11.3084 28.7583ZM11.3084 20.8247C12.1501 20.8247 12.9569 21.1592 13.5522 21.7542C14.1471 22.3494 14.4815 23.1567 14.4815 23.9982C14.4815 24.8397 14.1471 25.6469 13.5522 26.2422C12.9569 26.8372 12.1501 27.1716 11.3084 27.1716C10.467 27.1716 9.6598 26.8372 9.06486 26.2422C8.46965 25.6469 8.13552 24.8397 8.13552 23.9982C8.13632 23.1569 8.47097 22.3503 9.06567 21.7553C9.66062 21.1602 10.4672 20.8258 11.3084 20.8247Z" fill="#004650"/>
<path id="Vector_2" d="M36.6931 19.2383C35.4308 19.2383 34.2201 19.7398 33.3275 20.6326C32.435 21.5251 31.9336 22.7358 31.9336 23.9983C31.9336 25.2608 32.435 26.4716 33.3275 27.3641C34.2201 28.2568 35.4308 28.7583 36.6931 28.7583C37.9552 28.7583 39.1659 28.2568 40.0585 27.3641C40.9512 26.4716 41.4527 25.2608 41.4527 23.9983C41.4511 22.7363 40.9494 21.5264 40.057 20.6339C39.1648 19.7416 37.955 19.2396 36.6931 19.2383ZM36.6931 27.1719C35.8514 27.1719 35.0446 26.8375 34.4494 26.2425C33.8544 25.6472 33.52 24.84 33.52 23.9985C33.52 23.1569 33.8544 22.3497 34.4494 21.7544C35.0446 21.1594 35.8514 20.825 36.6931 20.825C37.5346 20.825 38.3417 21.1594 38.9366 21.7544C39.5319 22.3497 39.866 23.1569 39.866 23.9985C39.8652 24.8397 39.5305 25.6464 38.9358 26.2414C38.3409 26.8364 37.5343 27.1708 36.6931 27.1719Z" fill="#004650"/>
<path id="Vector_3" d="M36.6936 31.935C35.5699 31.9368 34.4828 32.3358 33.6249 33.0617C32.767 33.7877 32.1933 34.7936 32.0053 35.9016H28.6895C28.4396 34.4106 27.4956 33.1276 26.1467 32.4452C24.798 31.7631 23.2049 31.7631 21.8562 32.4452C20.5072 33.1276 19.5632 34.4106 19.3134 35.9016H15.9976C15.8786 35.195 15.6005 34.5245 15.1846 33.9412L21.2482 27.877C22.4785 28.7565 24.0541 28.9974 25.4909 28.5264C26.9281 28.0552 28.055 26.9281 28.5262 25.4911C28.9971 24.0538 28.7562 22.478 27.8768 21.2477L33.9405 15.1834C35.07 15.9867 36.4939 16.2571 37.8395 15.9243C39.185 15.5912 40.3183 14.6878 40.9432 13.4502C41.5682 12.213 41.6221 10.7645 41.0914 9.4839C40.5608 8.20332 39.4978 7.21785 38.181 6.7851C36.8642 6.35266 35.4241 6.51602 34.2374 7.23268C33.0509 7.94906 32.2358 9.14757 32.0053 10.5148H28.6895C28.4396 9.02381 27.4956 7.74057 26.1467 7.05846C24.798 6.37635 23.2049 6.37635 21.8562 7.05846C20.5072 7.74057 19.5632 9.02381 19.3133 10.5148H15.9976C15.7299 8.93112 14.6818 7.58941 13.2104 6.94633C11.7387 6.30325 10.0423 6.44562 8.69841 7.32484C7.35472 8.20436 6.54492 9.70194 6.54492 11.3079C6.54492 12.9139 7.35472 14.4118 8.69841 15.291C10.0424 16.1705 11.7387 16.3128 13.2104 15.6697C14.6818 15.0267 15.7299 13.6849 15.9976 12.1013H19.3133C19.5633 13.5923 20.5072 14.8752 21.8562 15.5576C23.2049 16.2397 24.798 16.2397 26.1467 15.5576C27.4957 14.8752 28.4396 13.5923 28.6895 12.1013H32.0053C32.1243 12.8079 32.4023 13.4783 32.8183 14.0616L26.7546 20.1259C25.5243 19.2464 23.9488 19.0054 22.512 19.4764C21.0748 19.9476 19.9479 21.0747 19.4767 22.5118C19.0058 23.9491 19.2467 25.5248 20.1261 26.7551L14.0624 32.8194C12.9328 32.0162 11.5089 31.7458 10.1634 32.0785C8.81786 32.4116 7.68455 33.3151 7.05962 34.5526C6.43466 35.7899 6.38074 37.2384 6.91141 38.5189C7.44208 39.7995 8.50504 40.785 9.82187 41.2177C11.1387 41.6502 12.5788 41.4868 13.7655 40.7702C14.9519 40.0538 15.7671 38.8553 15.9976 37.4881H19.3134C19.5633 38.979 20.5072 40.2623 21.8562 40.9444C23.2049 41.6265 24.798 41.6265 26.1467 40.9444C27.4957 40.2623 28.4396 38.979 28.6895 37.4881H32.0053C32.2087 38.6868 32.8632 39.7623 33.8344 40.4936C34.8057 41.2249 36.0201 41.5564 37.228 41.4204C38.4362 41.2841 39.5464 40.6907 40.3305 39.7618C41.1148 38.8326 41.5137 37.6386 41.4454 36.4247C41.3769 35.2108 40.8465 34.0691 39.9626 33.2343C39.0789 32.3992 37.9092 31.9343 36.6936 31.9349L36.6936 31.935ZM36.6936 8.13478C37.535 8.13478 38.3422 8.46895 38.9371 9.06422C39.5324 9.65922 39.8665 10.4665 39.8665 11.308C39.8665 12.1497 39.5324 12.9567 38.9371 13.552C38.3422 14.147 37.535 14.4814 36.6936 14.4814C35.8519 14.4814 35.0451 14.147 34.4499 13.552C33.8549 12.9567 33.5205 12.1497 33.5205 11.308C33.5213 10.4667 33.856 9.66004 34.4509 9.06503C35.0456 8.47029 35.8522 8.1356 36.6936 8.13478ZM11.309 14.4814C10.4675 14.4814 9.66039 14.147 9.06545 13.552C8.47024 12.9567 8.13611 12.1497 8.13611 11.308C8.13611 10.4665 8.47024 9.65922 9.06545 9.06422C9.66039 8.46895 10.4675 8.13478 11.309 8.13478C12.1506 8.13478 12.9575 8.46895 13.5527 9.06422C14.1477 9.65922 14.4821 10.4665 14.4821 11.308C14.4813 12.1495 14.1466 12.9562 13.5517 13.5509C12.957 14.1459 12.1504 14.4806 11.309 14.4814ZM24.0013 14.4814C23.1599 14.4814 22.3527 14.147 21.7575 13.552C21.1626 12.9567 20.8282 12.1497 20.8282 11.308C20.8282 10.4665 21.1626 9.65922 21.7575 9.06422C22.3527 8.46895 23.1599 8.13478 24.0013 8.13478C24.8427 8.13478 25.6499 8.46895 26.2451 9.06422C26.84 9.65922 27.1744 10.4665 27.1744 11.308C27.1734 12.1495 26.839 12.9562 26.244 13.5509C25.649 14.1459 24.8424 14.4806 24.0013 14.4814ZM24.0013 20.828C24.8427 20.828 25.6499 21.1625 26.2451 21.7575C26.84 22.3527 27.1744 23.16 27.1744 24.0015C27.1744 24.843 26.84 25.6502 26.2451 26.2455C25.6499 26.8405 24.8427 27.1749 24.0013 27.1749C23.1599 27.1749 22.3527 26.8405 21.7575 26.2455C21.1626 25.6502 20.8282 24.843 20.8282 24.0015C20.8292 23.1602 21.1636 22.3535 21.7586 21.7585C22.3536 21.1635 23.1601 20.8291 24.0013 20.828ZM11.309 39.8682C10.4675 39.8682 9.66039 39.534 9.06545 38.9387C8.47024 38.3437 8.13611 37.5365 8.13611 36.695C8.13611 35.8532 8.47024 35.0462 9.06545 34.451C9.66039 33.856 10.4675 33.5215 11.309 33.5215C12.1506 33.5215 12.9575 33.856 13.5527 34.451C14.1477 35.0462 14.4821 35.8532 14.4821 36.695C14.4813 37.5362 14.1466 38.3429 13.5517 38.9379C12.957 39.5326 12.1504 39.8673 11.309 39.8682ZM24.0013 39.8682C23.1599 39.8682 22.3527 39.534 21.7575 38.9387C21.1626 38.3437 20.8282 37.5365 20.8282 36.695C20.8282 35.8532 21.1626 35.0462 21.7575 34.451C22.3527 33.856 23.1599 33.5215 24.0013 33.5215C24.8427 33.5215 25.6499 33.856 26.2451 34.451C26.84 35.0462 27.1744 35.8532 27.1744 36.695C27.1734 37.5362 26.839 38.3429 26.244 38.9379C25.649 39.5326 24.8424 39.8673 24.0013 39.8682ZM36.6936 39.8682C35.8519 39.8682 35.0451 39.534 34.4499 38.9387C33.8549 38.3437 33.5205 37.5365 33.5205 36.695C33.5205 35.8532 33.8549 35.0462 34.4499 34.451C35.0451 33.856 35.8519 33.5215 36.6936 33.5215C37.535 33.5215 38.3422 33.856 38.9371 34.451C39.5324 35.0462 39.8665 35.8532 39.8665 36.695C39.8657 37.5362 39.531 38.3429 38.9363 38.9379C38.3414 39.5326 37.5348 39.8673 36.6936 39.8682Z" fill="#004650"/>
</g>
</g>
</svg>
