<svg width="48" height="48" viewBox="0 0 48 48" fill="none" xmlns="http://www.w3.org/2000/svg">
<g id="Layer_1" clip-path="url(#clip0_152_21289)">
<g id="Group">
<g id="Group_2">
<path id="Vector" d="M3.87027 13.7305C1.61606 18.1324 0.78073 23.2995 1.83434 28.5243" stroke="#004650" stroke-miterlimit="10" stroke-linecap="round"/>
<path id="Vector_2" d="M34.0149 3.69709C29.6895 1.57395 24.6555 0.808213 19.567 1.83422C13.7865 2.99959 8.96771 6.26862 5.74609 10.6832" stroke="#004650" stroke-miterlimit="10" stroke-linecap="round"/>
<path id="Vector_3" d="M46.2569 19.5667C45.0614 13.6378 41.6528 8.71976 37.0645 5.5" stroke="#004650" stroke-miterlimit="10" stroke-linecap="round"/>
</g>
</g>
<g id="Group_3">
<g id="Group_4">
<path id="Vector_4" d="M46.7148 24.5032C46.746 22.8786 46.602 21.2254 46.2676 19.5664" stroke="#004650" stroke-miterlimit="10" stroke-linecap="round"/>
<path id="Vector_5" d="M1.8457 28.5234C1.91141 28.8487 1.98354 29.171 2.06228 29.4902" stroke="#004650" stroke-miterlimit="10" stroke-linecap="round"/>
</g>
</g>
<path id="Vector_6" d="M18.1953 45.941C23.2715 40.1634 25.6883 32.1672 24.0508 24.0469" stroke="#004650" stroke-miterlimit="10" stroke-linecap="round"/>
<path id="Vector_7" d="M20.1817 37.3125C19.0717 40.157 17.3973 42.7534 15.2676 44.937" stroke="#004650" stroke-miterlimit="10" stroke-linecap="round"/>
<path id="Vector_8" d="M21.3673 46.5517C26.2866 40.2567 28.5305 31.9324 26.8275 23.4873L26.8363 23.4844C26.5254 21.9428 25.0239 20.9451 23.4823 21.256C21.9408 21.5669 20.9432 23.0684 21.254 24.6102L21.2741 24.6068C21.9085 27.7532 21.8583 30.879 21.226 33.8297" stroke="#004650" stroke-miterlimit="10" stroke-linecap="round"/>
<path id="Vector_9" d="M18.7134 26.4414C19.6015 32.9949 17.1529 39.3248 12.5898 43.594" stroke="#004650" stroke-miterlimit="10" stroke-linecap="round"/>
<path id="Vector_10" d="M30.2254 29.0305C30.2198 27.0171 30.0176 24.9749 29.6046 22.9261L29.6109 22.9237C28.9913 19.8499 25.9972 17.8604 22.9234 18.4803C20.6274 18.9433 18.9363 20.7312 18.4863 22.8877" stroke="#004650" stroke-miterlimit="10" stroke-linecap="round"/>
<path id="Vector_11" d="M24.7695 46.6926C27.6049 42.5491 29.4442 37.7281 30.0266 32.6211" stroke="#004650" stroke-miterlimit="10" stroke-linecap="round"/>
<path id="Vector_12" d="M24.7117 15.5607C23.9448 15.5009 23.1566 15.5449 22.3649 15.7046C17.7588 16.6334 14.7778 21.1198 15.7066 25.7263L15.7225 25.7236C16.9787 31.9538 14.6569 38.0746 10.1719 41.9588" stroke="#004650" stroke-miterlimit="10" stroke-linecap="round"/>
<path id="Vector_13" d="M28.383 46.2849C32.4653 39.3255 34.1025 30.8978 32.3822 22.3668L32.3863 22.3651C31.8744 19.8271 30.2824 17.7824 28.1855 16.6133" stroke="#004650" stroke-miterlimit="10" stroke-linecap="round"/>
<path id="Vector_14" d="M12.269 34.2031C11.3837 36.4826 9.91914 38.508 8.01953 40.064" stroke="#004650" stroke-miterlimit="10" stroke-linecap="round"/>
<path id="Vector_15" d="M35.4046 35.0641C36.1094 30.7857 36.065 26.31 35.1572 21.8073L35.1589 21.8061C33.9211 15.6677 27.9423 11.6953 21.8042 12.9329C15.6658 14.1708 11.6932 20.1497 12.931 26.2883L12.9442 26.2856C13.2382 27.7436 13.2971 29.1944 13.1469 30.5986" stroke="#004650" stroke-miterlimit="10" stroke-linecap="round"/>
<path id="Vector_16" d="M32.1758 45.1975C33.2033 43.0883 34.0329 40.8761 34.645 38.5898" stroke="#004650" stroke-miterlimit="10" stroke-linecap="round"/>
<path id="Vector_17" d="M35.5039 15.707C36.6694 17.3067 37.5168 19.1777 37.9339 21.2452L37.9347 21.2458C39.4748 28.8836 38.7074 36.4504 36.1154 43.2267" stroke="#004650" stroke-miterlimit="10" stroke-linecap="round"/>
<path id="Vector_18" d="M18.1309 11.168C19.1062 10.721 20.1482 10.3784 21.2455 10.1572C25.582 9.28296 29.8548 10.4895 33.0292 13.0893" stroke="#004650" stroke-miterlimit="10" stroke-linecap="round"/>
<path id="Vector_19" d="M6.14258 37.9406C9.34337 35.3692 11.0357 31.1472 10.1679 26.845L10.1572 26.8474C9.0792 21.502 11.1631 16.2534 15.1213 13.0391" stroke="#004650" stroke-miterlimit="10" stroke-linecap="round"/>
<path id="Vector_20" d="M7.05829 24.7188C7.09469 25.6078 7.20121 26.5056 7.38273 27.4056L7.39137 27.4034C8.02672 30.5542 6.83341 33.6487 4.54297 35.5896" stroke="#004650" stroke-miterlimit="10" stroke-linecap="round"/>
<path id="Vector_21" d="M41.0955 22.8853C40.9868 22.1528 40.8586 21.4192 40.7108 20.685L40.7074 20.6848C38.8518 11.4817 29.8882 5.52618 20.6854 7.38159C13.6131 8.80774 8.45817 14.4319 7.29297 21.1366" stroke="#004650" stroke-miterlimit="10" stroke-linecap="round"/>
<path id="Vector_22" d="M40.1289 40.0088C41.2848 35.6733 41.7654 31.1078 41.4719 26.457" stroke="#004650" stroke-miterlimit="10" stroke-linecap="round"/>
<path id="Vector_23" d="M26.7019 4.39199C24.5696 4.10395 22.3542 4.16068 20.1266 4.60993C9.39118 6.77438 2.44349 17.2309 4.60812 27.9661L4.61472 27.9644C4.99048 29.8271 4.40729 31.6598 3.20703 32.9547" stroke="#004650" stroke-miterlimit="10" stroke-linecap="round"/>
<path id="Vector_24" d="M44.0459 34.6973C44.635 29.9652 44.4835 25.0593 43.489 20.1274L43.4834 20.1278C42.0113 12.8273 36.7047 7.27888 30.084 5.15625" stroke="#004650" stroke-miterlimit="10" stroke-linecap="round"/>
</g>
<defs>
<clipPath id="clip0_152_21289">
<rect width="48" height="48" fill="white"/>
</clipPath>
</defs>
</svg>
