<svg width="40" height="40" viewBox="0 0 40 40" fill="none" xmlns="http://www.w3.org/2000/svg">
<g clip-path="url(#clip0_152_18639)">
<rect width="40" height="40" rx="8" fill="#1F2555"/>
<path fill-rule="evenodd" clip-rule="evenodd" d="M2.31963 20.4742C3.04217 20.0245 3.52312 19.2232 3.52312 18.3095C3.52312 16.9024 2.38243 15.7617 0.975327 15.7617C-0.225375 15.7617 -1.23209 16.5923 -1.50159 17.7103C-2.22413 18.1599 -2.70508 18.9613 -2.70508 19.8749C-2.70508 20.5601 -2.43461 21.1821 -1.99461 21.64C-2.43461 22.0979 -2.70508 22.7199 -2.70508 23.4051C-2.70508 24.5744 -1.91731 25.5598 -0.843519 25.8594C-0.784002 26.2478 -0.636793 26.6072 -0.42274 26.917C-0.721013 27.2924 -0.915605 27.7539 -0.963219 28.2582C-1.41705 27.8403 -2.02299 27.5851 -2.68854 27.5851C-4.09564 27.5851 -5.23633 28.7258 -5.23633 30.1329C-5.23633 31.1271 -4.66686 31.9883 -3.8363 32.4081C-4.32923 32.8727 -4.63693 33.5317 -4.63693 34.2625C-4.63693 35.2251 -4.10314 36.0629 -3.31543 36.4963C-3.43694 36.7935 -3.50391 37.1188 -3.50391 37.4598C-3.50391 38.8669 -2.36322 40.0076 -0.956115 40.0076C-0.154427 40.0076 0.56078 39.6373 1.02782 39.0584C1.33101 39.587 1.81826 39.9966 2.40216 40.1997C2.20306 40.5628 2.08984 40.9796 2.08984 41.4229C2.08984 42.83 3.23053 43.9707 4.63764 43.9707C5.47867 43.9707 6.22452 43.5632 6.68851 42.9349C7.13256 43.3112 7.7072 43.5382 8.33486 43.5382C9.74196 43.5382 10.8826 42.3975 10.8826 40.9904C10.8826 40.7113 10.8378 40.4428 10.7549 40.1915C11.145 40.4341 11.6054 40.5742 12.0985 40.5742C12.622 40.5742 13.1085 40.4163 13.5133 40.1456C13.9727 40.5956 14.6019 40.873 15.2958 40.873C15.4988 40.873 15.6963 40.8493 15.8856 40.8044C15.8812 40.8659 15.8789 40.9279 15.8789 40.9904C15.8789 42.3975 17.0196 43.5382 18.4267 43.5382C19.3151 43.5382 20.0972 43.0836 20.5532 42.3942C20.6318 42.4015 20.7114 42.4053 20.7919 42.4053C22.199 42.4053 23.3397 41.2646 23.3397 39.8575C23.3397 38.4504 22.199 37.3097 20.7919 37.3097C19.9036 37.3097 19.1214 37.7643 18.6654 38.4537C18.5868 38.4464 18.5072 38.4426 18.4267 38.4426C18.2237 38.4426 18.0262 38.4664 17.8369 38.5112C17.8414 38.4498 17.8436 38.3878 17.8436 38.3253C17.8436 36.9182 16.7029 35.7775 15.2958 35.7775C14.7724 35.7775 14.2858 35.9353 13.8811 36.206C13.4216 35.756 12.7925 35.4786 12.0985 35.4786C11.2312 35.4786 10.4651 35.912 10.0049 36.574C9.90415 36.4338 9.78947 36.3042 9.66291 36.1873C9.78322 35.8913 9.84949 35.5676 9.84949 35.2285C9.84949 34.6942 9.68505 34.1984 9.40404 33.7888C10.0376 33.3253 10.4491 32.5763 10.4491 31.7311C10.4491 30.324 9.30841 29.1833 7.90131 29.1833C7.41815 29.1833 6.9664 29.3178 6.58147 29.5514C6.11412 29.0004 5.41672 28.6508 4.63764 28.6508C4.45776 28.6508 4.28225 28.6694 4.11291 28.7049C4.11825 28.6375 4.12097 28.5694 4.12097 28.5007C4.12097 27.9634 3.95464 27.4649 3.67067 27.054C4.01615 26.6191 4.22254 26.0688 4.22254 25.4703C4.22254 24.3009 3.43476 23.3156 2.36098 23.016C2.27973 22.4858 2.03507 22.0095 1.68004 21.64C1.98749 21.3201 2.21217 20.92 2.31963 20.4742ZM5.4749 39.0159C5.49451 38.9801 5.51329 38.9438 5.53121 38.907C5.54939 38.9586 5.56918 39.0093 5.59052 39.0593C5.55243 39.0439 5.51388 39.0294 5.4749 39.0159Z" fill="url(#paint0_linear_152_18639)"/>
<path fill-rule="evenodd" clip-rule="evenodd" d="M-0.778024 22.5054C-0.0554838 22.0558 0.425463 21.2544 0.425463 20.3408C0.425463 18.9337 -0.715222 17.793 -2.12233 17.793C-3.32303 17.793 -4.32974 18.6236 -4.59925 19.7415C-5.32179 20.1912 -5.80273 20.9925 -5.80273 21.9062C-5.80273 22.5915 -5.53219 23.2135 -5.09209 23.6714C-5.53219 24.1294 -5.80273 24.7514 -5.80273 25.4367C-5.80273 26.6061 -5.01493 27.5914 -3.94112 27.891C-3.88146 28.2799 -3.7339 28.6398 -3.51935 28.9498C-3.81738 29.3253 -4.0117 29.7868 -4.05905 30.2911C-4.51308 29.8723 -5.11975 29.6164 -5.78619 29.6164C-7.1933 29.6164 -8.33398 30.7571 -8.33398 32.1642C-8.33398 33.1585 -7.76434 34.0199 -6.93358 34.4396C-7.4266 34.9042 -7.73438 35.5632 -7.73438 36.2941C-7.73438 37.2565 -7.20078 38.0943 -6.4133 38.5277C-6.53467 38.8248 -6.60156 39.1499 -6.60156 39.4907C-6.60156 40.8978 -5.46088 42.0385 -4.05377 42.0385C-3.25215 42.0385 -2.537 41.6682 -2.06996 41.0895C-1.76678 41.6182 -1.27948 42.0278 -0.695498 42.2309C-0.894595 42.594 -1.00781 43.0109 -1.00781 43.4542C-1.00781 44.8613 0.132873 46.002 1.53998 46.002C2.38106 46.002 3.12694 45.5944 3.59093 44.966C4.03498 45.3424 4.60964 45.5693 5.23732 45.5693C6.64443 45.5693 7.78511 44.4287 7.78511 43.0215C7.78511 42.7424 7.74021 42.4737 7.65724 42.2223C8.0473 42.4649 8.50771 42.605 9.00085 42.605C9.52407 42.605 10.0105 42.4473 10.4151 42.1768C10.8746 42.6271 11.504 42.9048 12.1982 42.9048C12.4011 42.9048 12.5985 42.8811 12.7877 42.8362C12.7833 42.8974 12.7811 42.9592 12.7811 43.0215C12.7811 44.4287 13.9218 45.5693 15.3289 45.5693C16.217 45.5693 16.9991 45.1149 17.4551 44.4258C17.5338 44.4331 17.6136 44.4369 17.6943 44.4369C19.1014 44.4369 20.2421 43.2962 20.2421 41.8891C20.2421 40.482 19.1014 39.3413 17.6943 39.3413C16.8061 39.3413 16.0241 39.7958 15.5681 40.4848C15.4893 40.4775 15.4095 40.4738 15.3289 40.4738C15.1259 40.4738 14.9286 40.4975 14.7393 40.5423C14.7437 40.4811 14.746 40.4193 14.746 40.357C14.746 38.9499 13.6053 37.8092 12.1982 37.8092C11.675 37.8092 11.1886 37.9669 10.784 38.2374C10.3244 37.7871 9.69507 37.5094 9.00085 37.5094C8.13403 37.5094 7.36831 37.9423 6.90809 38.6037C6.80721 38.4635 6.69244 38.334 6.56579 38.2172C6.68576 37.9216 6.75183 37.5984 6.75183 37.2597C6.75183 36.7255 6.5874 36.2296 6.30638 35.82C6.93995 35.3566 7.35144 34.6075 7.35144 33.7624C7.35144 32.3553 6.21076 31.2146 4.80365 31.2146C4.32049 31.2146 3.86875 31.3491 3.48381 31.5827C3.01647 31.0317 2.31906 30.682 1.53998 30.682C1.36082 30.682 1.18598 30.7005 1.01727 30.7357C1.02257 30.6686 1.02527 30.6007 1.02527 30.5323C1.02527 29.9943 0.858534 29.4953 0.573918 29.0841C0.918857 28.6494 1.12488 28.0995 1.12488 27.5015C1.12488 26.3322 0.337078 25.3468 -0.736738 25.0472C-0.818057 24.5171 -1.06275 24.0409 -1.41779 23.6714C-1.11025 23.3515 -0.885509 22.9513 -0.778024 22.5054ZM2.37725 41.0471C2.39727 41.0106 2.41643 40.9736 2.43469 40.936C2.45321 40.9886 2.47341 41.0405 2.49523 41.0915C2.45637 41.0758 2.41703 41.061 2.37725 41.0471Z" fill="url(#paint1_linear_152_18639)"/>
<path d="M28.9135 10.1554C24.5778 9.90011 20.2632 10.9286 16.5088 13.1119C15.0131 13.9725 13.6384 15.0279 12.4208 16.2506L11.299 16.1866C9.9887 16.1204 8.71142 16.6115 7.78304 17.5386L5.45302 19.8686C5.20778 20.1132 5.10076 20.4641 5.16832 20.8039C5.23565 21.1437 5.46863 21.4273 5.78878 21.5594L8.81243 22.8155C8.49696 23.6781 8.23654 24.5601 8.03256 25.4555L7.89188 26.0947V26.0949C7.83414 26.3593 7.91484 26.6351 8.10591 26.8268L12.9673 31.7105C13.1591 31.9018 13.4348 31.9825 13.6992 31.9245L14.3384 31.7838L14.3386 31.7841C15.2369 31.5854 16.122 31.3304 16.9882 31.02L18.2378 34.0309C18.3736 34.3486 18.6585 34.5778 18.9981 34.642C19.3374 34.706 19.6865 34.5968 19.9287 34.3504L22.2587 32.0204V32.0206C23.1857 31.0922 23.6769 29.8149 23.6107 28.5047L23.5532 27.3828C24.7816 26.1713 25.8435 24.802 26.711 23.3109C28.893 19.5562 29.9203 15.2416 29.6644 10.9062C29.6421 10.5009 29.3184 10.1774 28.9133 10.1551L28.9135 10.1554Z" fill="white"/>
<path d="M19.9253 16.4336C18.9261 16.4338 17.9836 16.8984 17.3753 17.6911C16.767 18.4838 16.5619 19.5144 16.8203 20.4796C17.0789 21.4448 17.7715 22.2349 18.6945 22.6176C19.6177 23.0003 20.6661 22.9318 21.5318 22.4326C22.3972 21.9332 22.9813 21.0598 23.1123 20.0692C23.2432 19.0786 22.906 18.0834 22.1998 17.3766C21.5979 16.771 20.7789 16.4315 19.9253 16.4336L19.9253 16.4336Z" fill="#1F2555"/>
<ellipse cx="28.1176" cy="11.6487" rx="3.01405" ry="2.98075" fill="url(#paint2_linear_152_18639)"/>
<g filter="url(#filter0_f_152_18639)">
<rect x="8.75586" y="21.6328" width="5.79855" height="0.993783" transform="rotate(-56.9463 8.75586 21.6328)" fill="#D0DBEA"/>
</g>
<g filter="url(#filter1_f_152_18639)">
<rect x="17.5664" y="30.4453" width="5.79855" height="0.864565" transform="rotate(-32.8318 17.5664 30.4453)" fill="#D0DBEA"/>
</g>
</g>
<defs>
<filter id="filter0_f_152_18639" x="6.75586" y="14.7734" width="7.99609" height="9.40234" filterUnits="userSpaceOnUse" color-interpolation-filters="sRGB">
<feFlood flood-opacity="0" result="BackgroundImageFix"/>
<feBlend mode="normal" in="SourceGraphic" in2="BackgroundImageFix" result="shape"/>
<feGaussianBlur stdDeviation="1" result="effect1_foregroundBlur_152_18639"/>
</filter>
<filter id="filter1_f_152_18639" x="15.5664" y="25.3008" width="9.3418" height="7.87109" filterUnits="userSpaceOnUse" color-interpolation-filters="sRGB">
<feFlood flood-opacity="0" result="BackgroundImageFix"/>
<feBlend mode="normal" in="SourceGraphic" in2="BackgroundImageFix" result="shape"/>
<feGaussianBlur stdDeviation="1" result="effect1_foregroundBlur_152_18639"/>
</filter>
<linearGradient id="paint0_linear_152_18639" x1="-6.96821" y1="40.2572" x2="26.6363" y2="13.8292" gradientUnits="userSpaceOnUse">
<stop offset="0.0656249" stop-color="#1FAFE6"/>
<stop offset="0.560417" stop-color="white" stop-opacity="0"/>
</linearGradient>
<linearGradient id="paint1_linear_152_18639" x1="-10.0659" y1="42.2885" x2="23.5387" y2="15.8605" gradientUnits="userSpaceOnUse">
<stop offset="0.0656249" stop-color="#1FAFE6"/>
<stop offset="0.560417" stop-color="white" stop-opacity="0"/>
</linearGradient>
<linearGradient id="paint2_linear_152_18639" x1="37.1294" y1="3.29807" x2="25.8503" y2="15.1583" gradientUnits="userSpaceOnUse">
<stop offset="0.398002" stop-color="#1F9CCF"/>
<stop offset="0.761501" stop-color="white" stop-opacity="0"/>
</linearGradient>
<clipPath id="clip0_152_18639">
<rect width="40" height="40" rx="8" fill="white"/>
</clipPath>
</defs>
</svg>
