<svg width="40" height="41" viewBox="0 0 40 41" fill="none" xmlns="http://www.w3.org/2000/svg">
<rect y="0.5" width="40" height="40" rx="8" fill="url(#paint0_linear_153_18960)"/>
<path d="M27.0215 19.6461L32.0608 10.7418C29.2216 7.23534 24.884 4.99219 20.0208 4.99219C19.6107 4.99219 19.2062 5.01309 18.8047 5.04445L27.0215 19.6461Z" fill="white"/>
<path d="M22.8245 13.8769L17.9084 5.14062C12.6309 5.86011 8.20075 9.23458 6.00781 13.8769H22.8245Z" fill="white"/>
<path d="M24.2266 26.2599H34.3897C35.1088 24.473 35.5082 22.5235 35.5082 20.4802C35.5082 17.1118 34.4299 13.9978 32.6046 11.457L24.2266 26.2599Z" fill="white"/>
<path d="M15.8104 14.7031H5.65037C4.93132 16.4893 4.53125 18.4388 4.53125 20.4824C4.53125 23.8308 5.59766 26.9298 7.40546 29.4638L15.8104 14.7031Z" fill="white"/>
<path d="M17.2305 27.0859L22.1684 35.8166C27.4277 35.0857 31.8412 31.7161 34.0286 27.0859H17.2305Z" fill="white"/>
<path d="M13.008 21.293L7.94922 30.1786C10.7879 33.7079 15.1391 35.968 20.0203 35.968C20.4442 35.968 20.8626 35.9459 21.2773 35.9131L13.008 21.293Z" fill="white"/>
<path d="M20.5933 21.7297L20.8238 23.5518C20.8308 23.608 20.7912 23.6596 20.7351 23.6666L19.3164 23.6679C19.2598 23.6679 19.2136 23.6216 19.2136 23.5647L19.4455 21.7292C19.3953 21.669 19.3544 21.6011 19.3251 21.5279C19.2906 21.4413 19.2713 21.3468 19.2713 21.2489C19.2713 21.0419 19.3551 20.8542 19.4904 20.7185C19.6257 20.5822 19.813 20.4982 20.0194 20.4982C20.2258 20.4982 20.4131 20.5822 20.5514 20.7213C20.6862 20.8599 20.7675 21.0451 20.7675 21.2489C20.7675 21.3469 20.7482 21.4412 20.7137 21.5279C20.6842 21.6017 20.6433 21.6697 20.5933 21.7298V21.7297ZM18.1505 19.0456H18.9159L18.9164 17.8639C18.9282 17.5715 19.0562 17.3085 19.2556 17.1193C19.4543 16.9307 19.7241 16.8145 20.0195 16.8145C20.3158 16.8145 20.586 16.9309 20.7847 17.1217C20.9833 17.3126 21.1108 17.5772 21.1225 17.8738L21.1223 19.0456H21.8876V17.8631C21.8667 17.3532 21.6512 16.8999 21.3163 16.5739C20.9798 16.2464 20.522 16.0469 20.0193 16.0469C19.5175 16.0469 19.0602 16.2456 18.7239 16.5697C18.3873 16.8942 18.1708 17.3449 18.1508 17.8477L18.1503 19.0457L18.1505 19.0456ZM22.7924 19.252H17.2466C17.0801 19.252 16.9285 19.3205 16.8187 19.4307C16.709 19.5409 16.6406 19.693 16.6406 19.8601V23.5944C16.6406 23.9547 16.7863 24.2826 17.0241 24.5236C17.2653 24.7655 17.5942 24.9141 17.9557 24.9141H22.0834C22.445 24.9141 22.7738 24.7655 23.0121 24.5263C23.2506 24.2875 23.3984 23.9575 23.3984 23.5945V19.8601C23.3984 19.6931 23.3302 19.5409 23.2203 19.4308C23.1105 19.3206 22.9589 19.252 22.7925 19.252L22.7924 19.252Z" fill="white"/>
<defs>
<linearGradient id="paint0_linear_153_18960" x1="3.18359" y1="-0.261719" x2="37.3633" y2="41.3594" gradientUnits="userSpaceOnUse">
<stop stop-color="#0E2F39"/>
<stop offset="0.989583" stop-color="#0F272F"/>
</linearGradient>
</defs>
</svg>
