<svg width="32" height="32" viewBox="0 0 32 32" fill="none" xmlns="http://www.w3.org/2000/svg">
<g clip-path="url(#clip0_12_11246)">
<path d="M25.1734 0H6.82665C3.05639 0 0 3.05639 0 6.82665V25.1734C0 28.9437 3.05639 32 6.82665 32H25.1734C28.9437 32 32 28.9437 32 25.1734V6.82665C32 3.05639 28.9437 0 25.1734 0Z" fill="#1976D2"/>
<path fill-rule="evenodd" clip-rule="evenodd" d="M19.6706 16.4669H17.1067V25.8594H13.2224V16.4669H11.375V13.165H13.2224V11.0292C13.2224 9.50199 13.9476 7.10938 17.1419 7.10938L20.0183 7.12181V10.3261H17.9312C17.5882 10.3261 17.1067 10.4974 17.1067 11.2255V13.1689H20.0109L19.6706 16.4669Z" fill="white"/>
</g>
<defs>
<clipPath id="clip0_12_11246">
<rect width="32" height="32" fill="white"/>
</clipPath>
</defs>
</svg>
