<svg width="32" height="32" viewBox="0 0 32 32" fill="none" xmlns="http://www.w3.org/2000/svg">
<g clip-path="url(#clip0_12_11250)">
<path d="M25.1734 0H6.82665C3.05639 0 0 3.05639 0 6.82665V25.1734C0 28.9437 3.05639 32 6.82665 32H25.1734C28.9437 32 32 28.9437 32 25.1734V6.82665C32 3.05639 28.9437 0 25.1734 0Z" fill="#26C6DA"/>
<path fill-rule="evenodd" clip-rule="evenodd" d="M25.7344 11.1479C25.0451 11.4535 24.3028 11.6607 23.5253 11.7532C24.3197 11.2767 24.9289 10.5232 25.2176 9.62522C24.4739 10.0653 23.6501 10.3859 22.7743 10.5584C22.0726 9.81034 21.0724 9.34375 19.9657 9.34375C17.8406 9.34375 16.1193 11.0669 16.1193 13.1902C16.1193 13.4914 16.1526 13.7859 16.2186 14.0674C13.0219 13.9064 10.1867 12.3751 8.28999 10.047C7.95799 10.6157 7.76903 11.2767 7.76903 11.9813C7.76903 13.3165 8.44817 14.4944 9.47925 15.1837C8.84878 15.164 8.25634 14.9904 7.7367 14.7017C7.7367 14.7186 7.7367 14.734 7.7367 14.7509C7.7367 16.6139 9.06317 18.1688 10.8226 18.522C10.5006 18.6103 10.1602 18.6579 9.80983 18.6579C9.56209 18.6579 9.32107 18.6339 9.08545 18.5891C9.57603 20.1175 10.9965 21.2296 12.6802 21.2604C11.3634 22.2928 9.70481 22.9063 7.902 22.9063C7.59074 22.9063 7.28415 22.8896 6.98438 22.8533C8.68637 23.9445 10.7079 24.5818 12.8803 24.5818C19.9561 24.5818 23.8266 18.7193 23.8266 13.6359C23.8266 13.4692 23.8223 13.3038 23.8155 13.1385C24.5674 12.5963 25.219 11.9185 25.7344 11.1479Z" fill="white"/>
</g>
<defs>
<clipPath id="clip0_12_11250">
<rect width="32" height="32" fill="white"/>
</clipPath>
</defs>
</svg>
