<svg width="32" height="32" viewBox="0 0 32 32" fill="none" xmlns="http://www.w3.org/2000/svg">
<g clip-path="url(#clip0_41_7363)">
<path d="M25.1734 0H6.82665C3.05639 0 0 3.05639 0 6.82665V25.1734C0 28.9437 3.05639 32 6.82665 32H25.1734C28.9437 32 32 28.9437 32 25.1734V6.82665C32 3.05639 28.9437 0 25.1734 0Z" fill="#C4BDC8"/>
<path fill-rule="evenodd" clip-rule="evenodd" d="M25.7344 11.144C25.0451 11.4495 24.3028 11.6568 23.5253 11.7493C24.3197 11.2728 24.9289 10.5193 25.2176 9.62131C24.4739 10.0614 23.6501 10.382 22.7743 10.5545C22.0726 9.80643 21.0724 9.33984 19.9657 9.33984C17.8406 9.33984 16.1193 11.063 16.1193 13.1863C16.1193 13.4875 16.1526 13.782 16.2186 14.0635C13.0219 13.9024 10.1867 12.3711 8.28999 10.0431C7.95799 10.6118 7.76903 11.2728 7.76903 11.9774C7.76903 13.3126 8.44817 14.4905 9.47925 15.1798C8.84878 15.1601 8.25634 14.9865 7.7367 14.6978C7.7367 14.7147 7.7367 14.7301 7.7367 14.747C7.7367 16.61 9.06317 18.1649 10.8226 18.5181C10.5006 18.6064 10.1602 18.654 9.80983 18.654C9.56209 18.654 9.32107 18.63 9.08545 18.5852C9.57603 20.1136 10.9965 21.2257 12.6802 21.2565C11.3634 22.2888 9.70481 22.9024 7.902 22.9024C7.59074 22.9024 7.28415 22.8857 6.98438 22.8494C8.68637 23.9406 10.7079 24.5779 12.8803 24.5779C19.9561 24.5779 23.8266 18.7153 23.8266 13.632C23.8266 13.4653 23.8223 13.2999 23.8155 13.1346C24.5674 12.5924 25.219 11.9146 25.7344 11.144Z" fill="white"/>
</g>
<defs>
<clipPath id="clip0_41_7363">
<rect width="32" height="32" fill="white"/>
</clipPath>
</defs>
</svg>
