<svg width="40" height="40" viewBox="0 0 40 40" fill="none" xmlns="http://www.w3.org/2000/svg">
<g id="Twitter">
<g clip-path="url(#clip0_1328_18678)">
<rect id="Rectangle 3157" x="4" y="4" width="33" height="33" fill="white"/>
<g id="Group">
<path id="Vector" d="M20.283 17.694L12.8915 7.35156H8.94922L18.1054 20.1623L19.2579 21.7738L27.0951 32.7486H31.0374L21.4307 19.3056L20.283 17.694Z" fill="black"/>
<path id="Vector_2" d="M36.6542 0H3.34584C1.49791 0 0 1.49791 0 3.34584V36.6542C0 38.5021 1.49791 40 3.34584 40H36.6542C38.5021 40 40 38.5021 40 36.6542V3.34584C40 1.49791 38.5021 0 36.6542 0ZM25.8825 34.5455L17.9506 23.2491L8.0208 34.5455H5.45455L16.8125 21.6279L5.45455 5.45455H14.1175L21.6269 16.149L31.0356 5.45455H33.6017L22.7709 17.7739L34.5455 34.5455H25.8825Z" fill="black"/>
</g>
</g>
</g>
<defs>
<clipPath id="clip0_1328_18678">
<rect width="40" height="40" rx="8.5" fill="white"/>
</clipPath>
</defs>
</svg>
