<svg width="1390" height="742" viewBox="0 0 1390 742" fill="none" xmlns="http://www.w3.org/2000/svg">
<g opacity="0.8" clip-path="url(#clip0_1032_36471)">
<path d="M1544.65 378.37C1198.89 369.273 915.004 365.398 677.873 364.431V352.926C914.927 351.972 1198.71 350.577 1544.65 348.492V378.37Z" fill="url(#paint0_linear_1032_36471)"/>
<path d="M1516.91 205.039C975.545 328.557 559.299 328.183 253.376 345.523C252.613 341.997 252.226 340.26 251.443 336.688C557.298 322.269 974.704 319.585 1512.47 185.094C1514.26 193.04 1515.17 197.027 1516.91 205.039Z" fill="url(#paint1_linear_1032_36471)"/>
<path d="M1463.67 47.1056C1024.91 255.634 637.346 289.795 342.883 316.91C340.468 312.47 339.269 310.233 336.863 305.727C631.857 280.862 1017.72 242.017 1451.28 25.2266C1456.22 33.8703 1458.72 38.2382 1463.67 47.1056Z" fill="url(#paint2_linear_1032_36471)"/>
<path d="M1523.86 204.54C1193.47 280.446 909.661 308.982 673.187 324.671L669.264 313.402C906.154 295.95 1190.04 262.02 1517.68 176.773C1520.13 187.812 1521.38 193.397 1523.86 204.54Z" fill="url(#paint3_linear_1032_36471)"/>
<path d="M1493.8 575.314C977.33 407.906 560.051 400.769 255.684 388.395C256.447 385.58 256.824 384.179 257.616 381.383C561.838 396.026 978.645 400.525 1498.18 560.31C1496.41 566.322 1495.54 569.328 1493.8 575.314Z" fill="url(#paint4_linear_1032_36471)"/>
<path opacity="0.4" d="M1539.17 366.597C1335.8 363.835 1154.73 362.078 992.493 361.065C566.255 358.401 247.374 360.065 0 365.953V361.914C247.423 358.111 566.255 356.691 992.493 357.664C1154.72 358.033 1335.78 358.815 1539.17 360.157V366.597Z" fill="url(#paint5_linear_1032_36471)"/>
<path d="M1522.7 311.336C905.235 353.838 471.364 347.647 152.483 359.475C152.348 357.252 152.29 356.14 152.164 353.916C470.968 344.786 905.293 350.016 1521.88 299.844C1522.21 304.435 1522.38 306.738 1522.7 311.336Z" fill="url(#paint6_linear_1032_36471)"/>
<path d="M1453.83 712.892C1212.18 581.927 975.35 504.364 760.985 463.809C585.523 430.602 428.353 420.275 290.143 409.072L291.824 405.875C430.228 417.499 587.649 427.892 763.468 460.803C977.824 500.93 1215.02 577.368 1457.46 707.189C1455.99 709.465 1455.26 710.61 1453.83 712.892Z" fill="url(#paint7_linear_1032_36471)"/>
<path opacity="0.6" d="M1521.11 271.788C957.425 343.162 543.547 340.55 235.209 351.93C235.044 350.549 234.967 349.858 234.803 348.477C543.054 338.379 957.396 340.03 1520.15 263.914C1520.53 267.072 1520.72 268.617 1521.11 271.788Z" fill="url(#paint8_linear_1032_36471)"/>
<path opacity="0.6" d="M1465.63 676.237C1024.03 462.782 633.133 426.852 335.771 406.44L337.327 403.328C634.515 424.378 1025.78 458.986 1468.87 670.041C1467.57 672.527 1466.92 673.764 1465.63 676.237Z" fill="url(#paint9_linear_1032_36471)"/>
<path d="M1338.23 362.232C824.153 357.673 448.521 358.199 162.156 361.804V360.982C448.521 357.693 824.153 357.101 1338.23 360.824V362.232Z" fill="url(#paint10_linear_1032_36471)"/>
<path opacity="0.6" d="M1465.5 660.575C964.672 429.806 538.463 419.642 228.83 395.836L229.12 395.086C538.715 419.156 965 429.062 1466.17 659.213C1465.88 659.792 1465.76 660.029 1465.5 660.575Z" fill="url(#paint11_linear_1032_36471)"/>
<path d="M787.857 426.929C712.418 417.759 640.776 411.141 572.7 406.155C565.482 403.754 561.887 402.57 554.727 400.234C621.827 404.839 692.454 410.812 766.831 419.081C775.209 422.133 779.412 423.705 787.857 426.929Z" fill="url(#paint12_linear_1032_36471)"/>
<path d="M830.241 324.9C751.69 329.741 677.381 333.372 607.024 336.326C598.25 334.813 593.882 334.056 585.186 332.543C654.431 329.61 727.493 325.965 804.692 320.992C814.847 322.525 819.959 323.308 830.241 324.9Z" fill="url(#paint13_linear_1032_36471)"/>
<path d="M1141.81 406.478C1031.41 397.098 928.368 390.434 831.989 385.566C825.592 383.731 822.403 382.83 816.035 381.047C911.39 385.349 1013.38 391.23 1122.66 399.571C1130.33 402.281 1134.14 403.663 1141.81 406.478Z" fill="url(#paint14_linear_1032_36471)"/>
<path d="M1496.67 697.361C1234.88 565.502 982.598 491.51 758.415 453.968C573.986 423.097 410.439 415.085 267.377 405.599C269.455 400.771 270.488 398.363 272.566 393.594C585.697 418.098 1013.62 437.668 1508.36 673.877C1503.68 683.389 1501.34 688.079 1496.67 697.361Z" fill="url(#paint15_linear_1032_36471)"/>
<path style="mix-blend-mode:overlay" opacity="0.7" d="M1507.03 165.341C924.754 331.329 478.63 318.278 162.542 344.656C162.358 343.801 162.271 343.34 162.088 342.512C478.205 317.113 924.542 329.566 1505.88 161.164C1506.34 162.835 1506.57 163.67 1507.03 165.341Z" fill="url(#paint16_linear_1032_36471)"/>
<path opacity="0.6" d="M1501.51 121.845C1049.19 280.794 667.524 306.271 378.028 324.881C377.535 323.677 377.294 323.072 376.801 321.861C666.432 303.706 1048.07 276.781 1499.04 114.773C1500.03 117.595 1500.53 119.01 1501.51 121.845Z" fill="url(#paint17_linear_1032_36471)"/>
<path opacity="0.6" d="M1432.19 5.42701C1199.74 131.511 971.795 207.154 764.561 248.537C593.97 282.612 440.482 295.176 305.141 309.352L303.324 306.195C438.452 292.381 591.67 279.882 761.894 245.544C969.109 203.74 1196.65 127.137 1428.36 0C1429.88 2.15765 1430.66 3.24305 1432.19 5.42701Z" fill="url(#paint18_linear_1032_36471)"/>
<path d="M668.336 334.424C616.4 336.691 566.422 338.64 518.404 340.272C512.393 339.127 509.398 338.555 503.426 337.404C550.897 335.759 600.256 333.825 651.502 331.602L668.336 334.424Z" fill="url(#paint19_linear_1032_36471)"/>
<path opacity="0.6" d="M1463.31 38.2863C1040.06 243.427 662.288 284.607 371.275 310.34C370.599 309.137 370.26 308.538 369.574 307.334C660.732 282.087 1038.04 239.579 1459.91 32.2344C1461.27 34.642 1461.94 35.8524 1463.31 38.2863Z" fill="url(#paint20_linear_1032_36471)"/>
<path d="M1525.7 463.103C1067.77 392.624 707.451 381.007 426.072 376.403C426.459 373.91 426.662 372.666 427.039 370.18C708.369 375.278 1068.02 384.112 1527.59 446.487C1526.84 453.144 1526.45 456.453 1525.7 463.103Z" fill="url(#paint21_linear_1032_36471)"/>
<path opacity="0.6" d="M1461.25 47.0618C1044.04 243.434 672.393 285.12 384.84 309.722L383.168 306.736C670.866 282.568 1042.11 239.546 1457.95 40.9375C1459.27 43.378 1459.93 44.6016 1461.25 47.0618Z" fill="url(#paint22_linear_1032_36471)"/>
<path d="M915.023 414.982C832.307 406.49 754.017 400.287 679.843 395.623C671.63 393.149 667.533 391.932 659.396 389.531C732.459 393.649 809.599 399.083 891.107 406.529C900.596 409.818 905.428 411.529 915.023 414.982Z" fill="url(#paint23_linear_1032_36471)"/>
<path d="M1460.71 685.288C1165.89 538.752 885.676 468.918 644.728 437.362C451.322 412.03 283.02 408.734 137.736 392.137C138.567 389.572 138.983 388.296 139.814 385.75C285.34 403.728 454.134 407.57 648.091 432.593C888.865 463.649 1169.63 531.312 1466.07 675.328C1463.95 679.354 1462.87 681.341 1460.71 685.288Z" fill="url(#paint24_linear_1032_36471)"/>
<path d="M1025.85 363.158C962.511 362.5 901.74 361.98 843.537 361.599C833.68 359.277 828.781 358.145 819.012 355.922C876.346 355.957 936.167 356.034 998.474 356.152C1009.38 358.875 1014.85 360.27 1025.85 363.158Z" fill="url(#paint25_linear_1032_36471)"/>
<path d="M1483.28 94.1109C1082.91 252.823 731.57 292.858 455.68 314.145C454.945 312.73 454.588 312.02 453.854 310.606C729.937 289.509 1081.03 247.725 1479.84 86C1481.2 89.2299 1481.88 90.8547 1483.28 94.1109Z" fill="url(#paint26_linear_1032_36471)"/>
<path d="M480.795 304.185C510.055 301.51 540.01 298.57 570.661 295.364C602.195 291.978 634.479 288.176 667.514 283.957C736.431 274.879 808.595 263.44 884.063 248.435C969.324 231.114 1052.96 210.281 1134.51 186.054C1180.25 172.196 1226.66 156.893 1273.74 140.145C1322.96 122.261 1372.71 102.7 1422.98 81.4609C1372.79 102.972 1323.15 122.733 1274.06 140.744C1226.99 157.619 1180.63 172.99 1134.99 186.857C1053.47 211.103 969.866 231.959 884.633 249.31C809.068 264.17 736.866 275.524 667.901 284.523C634.795 288.707 602.459 292.434 570.893 295.706C540.145 298.824 510.113 301.651 480.795 304.185Z" fill="#45A5DB"/>
<path d="M1503.21 94.2891C951.327 306.699 504.672 303.311 188.709 329.269C190.216 334.564 190.97 337.195 192.478 342.425C507.947 311.067 954.477 318.882 1512.53 119.957C1508.8 109.597 1506.93 104.459 1503.21 94.2891Z" fill="url(#paint27_linear_1032_36471)"/>
<path d="M1501.56 660.156C1185.88 516.212 891.329 452.752 642.718 424.176C442.055 401.113 268.632 398.409 119.821 379.898C118.854 383.26 118.4 384.95 117.453 388.345C266.023 404.882 438.817 406.816 638.765 430.32C887.715 459.587 1181.67 526.105 1495.18 673.851C1497.77 668.411 1499.01 665.668 1501.56 660.156Z" fill="url(#paint28_linear_1032_36471)"/>
<path opacity="0.4" d="M1530.53 192.633C1338.3 238.68 1161.61 268.683 1001.26 288.563C584.499 340.241 266.439 326.94 21.8672 358.844C22.0315 360.377 22.1184 361.14 22.2827 362.672C266.758 328.953 585.107 342.024 1002.27 291.898C1162.56 272.643 1339.32 243.601 1531.81 198.744L1530.53 192.633Z" fill="url(#paint29_linear_1032_36471)"/>
<path d="M1515.32 589.407C947.076 392.114 495.811 401.653 177.886 380.148C177.365 382.286 177.094 383.352 176.572 385.497C494.651 404.659 946.186 396.864 1512.01 599.82C1513.32 595.676 1513.99 593.598 1515.32 589.407Z" fill="url(#paint30_linear_1032_36471)"/>
<path d="M1354.34 498.657C862.41 386.381 480.284 390.229 194.77 376.961C194.48 378.408 194.335 379.132 194.035 380.579C479.482 392.42 861.82 389.341 1352.64 504.907C1353.33 502.42 1353.67 501.17 1354.34 498.657Z" fill="url(#paint31_linear_1032_36471)"/>
<path opacity="0.6" d="M1419.26 463.67C928.475 381.442 551.442 379.706 264.951 373.016C264.729 374.331 264.623 375.022 264.41 376.357C550.852 382.054 928.262 384.718 1418.08 470.643C1418.54 467.853 1418.79 466.459 1419.26 463.67Z" fill="url(#paint32_linear_1032_36471)"/>
<path d="M1355.38 592.407C872.806 410.704 476.118 413.223 185.357 389.141C185.25 389.456 185.202 389.621 185.096 389.937C475.876 413.71 872.516 411.368 1354.76 593.65C1355.03 593.157 1355.15 592.907 1355.38 592.407Z" fill="url(#paint33_linear_1032_36471)"/>
<path d="M837.787 288.434C759.797 298.4 685.778 305.827 615.537 311.721C606.357 310.57 601.796 309.997 592.713 308.826C661.784 303.156 734.509 295.959 811.098 286.25L837.787 288.434Z" fill="url(#paint34_linear_1032_36471)"/>
</g>
<defs>
<linearGradient id="paint0_linear_1032_36471" x1="677.892" y1="363.431" x2="1544.65" y2="363.431" gradientUnits="userSpaceOnUse">
<stop offset="0.24" stop-color="#99C8E2" stop-opacity="0"/>
<stop offset="1" stop-color="#4F5EAF"/>
</linearGradient>
<linearGradient id="paint1_linear_1032_36471" x1="249.129" y1="323.552" x2="1499.34" y2="104.888" gradientUnits="userSpaceOnUse">
<stop offset="0.24" stop-color="#7965F5" stop-opacity="0"/>
<stop offset="1" stop-color="#F5E965"/>
</linearGradient>
<linearGradient id="paint2_linear_1032_36471" x1="326.443" y1="280.416" x2="1405.18" y2="-111.653" gradientUnits="userSpaceOnUse">
<stop offset="0.24" stop-color="#D2DDEE" stop-opacity="0"/>
<stop offset="1" stop-color="#0DA7C9"/>
</linearGradient>
<linearGradient id="paint3_linear_1032_36471" x1="662.563" y1="286.245" x2="1507.41" y2="135.816" gradientUnits="userSpaceOnUse">
<stop offset="0.24" stop-color="#AAD6EF" stop-opacity="0"/>
<stop offset="1" stop-color="#4F64AF"/>
</linearGradient>
<linearGradient id="paint4_linear_1032_36471" x1="402.659" y1="389.073" x2="1171.14" y2="625.183" gradientUnits="userSpaceOnUse">
<stop offset="0.24" stop-color="#4F64AF" stop-opacity="0"/>
<stop offset="1" stop-color="#4F5EAF"/>
</linearGradient>
<linearGradient id="paint5_linear_1032_36471" x1="0" y1="361.979" x2="1539.17" y2="361.979" gradientUnits="userSpaceOnUse">
<stop offset="0.24" stop-color="#D2DDEE" stop-opacity="0"/>
<stop offset="1" stop-color="#0DA7C9"/>
</linearGradient>
<linearGradient id="paint6_linear_1032_36471" x1="151.915" y1="350.16" x2="1520.19" y2="269.081" gradientUnits="userSpaceOnUse">
<stop offset="0.24" stop-color="#7965F5" stop-opacity="0"/>
<stop offset="1" stop-color="#7965F5"/>
</linearGradient>
<linearGradient id="paint7_linear_1032_36471" x1="281.346" y1="437.512" x2="1398.44" y2="877.359" gradientUnits="userSpaceOnUse">
<stop offset="0.24" stop-color="#7965F5" stop-opacity="0"/>
<stop offset="1" stop-color="#7965F5"/>
</linearGradient>
<linearGradient id="paint8_linear_1032_36471" x1="235.992" y1="341.049" x2="1519.65" y2="209.054" gradientUnits="userSpaceOnUse">
<stop offset="0.24" stop-color="#A245DB" stop-opacity="0"/>
<stop offset="1" stop-color="#A245DB"/>
</linearGradient>
<linearGradient id="paint9_linear_1032_36471" x1="325.421" y1="436.112" x2="1418.25" y2="815.591" gradientUnits="userSpaceOnUse">
<stop offset="0.24" stop-color="#A245DB" stop-opacity="0"/>
<stop offset="1" stop-color="#A245DB"/>
</linearGradient>
<linearGradient id="paint10_linear_1032_36471" x1="162.156" y1="360.251" x2="1338.23" y2="360.251" gradientUnits="userSpaceOnUse">
<stop offset="0.24" stop-color="#A245DB" stop-opacity="0"/>
<stop offset="1" stop-color="#A245DB"/>
</linearGradient>
<linearGradient id="paint11_linear_1032_36471" x1="221.991" y1="416.388" x2="1414.7" y2="813.798" gradientUnits="userSpaceOnUse">
<stop offset="0.24" stop-color="#7965F5" stop-opacity="0"/>
<stop offset="1" stop-color="#7965F5"/>
</linearGradient>
<linearGradient id="paint12_linear_1032_36471" x1="558.033" y1="397.606" x2="673.315" y2="293.277" gradientUnits="userSpaceOnUse">
<stop offset="0.21" stop-color="#A245DB" stop-opacity="0"/>
<stop offset="1" stop-color="#A245DB"/>
</linearGradient>
<linearGradient id="paint13_linear_1032_36471" x1="592.575" y1="336.294" x2="671.412" y2="217.968" gradientUnits="userSpaceOnUse">
<stop offset="0.21" stop-color="#A245DB" stop-opacity="0"/>
<stop offset="1" stop-color="#A245DB"/>
</linearGradient>
<linearGradient id="paint14_linear_1032_36471" x1="824.948" y1="390.809" x2="956.771" y2="243.273" gradientUnits="userSpaceOnUse">
<stop offset="0.21" stop-color="#A245DB" stop-opacity="0"/>
<stop offset="1" stop-color="#A245DB"/>
</linearGradient>
<linearGradient id="paint15_linear_1032_36471" x1="254.159" y1="431.062" x2="1440.1" y2="844.135" gradientUnits="userSpaceOnUse">
<stop offset="0.21" stop-color="#A245DB" stop-opacity="0"/>
<stop offset="1" stop-color="#A245DB"/>
</linearGradient>
<linearGradient id="paint16_linear_1032_36471" x1="159.067" y1="328.097" x2="1482.57" y2="49.3235" gradientUnits="userSpaceOnUse">
<stop offset="0.24" stop-color="white" stop-opacity="0"/>
<stop offset="1" stop-color="white"/>
</linearGradient>
<linearGradient id="paint17_linear_1032_36471" x1="366.6" y1="295.405" x2="1464.95" y2="15.5243" gradientUnits="userSpaceOnUse">
<stop offset="0.24" stop-color="#7965F5" stop-opacity="0"/>
<stop offset="1" stop-color="#7965F5"/>
</linearGradient>
<linearGradient id="paint18_linear_1032_36471" x1="293.375" y1="282.813" x2="1357.36" y2="-170.379" gradientUnits="userSpaceOnUse">
<stop offset="0.24" stop-color="#D2DDEE" stop-opacity="0"/>
<stop offset="1" stop-color="#0DA7C9"/>
</linearGradient>
<linearGradient id="paint19_linear_1032_36471" x1="511.773" y1="340.583" x2="564.789" y2="261.868" gradientUnits="userSpaceOnUse">
<stop offset="0.21" stop-color="#D2DDEE" stop-opacity="0"/>
<stop offset="1" stop-color="#0DA7C9"/>
</linearGradient>
<linearGradient id="paint20_linear_1032_36471" x1="357.271" y1="277.231" x2="1409.39" y2="-105.164" gradientUnits="userSpaceOnUse">
<stop offset="0.24" stop-color="#7965F5" stop-opacity="0"/>
<stop offset="1" stop-color="#7965F5"/>
</linearGradient>
<linearGradient id="paint21_linear_1032_36471" x1="451.225" y1="372.561" x2="1144.89" y2="474.446" gradientUnits="userSpaceOnUse">
<stop offset="0.24" stop-color="#AAD6EF" stop-opacity="0"/>
<stop offset="1" stop-color="#4F64AF"/>
</linearGradient>
<linearGradient id="paint22_linear_1032_36471" x1="371.884" y1="273.631" x2="1406.4" y2="-102.367" gradientUnits="userSpaceOnUse">
<stop offset="0.24" stop-color="#D2DDEE" stop-opacity="0"/>
<stop offset="1" stop-color="#3ECBEA"/>
</linearGradient>
<linearGradient id="paint23_linear_1032_36471" x1="659.814" y1="390.247" x2="772.075" y2="275.728" gradientUnits="userSpaceOnUse">
<stop offset="0.21" stop-color="#D2DDEE" stop-opacity="0"/>
<stop offset="1" stop-color="#3ECBEA"/>
</linearGradient>
<linearGradient id="paint24_linear_1032_36471" x1="132.207" y1="403.013" x2="1399.75" y2="863.704" gradientUnits="userSpaceOnUse">
<stop offset="0.24" stop-color="#B8EEFF" stop-opacity="0"/>
<stop offset="1" stop-color="#3ECBEA"/>
</linearGradient>
<linearGradient id="paint25_linear_1032_36471" x1="820.763" y1="355.606" x2="898.312" y2="258.778" gradientUnits="userSpaceOnUse">
<stop offset="0.24" stop-color="#4F5EAF" stop-opacity="0"/>
<stop offset="1" stop-color="#4F5EAF"/>
</linearGradient>
<linearGradient id="paint26_linear_1032_36471" x1="443.994" y1="277.664" x2="1448.55" y2="-22.0238" gradientUnits="userSpaceOnUse">
<stop offset="0.24" stop-color="#99C8E2" stop-opacity="0"/>
<stop offset="1" stop-color="#4F5EAF"/>
</linearGradient>
<linearGradient id="paint27_linear_1032_36471" x1="445.911" y1="259.046" x2="1329.92" y2="81.2969" gradientUnits="userSpaceOnUse">
<stop offset="0.24" stop-color="#B8EEFF" stop-opacity="0"/>
<stop offset="1" stop-color="#3ECBEA"/>
</linearGradient>
<linearGradient id="paint28_linear_1032_36471" x1="110.995" y1="406.53" x2="1440.65" y2="845.005" gradientUnits="userSpaceOnUse">
<stop offset="0.24" stop-color="#4F5EAF" stop-opacity="0"/>
<stop offset="1" stop-color="#4F5EAF"/>
</linearGradient>
<linearGradient id="paint29_linear_1032_36471" x1="17.1924" y1="343.592" x2="1504.16" y2="78.8302" gradientUnits="userSpaceOnUse">
<stop offset="0.24" stop-color="#0DA7C9" stop-opacity="0"/>
<stop offset="1" stop-color="#3ECBEA"/>
</linearGradient>
<linearGradient id="paint30_linear_1032_36471" x1="173.29" y1="401.842" x2="1490.35" y2="714.521" gradientUnits="userSpaceOnUse">
<stop offset="0.24" stop-color="#7965F5" stop-opacity="0"/>
<stop offset="1" stop-color="#7965F5"/>
</linearGradient>
<linearGradient id="paint31_linear_1032_36471" x1="193.468" y1="379.132" x2="1332.57" y2="598.857" gradientUnits="userSpaceOnUse">
<stop offset="0.24" stop-color="#7965F5" stop-opacity="0"/>
<stop offset="1" stop-color="#7965F5"/>
</linearGradient>
<linearGradient id="paint32_linear_1032_36471" x1="264.982" y1="382.383" x2="1415.89" y2="534.54" gradientUnits="userSpaceOnUse">
<stop offset="0.24" stop-color="#A245DB" stop-opacity="0"/>
<stop offset="1" stop-color="#A245DB"/>
</linearGradient>
<linearGradient id="paint33_linear_1032_36471" x1="184.418" y1="392.716" x2="1309.58" y2="746.888" gradientUnits="userSpaceOnUse">
<stop offset="0.24" stop-color="#D2DDEE" stop-opacity="0"/>
<stop offset="1" stop-color="#0DA7C9"/>
</linearGradient>
<linearGradient id="paint34_linear_1032_36471" x1="600.929" y1="315.259" x2="670.218" y2="194.317" gradientUnits="userSpaceOnUse">
<stop offset="0.21" stop-color="#D2DDEE" stop-opacity="0"/>
<stop offset="1" stop-color="#0DA7C9"/>
</linearGradient>
<clipPath id="clip0_1032_36471">
<rect width="1682" height="742" fill="white"/>
</clipPath>
</defs>
</svg>
