<svg width="509" height="509" viewBox="0 0 509 509" fill="none" xmlns="http://www.w3.org/2000/svg">
<path d="M363.909 109.408C339.245 90.8088 310.246 78.8045 279.652 74.5288C249.058 70.2532 217.879 73.8474 189.06 84.9719C160.241 96.0964 134.734 114.384 114.948 138.107C95.162 161.83 81.7503 190.206 75.9798 220.554C70.2094 250.901 72.2706 282.219 81.9689 311.549C91.6671 340.878 108.682 367.251 131.407 388.176C154.131 409.102 181.815 423.888 211.844 431.14C241.872 438.391 273.253 437.868 303.023 429.619L302.5 427.735C273.051 435.894 242.008 436.412 212.303 429.239C182.598 422.065 155.212 407.438 132.732 386.738C110.251 366.038 93.4195 339.948 83.8256 310.935C74.2318 281.921 72.1927 250.94 77.9011 220.919C83.6094 190.898 96.8768 162.828 116.45 139.36C136.023 115.892 161.255 97.8011 189.764 86.7963C218.273 75.7915 249.116 72.236 279.381 76.4657C309.646 80.6953 338.333 92.5705 362.732 110.969L363.909 109.408Z" fill="#AEC4D9"/>
<path d="M92.621 243.805C90.6414 274.13 97.3417 304.391 111.937 331.045C126.533 357.7 148.42 379.645 175.036 394.311C201.652 408.977 231.895 415.757 262.225 413.858C292.555 411.958 321.716 401.457 346.294 383.585C370.872 365.713 389.85 341.208 401.006 312.941C412.162 284.673 415.034 253.813 409.286 223.972C403.538 194.131 389.408 166.546 368.551 144.445C347.693 122.344 320.97 106.642 291.512 99.1779L291.089 100.847C320.231 108.23 346.665 123.763 367.299 145.626C387.932 167.489 401.91 194.778 407.596 224.298C413.282 253.817 410.441 284.346 399.405 312.309C388.369 340.272 369.595 364.513 345.282 382.193C320.968 399.873 292.121 410.26 262.118 412.14C232.114 414.019 202.196 407.312 175.867 392.803C149.537 378.295 127.886 356.586 113.447 330.219C99.0086 303.851 92.3804 273.915 94.3387 243.917L92.621 243.805Z" fill="#AEC4D9"/>
<path d="M467.901 254.555C467.901 216.428 457.731 178.99 438.439 146.103C419.147 113.216 391.432 86.0695 358.152 67.4638C324.872 48.8582 287.232 39.4664 249.112 40.257C210.992 41.0476 173.773 51.9919 141.293 71.9614C108.813 91.9309 82.2478 120.203 64.3362 153.861C46.4246 187.52 37.8154 225.347 39.3962 263.442C40.9771 301.538 52.6908 338.521 73.3295 370.58C93.9681 402.639 122.785 428.613 156.808 445.823L157.849 443.764C124.192 426.74 95.6856 401.046 75.2691 369.332C54.8525 337.618 43.2649 301.032 41.701 263.347C40.1372 225.662 48.6538 188.242 66.3726 154.945C84.0914 121.649 110.371 93.6811 142.502 73.9265C174.632 54.1719 211.45 43.3454 249.16 42.5633C286.869 41.7812 324.105 51.0719 357.027 69.4773C389.948 87.8827 417.365 114.737 436.449 147.27C455.533 179.803 465.594 216.838 465.594 254.555H467.901Z" fill="#AEC4D9"/>
<path d="M63.2913 306.988C73.8795 345.411 95.8527 379.728 126.319 405.423C156.786 431.118 194.318 446.986 233.977 450.94C273.635 454.894 313.562 446.748 348.502 427.574C383.442 408.401 411.758 379.098 429.724 343.521C447.69 307.945 454.463 267.763 449.154 228.263C443.844 188.764 426.699 151.797 399.976 122.228C373.253 92.6594 338.203 71.8742 299.44 62.6082C260.677 53.342 220.017 56.0292 182.811 70.3159L183.572 72.2987C220.378 58.1657 260.601 55.5075 298.947 64.6739C337.292 73.8403 371.965 94.4017 398.4 123.652C424.836 152.903 441.796 189.472 447.048 228.546C452.301 267.621 445.6 307.371 427.828 342.564C410.055 377.757 382.044 406.745 347.48 425.712C312.916 444.68 273.419 452.738 234.187 448.827C194.956 444.915 157.827 429.217 127.689 403.799C97.5499 378.381 75.8132 344.433 65.3389 306.424L63.2913 306.988Z" fill="#AEC4D9"/>
</svg>
