<svg width="56" height="56" viewBox="0 0 56 56" fill="none" xmlns="http://www.w3.org/2000/svg">
<g id="Layer_1">
<path id="Vector" d="M22.5 53C22.2397 52.9999 21.99 52.899 21.8059 52.7194C21.6218 52.5398 21.5184 52.2963 21.5183 52.0423C21.6032 49.6451 21.1817 47.2564 20.2802 45.0249C19.3787 42.7933 18.0163 40.7665 16.2778 39.0704C14.5393 37.3743 12.4618 36.0452 10.1745 35.1657C7.88714 34.2861 5.43881 33.875 2.98167 33.9577C2.72132 33.9577 2.47162 33.8568 2.28753 33.6772C2.10343 33.4976 2 33.254 2 33C2 32.746 2.10343 32.5024 2.28753 32.3228C2.47162 32.1432 2.72132 32.0423 2.98167 32.0423C5.43881 32.125 7.88714 31.7139 10.1745 30.8343C12.4618 29.9548 14.5393 28.6257 16.2778 26.9296C18.0163 25.2335 19.3787 23.2067 20.2802 20.9751C21.1817 18.7435 21.6032 16.3549 21.5183 13.9577C21.5183 13.7037 21.6217 13.4601 21.8058 13.2805C21.9899 13.1009 22.2396 13 22.5 13C22.7603 13 23.01 13.1009 23.1941 13.2805C23.3782 13.4601 23.4817 13.7037 23.4817 13.9577C23.3968 16.3549 23.8183 18.7435 24.7198 20.9751C25.6213 23.2067 26.9837 25.2335 28.7222 26.9296C30.4607 28.6257 32.5382 29.9548 34.8255 30.8343C37.1129 31.7139 39.5612 32.125 42.0183 32.0423C42.2787 32.0423 42.5284 32.1432 42.7125 32.3228C42.8966 32.5024 43 32.746 43 33C43 33.254 42.8966 33.4976 42.7125 33.6772C42.5284 33.8568 42.2787 33.9577 42.0183 33.9577C39.5612 33.875 37.1129 34.2861 34.8255 35.1657C32.5381 36.0452 30.4607 37.3743 28.7222 39.0704C26.9837 40.7665 25.6213 42.7933 24.7198 45.0249C23.8183 47.2565 23.3968 49.6451 23.4817 52.0423C23.4816 52.2963 23.3782 52.5398 23.1941 52.7194C23.01 52.899 22.7603 52.9999 22.5 53ZM9.64553 33C12.6817 33.8947 15.4441 35.5078 17.6868 37.6958C19.9295 39.8838 21.5829 42.5788 22.5 45.5409C23.4171 42.5788 25.0705 39.8838 27.3132 37.6958C29.5559 35.5078 32.3183 33.8947 35.3545 33C32.3183 32.1053 29.5559 30.4922 27.3132 28.3042C25.0705 26.1162 23.4171 23.4212 22.5 20.4591C21.5829 23.4212 19.9295 26.1162 17.6868 28.3042C15.4441 30.4922 12.6817 32.1053 9.64553 33Z" fill="#6A31A5"/>
<path id="Vector_2" d="M41.5 26C41.2327 25.9999 40.9764 25.8938 40.7874 25.7048C40.5984 25.5158 40.4922 25.2595 40.4922 24.9923C40.5504 23.7315 40.3449 22.4725 39.8888 21.2957C39.4328 20.1188 38.7362 19.0501 37.8436 18.1577C36.951 17.2654 35.882 16.569 34.705 16.1132C33.5279 15.6574 32.2687 15.4522 31.0079 15.5106C30.7406 15.5106 30.4842 15.4045 30.2952 15.2155C30.1062 15.0265 30 14.7702 30 14.5029C30 14.2356 30.1062 13.9793 30.2952 13.7903C30.4842 13.6013 30.7406 13.4951 31.0079 13.4951C32.2689 13.5535 33.5282 13.3482 34.7053 12.8923C35.8824 12.4364 36.9515 11.7399 37.8441 10.8474C38.7367 9.95483 39.4333 8.8859 39.8892 7.7089C40.3452 6.5319 40.5506 5.27272 40.4922 4.01186C40.4916 3.87917 40.5173 3.74769 40.5677 3.62495C40.6181 3.50221 40.6922 3.39063 40.7859 3.29662C40.8795 3.2026 40.9908 3.12801 41.1134 3.0771C41.2359 3.0262 41.3673 3 41.5 3C41.6327 3 41.7641 3.0262 41.8866 3.0771C42.0092 3.12801 42.1205 3.2026 42.2141 3.29662C42.3078 3.39063 42.3819 3.50221 42.4323 3.62495C42.4827 3.74769 42.5084 3.87917 42.5078 4.01186C42.4494 5.27272 42.6548 6.5319 43.1108 7.7089C43.5667 8.8859 44.2633 9.95483 45.1559 10.8474C46.0485 11.7399 47.1176 12.4364 48.2947 12.8923C49.4718 13.3482 50.7311 13.5535 51.9921 13.4951C52.1245 13.4951 52.2556 13.5212 52.3778 13.5718C52.5001 13.6225 52.6112 13.6967 52.7048 13.7903C52.7984 13.8839 52.8726 13.995 52.9233 14.1172C52.9739 14.2395 53 14.3705 53 14.5029C53 14.6352 52.9739 14.7663 52.9233 14.8885C52.8726 15.0108 52.7984 15.1219 52.7048 15.2155C52.6112 15.309 52.5001 15.3833 52.3778 15.4339C52.2556 15.4846 52.1245 15.5106 51.9921 15.5106C50.7313 15.4522 49.4721 15.6574 48.295 16.1132C47.118 16.569 46.049 17.2654 45.1564 18.1577C44.2638 19.0501 43.5672 20.1188 43.1112 21.2957C42.6551 22.4725 42.4496 23.7315 42.5078 24.9923C42.5078 25.2595 42.4016 25.5158 42.2126 25.7048C42.0236 25.8938 41.7673 25.9999 41.5 26ZM35.97 14.5029C38.4443 15.5835 40.4193 17.5583 41.5 20.0323C42.5807 17.5583 44.5557 15.5835 47.03 14.5029C44.5561 13.4218 42.5812 11.4472 41.5 8.9735C40.4188 11.4472 38.444 13.4218 35.97 14.5029Z" fill="#6A31A5"/>
</g>
</svg>
