<svg width="40" height="41" viewBox="0 0 40 41" fill="none" xmlns="http://www.w3.org/2000/svg">
<rect y="0.5" width="40" height="40" rx="8" fill="url(#paint0_linear_153_18756)"/>
<circle cx="20" cy="21.5" r="10.75" fill="white" fill-opacity="0.2" stroke="white" stroke-width="0.5"/>
<g clip-path="url(#clip0_153_18756)">
<rect width="3.43173" height="7.82959" rx="1.71587" transform="matrix(0.758393 -0.651798 0.651194 0.758911 13 22.1367)" fill="white"/>
<rect width="5.91317" height="5.97144" transform="matrix(0.758393 -0.651798 0.651194 0.758911 14.9961 25.5352)" fill="#E03131"/>
<g filter="url(#filter0_f_153_18756)">
<rect width="0.225038" height="2.34209" transform="matrix(0.722444 -0.691491 0.690851 0.722938 16.1523 25.3516)" fill="white"/>
</g>
<g filter="url(#filter1_f_153_18756)">
<rect width="0.281802" height="2.30908" transform="matrix(0.722444 -0.691491 0.690851 0.722938 14.3594 22.875)" fill="#D6D6D6"/>
</g>
</g>
<g clip-path="url(#clip1_153_18756)">
<rect width="3.43181" height="7.8294" rx="1.71591" transform="matrix(0.738501 0.674252 -0.67366 0.739042 23.3125 15.5)" fill="white"/>
<rect width="6.72949" height="6.51812" transform="matrix(0.738501 0.674252 -0.67366 0.739042 19.8398 17.6016)" fill="#E03131"/>
<g filter="url(#filter2_f_153_18756)">
<rect width="0.216237" height="2.51748" transform="matrix(0.773505 0.633723 -0.633167 0.774071 20.668 19.3477)" fill="white"/>
</g>
<g filter="url(#filter3_f_153_18756)">
<rect width="0.215302" height="2.24466" transform="matrix(0.706848 0.707417 -0.706796 0.707365 22.8867 16.8594)" fill="#D6D6D6"/>
</g>
</g>
<line x1="20.1" y1="10.6" x2="20.1" y2="12.1" stroke="white" stroke-width="0.2" stroke-linecap="round"/>
<line x1="0.1" y1="-0.1" x2="1.6" y2="-0.1" transform="matrix(-1 8.74227e-08 8.74227e-08 1 30.6992 22.5)" stroke="white" stroke-width="0.2" stroke-linecap="round"/>
<line x1="0.1" y1="-0.1" x2="1.6" y2="-0.1" transform="matrix(-1 8.74227e-08 8.74227e-08 1 10.6992 22.5)" stroke="white" stroke-width="0.2" stroke-linecap="round"/>
<line x1="20.1" y1="30.9008" x2="20.1" y2="32.4008" stroke="white" stroke-width="0.2" stroke-linecap="round"/>
<path d="M26.0009 10.836C26.4009 10.4605 26.8677 10.1642 27.3747 9.96392C27.8818 9.76366 28.419 9.66341 28.9559 9.66889C29.4927 9.67438 30.0187 9.78549 30.5036 9.99587C30.9886 10.2063 31.423 10.5118 31.7822 10.8951C32.1415 11.2783 32.4184 11.7318 32.5972 12.2296C32.776 12.7274 32.8531 13.2598 32.8243 13.7963C32.7954 14.3328 32.6611 14.863 32.429 15.3566C32.197 15.8502 31.8716 16.2976 31.4716 16.6731C31.4716 16.6731 31.1245 15.2844 29.2439 13.278C27.3633 11.2715 26.0009 10.836 26.0009 10.836Z" fill="white"/>
<line x1="0.1" y1="-0.1" x2="0.770185" y2="-0.1" transform="matrix(-0.729079 0.684429 -0.683843 -0.729629 32.2891 10.418)" stroke="white" stroke-width="0.2" stroke-linecap="round"/>
<path d="M13.9871 10.7863C13.582 10.4163 13.1112 10.1263 12.6015 9.93304C12.0918 9.73974 11.5532 9.64685 11.0164 9.65967C10.4797 9.67249 9.95538 9.79078 9.47335 10.0078C8.99133 10.2248 8.56106 10.5362 8.20712 10.9244C7.85318 11.3125 7.58249 11.7697 7.41052 12.2699C7.23854 12.7701 7.16865 13.3035 7.20482 13.8396C7.24099 14.3757 7.38253 14.904 7.62135 15.3943C7.86016 15.8847 8.19158 16.3275 8.59668 16.6975C8.59668 16.6975 8.92481 15.3043 10.7778 13.2723C12.6307 11.2403 13.9871 10.7863 13.9871 10.7863Z" fill="white"/>
<line x1="0.1" y1="-0.1" x2="0.770175" y2="-0.1" transform="matrix(0.738368 0.674398 0.673806 -0.738908 7.69531 10.4531)" stroke="white" stroke-width="0.2" stroke-linecap="round"/>
<defs>
<filter id="filter0_f_153_18756" x="15.1523" y="24.1953" width="3.78076" height="3.84766" filterUnits="userSpaceOnUse" color-interpolation-filters="sRGB">
<feFlood flood-opacity="0" result="BackgroundImageFix"/>
<feBlend mode="normal" in="SourceGraphic" in2="BackgroundImageFix" result="shape"/>
<feGaussianBlur stdDeviation="0.5" result="effect1_foregroundBlur_153_18756"/>
</filter>
<filter id="filter1_f_153_18756" x="13.3594" y="21.6797" width="3.79883" height="3.86328" filterUnits="userSpaceOnUse" color-interpolation-filters="sRGB">
<feFlood flood-opacity="0" result="BackgroundImageFix"/>
<feBlend mode="normal" in="SourceGraphic" in2="BackgroundImageFix" result="shape"/>
<feGaussianBlur stdDeviation="0.5" result="effect1_foregroundBlur_153_18756"/>
</filter>
<filter id="filter2_f_153_18756" x="18.0742" y="18.3477" width="3.76123" height="4.08594" filterUnits="userSpaceOnUse" color-interpolation-filters="sRGB">
<feFlood flood-opacity="0" result="BackgroundImageFix"/>
<feBlend mode="normal" in="SourceGraphic" in2="BackgroundImageFix" result="shape"/>
<feGaussianBlur stdDeviation="0.5" result="effect1_foregroundBlur_153_18756"/>
</filter>
<filter id="filter3_f_153_18756" x="20.3003" y="15.8594" width="3.73877" height="3.73828" filterUnits="userSpaceOnUse" color-interpolation-filters="sRGB">
<feFlood flood-opacity="0" result="BackgroundImageFix"/>
<feBlend mode="normal" in="SourceGraphic" in2="BackgroundImageFix" result="shape"/>
<feGaussianBlur stdDeviation="0.5" result="effect1_foregroundBlur_153_18756"/>
</filter>
<linearGradient id="paint0_linear_153_18756" x1="20" y1="0.5" x2="20.2151" y2="61.3602" gradientUnits="userSpaceOnUse">
<stop stop-color="#269DB7"/>
<stop offset="0.87462" stop-color="#F8FEFF"/>
</linearGradient>
<clipPath id="clip0_153_18756">
<rect width="3.43173" height="7.82959" rx="1.71587" transform="matrix(0.758393 -0.651798 0.651194 0.758911 13 22.1367)" fill="white"/>
</clipPath>
<clipPath id="clip1_153_18756">
<rect width="3.43181" height="7.8294" rx="1.71591" transform="matrix(0.738501 0.674252 -0.67366 0.739042 23.3125 15.5)" fill="white"/>
</clipPath>
</defs>
</svg>
