<svg width="40" height="40" viewBox="0 0 40 40" fill="none" xmlns="http://www.w3.org/2000/svg">
<rect width="40" height="40" rx="8" fill="url(#paint0_radial_152_18602)"/>
<path opacity="0.3" d="M34.7056 1.26972C34.7965 2.04685 34.8253 2.54011 35.0094 2.85947C35.3112 3.25678 35.8377 3.29735 36.8049 3.39204C35.8523 3.50203 35.3374 3.52417 35.0307 3.88497C34.8012 4.20457 34.76 4.70075 34.6826 5.49128C34.5641 4.46478 34.5474 3.94663 34.0993 3.64942C33.7803 3.4932 33.3032 3.45687 32.5833 3.36901C33.4772 3.26446 33.9956 3.24212 34.3056 2.97092C34.5682 2.66132 34.5988 2.145 34.7056 1.26974L34.7056 1.26972Z" fill="white"/>
<path opacity="0.8" d="M6.37325 3.44503C6.49865 4.51711 6.53833 5.19758 6.79238 5.63815C7.20862 6.18625 7.93494 6.24222 9.26925 6.37285C7.95513 6.52459 7.24486 6.55513 6.82168 7.05286C6.50512 7.49377 6.44825 8.17827 6.34145 9.26884C6.17795 7.85273 6.15501 7.13793 5.53675 6.72792C5.0967 6.5124 4.43862 6.46229 3.44548 6.34108C4.67854 6.19685 5.3937 6.16603 5.82141 5.7919C6.18363 5.3648 6.22592 4.65251 6.37327 3.44506L6.37325 3.44503Z" fill="white"/>
<path opacity="0.7" d="M15.5662 10.182C15.6403 10.8149 15.6637 11.2166 15.8137 11.4766C16.0594 11.8002 16.4881 11.8332 17.2758 11.9103C16.5 11.9999 16.0808 12.0179 15.831 12.3117C15.6441 12.572 15.6105 12.9761 15.5475 13.6198C15.451 12.7839 15.4374 12.3619 15.0725 12.1199C14.8127 11.9927 14.4242 11.9631 13.838 11.8916C14.5659 11.8064 14.988 11.7882 15.2405 11.5674C15.4543 11.3153 15.4793 10.8948 15.5663 10.182L15.5662 10.182Z" fill="white"/>
<path d="M9.28932 28.7069L7.65602 28.4993C7.50344 28.48 7.36403 28.5879 7.34464 28.7405L7.3193 28.9399C7.29991 29.0925 7.16051 29.2005 7.00792 29.1811L5.59328 29.0013C5.44069 28.9819 5.30128 29.0899 5.28189 29.2425L4.99142 31.528L3.73443 29.905C3.64025 29.7834 3.66245 29.6085 3.78408 29.5143L7.39577 26.717C7.51739 26.6228 7.69232 26.645 7.7865 26.7667L9.28932 28.7069ZM7.47122 26.1237L3.19081 29.4389C3.06922 29.5331 3.04698 29.708 3.14116 29.8296L5.09553 32.353C5.1897 32.4746 5.36465 32.4968 5.48626 32.4026L9.76666 29.0874C9.88826 28.9932 9.91049 28.8183 9.81631 28.6967L7.86195 26.1733C7.76777 26.0517 7.59282 26.0295 7.47122 26.1237Z" fill="url(#paint1_linear_152_18602)"/>
<path d="M9.96144 32.0609C10.0423 32.2263 10.059 32.4103 10.0085 32.5791C9.95811 32.7477 9.84311 32.8923 9.68473 32.9863C9.48182 33.1064 9.22828 33.1344 8.98917 33.0629C8.54643 32.9304 8.28333 32.498 8.40269 32.0989C8.52204 31.6997 8.97934 31.4827 9.42205 31.6151C9.66123 31.6866 9.85782 31.8491 9.96144 32.0609Z" fill="url(#paint2_linear_152_18602)"/>
<path d="M10.0675 33.8585L9.87376 33.2886C9.85225 33.2254 9.85256 33.1501 9.87455 33.0765C9.89679 33.0022 9.93849 32.9385 9.99203 32.8972C9.9932 32.8963 10.1101 32.8041 10.164 32.6236C10.218 32.4432 10.1709 32.3019 10.1705 32.3005C10.1484 32.2367 10.1485 32.1605 10.1708 32.0861C10.1928 32.0126 10.2339 31.9495 10.2865 31.9084L10.7613 31.5386C10.8699 31.454 11.0822 31.4223 11.2345 31.4678L12.0524 31.7124L11.2421 34.422L10.4242 34.1774C10.2719 34.1318 10.1119 33.9887 10.0676 33.8584L10.0675 33.8585Z" fill="url(#paint3_linear_152_18602)"/>
<path d="M8.90673 23.5494C8.7046 23.8216 8.58774 24.1477 8.57092 24.4863C8.55409 24.825 8.63806 25.161 8.81221 25.4519C8.98635 25.7428 9.24286 25.9755 9.54928 26.1207C9.8557 26.2658 10.1983 26.3168 10.5337 26.2673C10.8691 26.2177 11.1823 26.0698 11.4336 25.8422C11.685 25.6147 11.8632 25.3177 11.9458 24.9888C12.0283 24.66 12.0115 24.3141 11.8975 23.9948C11.7834 23.6755 11.5773 23.3972 11.3051 23.195C10.9398 22.9245 10.4822 22.8099 10.0326 22.8763C9.58299 22.9427 9.17809 23.1848 8.90673 23.5494ZM10.6578 24.2239L10.6427 24.7399L10.6348 25.0106C10.6342 25.0314 10.6278 25.0518 10.6165 25.0693C10.6051 25.0868 10.5892 25.1009 10.5704 25.1101C10.5516 25.1192 10.5306 25.123 10.5098 25.121C10.489 25.119 10.4692 25.1114 10.4524 25.099L9.72909 24.5619C9.71231 24.5494 9.69927 24.5326 9.69138 24.5133C9.6835 24.4939 9.68106 24.4728 9.68435 24.4522C9.68764 24.4315 9.69652 24.4122 9.71003 24.3962C9.72354 24.3803 9.74116 24.3684 9.76097 24.3618L10.0178 24.2759L10.5073 24.1122C10.5248 24.1063 10.5434 24.1048 10.5615 24.1077C10.5797 24.1106 10.5969 24.1178 10.6117 24.1288C10.6265 24.1398 10.6384 24.1542 10.6464 24.1707C10.6544 24.1873 10.6583 24.2055 10.6578 24.2239Z" fill="url(#paint4_linear_152_18602)"/>
<path d="M34.408 32.9338L34.6343 31.5799C34.6554 31.4534 34.5699 31.3348 34.4432 31.3149L34.2776 31.2889C34.1509 31.269 34.0654 31.1504 34.0865 31.0239L34.2826 29.8512C34.3037 29.7247 34.2181 29.606 34.0915 29.5862L32.1938 29.2883L33.589 28.2823C33.6935 28.2069 33.8388 28.2297 33.9134 28.3332L36.13 31.4071C36.2047 31.5106 36.1804 31.6556 36.0759 31.731L34.408 32.9338ZM36.6227 31.4845L33.9956 27.8414C33.921 27.7379 33.7757 27.7151 33.6712 27.7905L31.502 29.3547C31.3975 29.4301 31.3732 29.5751 31.4479 29.6786L34.0749 33.3217C34.1495 33.4252 34.2948 33.448 34.3993 33.3726L36.5685 31.8084C36.6731 31.733 36.6973 31.588 36.6227 31.4845Z" fill="url(#paint5_linear_152_18602)"/>
<path d="M31.6873 24.983C31.4264 24.9641 31.1787 24.8537 30.99 24.6721C30.8013 24.4906 30.6814 24.2474 30.6524 23.9872C30.6155 23.6541 30.7273 23.3247 30.9593 23.0836C31.3888 22.6372 32.1014 22.6235 32.5478 23.053C32.9943 23.4826 33.008 24.1952 32.5785 24.6416C32.3465 24.8827 32.0216 25.0072 31.6873 24.983Z" fill="url(#paint6_linear_152_18602)"/>
<path d="M29.2976 23.8333L30.1474 24.0019C30.2418 24.0206 30.3389 24.0746 30.4212 24.1537C30.5044 24.2337 30.5624 24.3299 30.5845 24.4247C30.585 24.4267 30.636 24.635 30.8378 24.8292C31.0397 25.0233 31.2498 25.0663 31.2518 25.0668C31.3473 25.0853 31.4456 25.1395 31.5288 25.2196C31.6111 25.2987 31.6686 25.3938 31.691 25.4873L31.8922 26.33C31.9382 26.5226 31.8553 26.8044 31.7075 26.958L30.9141 27.7825L27.8837 24.8666L28.6772 24.042C28.825 23.8884 29.1033 23.7948 29.2976 23.8333L29.2976 23.8333Z" fill="url(#paint7_linear_152_18602)"/>
<path d="M32.1677 33.1409C31.9982 32.8472 31.7454 32.6105 31.4413 32.4605C31.1372 32.3106 30.7955 32.2541 30.4593 32.2984C30.1232 32.3426 29.8077 32.4856 29.5528 32.7091C29.2979 32.9327 29.115 33.2268 29.0272 33.5543C28.9394 33.8818 28.9508 34.228 29.0598 34.549C29.1688 34.8701 29.3705 35.1516 29.6395 35.358C29.9085 35.5644 30.2326 35.6864 30.571 35.7086C30.9093 35.7308 31.2466 35.6522 31.5402 35.4826C31.9336 35.2549 32.2206 34.8805 32.3382 34.4415C32.4558 34.0025 32.3945 33.5347 32.1677 33.1409ZM30.8531 34.4799L30.3856 34.2611L30.1403 34.1463C30.1214 34.1374 30.1053 34.1236 30.0937 34.1062C30.0821 34.0888 30.0755 34.0686 30.0746 34.0477C30.0737 34.0268 30.0786 34.0061 30.0886 33.9878C30.0987 33.9695 30.1136 33.9543 30.1317 33.9438L30.9118 33.4934C30.9299 33.4829 30.9506 33.4776 30.9714 33.4781C30.9923 33.4785 31.0127 33.4847 31.0303 33.4959C31.048 33.5071 31.0622 33.5229 31.0714 33.5417C31.0807 33.5604 31.0847 33.5813 31.0829 33.6021L31.0597 33.8719L31.0154 34.3862C31.0138 34.4045 31.0079 34.4222 30.998 34.4377C30.9881 34.4533 30.9746 34.4662 30.9587 34.4754C30.9428 34.4846 30.9248 34.4898 30.9065 34.4906C30.8881 34.4914 30.8698 34.4877 30.8531 34.4799Z" fill="url(#paint8_linear_152_18602)"/>
<path d="M19.4788 19.4427L19.0248 19.4394C18.8441 19.4381 18.6944 19.2933 18.6939 19.1157C18.6862 14.4426 20.3451 10.0807 23.4529 6.60276C23.481 6.57174 23.5178 6.54757 23.5607 6.53203C23.6036 6.51649 23.6515 6.50997 23.7008 6.51296C23.7501 6.51594 23.7995 6.52835 23.8455 6.54927C23.8915 6.57019 23.9329 6.59909 23.9666 6.63385L24.379 7.00591C24.5428 7.15546 24.5824 7.37317 24.4683 7.49185C21.4966 10.71 19.8719 14.7713 19.8077 19.1423C19.8078 19.2226 19.7751 19.2964 19.7151 19.3512C19.6551 19.4059 19.5716 19.4383 19.4788 19.4427Z" fill="white"/>
<path d="M16.7154 20.7112C16.8143 19.7338 17.6869 19.0216 18.6643 19.1205L19.7065 19.226C20.684 19.3249 21.3961 20.1975 21.2972 21.1749L16.7154 20.7112Z" fill="white"/>
<path d="M21.4952 21.4911L16.3022 20.9277C16.3022 20.9277 15.4579 21.7571 15.0465 22.3989C14.6602 23.0014 14.3991 23.3953 14.1296 24.0795C13.8126 24.8846 13.6147 25.3604 13.4262 26.2048C13.2796 26.8615 13.1779 27.2319 13.2163 27.9037C13.2604 28.6766 13.3493 29.0652 13.5867 29.7688C13.7715 30.3166 13.8954 30.6143 14.1983 31.1169C14.4087 31.466 14.7022 31.8069 15.1174 32.1226C15.4717 32.392 15.695 32.534 16.127 32.6413C16.4542 32.7225 16.9901 32.6575 16.9901 32.6575C16.9901 32.6575 16.3496 31.9684 16.0474 31.4532C15.7776 30.9932 15.6272 30.7197 15.5018 30.2014C15.3898 29.7386 15.3662 29.4534 15.3682 28.9772C15.3703 28.477 15.3931 28.1943 15.5232 27.7113C15.6121 27.3809 15.8461 26.8968 15.8461 26.8968C15.8461 26.8968 15.7694 27.6767 15.7722 28.1778C15.7746 28.625 15.7456 28.8842 15.8428 29.3207C15.9258 29.6936 16.0175 29.8934 16.1814 30.2384C16.4338 30.7698 16.64 31.039 17.0097 31.4966C17.374 31.9475 17.5739 32.2243 18.0489 32.5566C18.5308 32.8939 18.8495 33.0415 19.4224 33.175C19.8823 33.2822 20.1576 33.3014 20.6282 33.2638C20.9864 33.2353 21.6474 33.078 21.5007 33.0906C21.3624 33.1024 20.9388 32.4606 20.8853 32.2747C20.8319 32.0889 20.7542 31.3784 20.7542 31.3784C20.7542 31.3784 21.1642 32.2448 21.4284 32.4738C21.6499 32.6657 22.0406 32.8485 22.3159 32.8661C22.6506 32.8876 23.1702 32.759 23.1702 32.759C23.1702 32.759 22.6638 32.1355 22.4107 31.6904C22.0793 31.1074 21.9115 30.7533 21.7663 30.0986C21.602 29.3575 21.7088 28.1558 21.7088 28.1558C21.7088 28.1558 22.0856 29.3562 22.6086 29.9313C23.0162 30.3796 23.3111 30.5983 23.8675 30.8383C24.365 31.0528 24.6826 31.1638 25.2234 31.1318C25.6797 31.1048 26.3456 30.7995 26.3456 30.7995C26.3456 30.7995 25.4229 30.2343 25.1623 29.6431C25.01 29.2978 24.9741 28.6955 24.9741 28.6955C24.9741 28.6955 25.3167 29.4419 25.7034 29.7701C26.035 30.0515 26.2659 30.2069 26.6952 30.2767C27.1858 30.3565 27.5198 30.2885 27.9436 30.0287C28.5679 29.646 28.8179 28.3699 28.8179 28.3699C28.8179 28.3699 27.3483 28.5675 26.5147 28.1863C25.5747 27.7564 24.7929 27.1524 24.1232 26.3786C23.3919 25.5337 23.0861 25.0015 22.5173 24.0397C21.9714 23.1167 21.4952 21.4911 21.4952 21.4911Z" fill="white"/>
<defs>
<radialGradient id="paint0_radial_152_18602" cx="0" cy="0" r="1" gradientUnits="userSpaceOnUse" gradientTransform="translate(23.7841 24.1245) rotate(98.6024) scale(25.2983 65.6974)">
<stop stop-color="#7949D4"/>
<stop offset="0.923563" stop-color="#34207F"/>
</radialGradient>
<linearGradient id="paint1_linear_152_18602" x1="4.41886" y1="31.3638" x2="9.17995" y2="27.4127" gradientUnits="userSpaceOnUse">
<stop stop-color="white"/>
<stop offset="1" stop-color="white" stop-opacity="0"/>
</linearGradient>
<linearGradient id="paint2_linear_152_18602" x1="8.40268" y1="32.0989" x2="10.0085" y2="32.5791" gradientUnits="userSpaceOnUse">
<stop stop-color="white"/>
<stop offset="0.794195" stop-color="white" stop-opacity="0"/>
</linearGradient>
<linearGradient id="paint3_linear_152_18602" x1="10.0226" y1="32.5814" x2="11.6473" y2="33.0672" gradientUnits="userSpaceOnUse">
<stop stop-color="white"/>
<stop offset="0.794195" stop-color="white" stop-opacity="0"/>
</linearGradient>
<linearGradient id="paint4_linear_152_18602" x1="7.02584" y1="22.6857" x2="11.6594" y2="25.5934" gradientUnits="userSpaceOnUse">
<stop offset="0.165308" stop-color="white"/>
<stop offset="1" stop-color="white" stop-opacity="0"/>
</linearGradient>
<linearGradient id="paint5_linear_152_18602" x1="31.8937" y1="29.0454" x2="35.7229" y2="33.1101" gradientUnits="userSpaceOnUse">
<stop stop-color="white"/>
<stop offset="0.865548" stop-color="white" stop-opacity="0"/>
</linearGradient>
<linearGradient id="paint6_linear_152_18602" x1="32.4808" y1="22.9552" x2="32.8889" y2="24.3021" gradientUnits="userSpaceOnUse">
<stop stop-color="white" stop-opacity="0.72"/>
<stop offset="0.921203" stop-color="white" stop-opacity="0"/>
</linearGradient>
<linearGradient id="paint7_linear_152_18602" x1="28.8978" y1="24.4189" x2="32.2778" y2="25.2877" gradientUnits="userSpaceOnUse">
<stop stop-color="white" stop-opacity="0.72"/>
<stop offset="0.921203" stop-color="white" stop-opacity="0"/>
</linearGradient>
<linearGradient id="paint8_linear_152_18602" x1="33.7075" y1="31.7578" x2="29.1985" y2="34.8552" gradientUnits="userSpaceOnUse">
<stop offset="0.165308" stop-color="white"/>
<stop offset="1" stop-color="white" stop-opacity="0"/>
</linearGradient>
</defs>
</svg>
